<svg xmlns="http://www.w3.org/2000/svg" viewBox="0 0 283.2 450.59"><defs><style>.cls-1{fill:#fcc93f;}.cls-1,.cls-2,.cls-3,.cls-4{opacity:0.5;}.cls-2{fill:#0b8790;}.cls-3{fill:#90dbd0;}.cls-4{fill:#f89d0c;}</style></defs><g id="Calque_2" data-name="Calque 2"><g id="Calque_1-2" data-name="Calque 1"><path class="cls-1" d="M19.08,321.46c1.08-9,5.82-13.71,13.17-16.78C34.56,317.42,31.36,321.73,19.08,321.46Z"/><path class="cls-1" d="M57.91,317.63c2.4-.55,4.24-1,6,.17a7.47,7.47,0,0,1,.69,2.08c.07,3.48,0,7,0,10.27l-6.17,3.34C51.26,328.29,56.65,322.89,57.91,317.63Z"/><path class="cls-1" d="M57.46,248c3.36,1.43,5.14-3.2,8.67-2.1,2.94,3.79-3,5.46-2.07,8.6a6.74,6.74,0,0,1-5.75.09c-1.63-2-.5-4.4-.84-6.6Z"/><path class="cls-1" d="M224,188.37c.56,5.51,4.22,9.66,6.38,14.46,4.88,10.86,8.39,22,8.27,34.06-.16,15.88,1,31.85-.38,47.61s-2.2,31.92-8,47.17c-2.52,6.61-3.24,13.78-5.69,20.64A169.92,169.92,0,0,1,200.64,397c-4.94,6.65-10.57,12.49-16.25,18.38-16.64,17.26-37.16,26.94-60.14,33.14-9.92,2.67-19.41,1.4-29.07,1.94-19.36,1.07-36.13-6.11-52.78-15.57-14.51-8.24-24.67-19.45-31-34.21-4.9-11.47-8.81-23.36-8.93-36.26-.07-7.66-2.39-15.16-2.48-23-.06-5.67,2.5-10.45,2.75-15.86.23-4.92-1.08-9.77,1.9-14.87,2.31-4-1.29-10.12,2.8-14.44.44-13.1,5.06-25.25,9.75-37.1,7.06-17.83,14.33-35.6,26.15-51.23,3.6-4.77,7.38-9.76,10.95-14.59,9.7-13.13,21-26.19,38.11-33.35,6.55-2.74,12.25-8,20-7.52,12.38-3.67,24.62-7.7,37.88-7.13,3.69.16,6.28,2.38,9.85,2.76a68.81,68.81,0,0,1,32.47,12.13c10.61,7.4,19.93,16,27.06,26.9C220.74,188.72,222.47,188.29,224,188.37ZM31.25,395.76c3.71.54,5.83-1.42,7.57-5.42v-7.81c6.49-4.8,12.44-4.27,18.26,0v10.23c-3.38.36-5.12,2.44-6.85,4.64.57,3.33-.94,7,1.23,10.24h12l3.94-4.19V388.92a15.22,15.22,0,0,1,13.86,3.81c.4,4.57-2.36,7.81-4.4,11.51-1.87,3.37.21,9.05,3.15,10.21,4,1.59,6.64-.5,8.71-4.42v-11c5.09-3.36,5.09-3.36,15.53-2.8,4.23,3.12,5.06,7.88,1.9,11.12-4.38,4.49-3.42,9-3.17,13.73a11.13,11.13,0,0,0,7.54.65c8.28-4.27,3.77-14.48,9.94-18.68h7.33l5.76,5.38c.58,5-.65,9.34.79,13.33,4,.52,6.13-1.81,6.4-4.44.68-6.71,4.22-9.62,10.63-9.75,2.23-4.81,8.46,0,11.75-5-4.54-3.37-8.73-2.5-12.88-.73s-9.14.19-12.33,3.85l-8.08-7.67c-5.25.42-10.23-1-14.6,1.9-7.12-12.26-10.42-13.32-27.54-8.76-2.57-2.4-5.39-5-7.86-7.35h-15l-7.94-9.79H38.64c.4-7.21-6.35-6.43-9.87-9.37-6.83,3.81-7.2,4.16-9.12,8.83,3.92.11,6.33-3.42,10.44-4.06.72,1.93,3.79,2.36,3.43,6.65l-11,9.09c-1.94,7.63.65,11.46,3.11,15.33,1.87-.25,4,.8,5.61-1.4v-3.36Zm112-190.66c-6.45-.87-6.65,5.17-9.06,8.12,2.05,2.86,2.24,7,5.46,8.4h7.22A63.93,63.93,0,0,0,153.54,200c6.05,1,11.05,2.25,14.26,7.86-4,3.28-6.13,7.27-7.9,11.66l3.53,6.71c5.06,1.33,9.08-.79,13.59-3.71V208.17c5.53-2.21,9.35.85,14,2.89-.72,3.06,1.38,6.78-2.36,9.43-3.58,2.53-2.54,6.18-2.28,9.66,3,2.81,5,7.55,10.55,5.63,3.53-7.47,3.53-7.47,3.76-17.55,3.45-5.12,9.48-4.11,13.45-6.1,4.16.5,4.9,6.35,9.72,4.24,2-4.16-.45-6.6-3.53-8.93-7.18.43-14.72-1.48-21.53,3.15-2.85-1.76-6.05-2.75-7.69-4.92-5.32-7-11.73-6.2-18.67-3.61-6.07-5.81-13.85-3.57-20.71-4.2-7.57-7.47-15.5-13.33-26.08-11.74l-7.74-7.29H106.47l-7.6-7.14c-13.14.26-15.06,1.3-17,9.3,5,.89,7.83-4.43,12.57-4.41l3.48,3.2c-13.12,7.83-13.12,7.83-19.17,19.87,1.39,6.12,6,5.83,10.84,5.21,5.51-6,14.08-9.2,16.41-18.27.53-2.08,3-3.54,5.82-3,3,.61,4.83,2.29,5.45,6.81.45,2-2,5.69-3.59,6.65-7.64,4.57-6.64,10.77-5.53,17.43h12.52c6.21-5.84,5.44-13.91,6.39-21.25h10.08c2.17,2.32,5.08,3.88,6.08,6.68v5.17ZM57.47,248c-6.43,2-8.94,5.68-7.1,10.5,1.28,3.37,6.61,4.83,11.23,3.11,5.39-2,6.61-7.73,10.26-10.41v-9.3l5.46-5.65a17,17,0,0,1,15.9,5.94c-.6,5.39-4.73,8.66-7.18,12.87-2.2,3.79-3.85,7.67-1.26,11.82,2.34,3.75,6.15,2.57,9.61,2.37,2.8-5.28,7.49-9.68,6.19-16.76-.37-2,2.27-4.56,3.46-6.74h14c3.33,2.5,6.19,6.48,2.52,8.69-4.38,2.63-4.52,7.73-8.55,9.34.75,3.83-.71,7.07,1,9.89,2.8,4.51,6.8,2.72,9.19.84l9.12-6.09V256.33l3.39-3.21h17.1c1.66,1.78,3.67,2.74,3.14,6.19-4.72,3.24-10.81,6.2-13.83,11.52v7.47c4.3,2.81,6,9.15,12.37,7.81l11.13-10.52c.11-9,.11-9,4.87-13.28a46,46,0,0,0,5.1,2.36c6.33,2.1,9,4.81,6.5,9.63-3,5.79-1.37,11.47-2.32,17.23,3.17,3.16,5.15,8.35,11.28,6,4.79-8.7,4.26-17.56.83-26.64,3.18-1,5.42-4.16,10.29-3.73,3.9,2.44,9.34,4.73,13.25,8.58,4.62,4.55,1.72,11.79,3.32,17.49l3.56-.2V275c-6.17-6.2-12-14.39-23.91-15.13-2,2.37-5.91,2.81-9.76,5.42-2.51-4.06-6.94-5.53-10.86-7.73H163.68c-4.94-4.28-8.78-10-15.53-11.92-7.07-2-13.43,3.33-21.17,2.23-2.58-3-5.45-6.28-7.48-8.61-8-2.87-13.8,3.38-20.44,1.36-1.46-2.24-1.7-5.35-4.52-6.51-7.69-3.14-15.8-3.07-23.61-2.67l-5.17-4.62H53.83c-5,5.2-5,5.2-4.41,9.6,5-1.14,8.66-6.83,14.38-4.6,3.65,7.33-3.93,7.89-6.34,10.73V248Zm5.67,90.57c8.83-7.18,9.48-15.64,5.35-26.21,3.57,1,5.17-.68,6.39-1.85,9,2.23,15.55,6.76,16.05,16.67-2.37,5.1-11.68,4.57-10,12.72-4.16,5.32-1,11.28-2.11,16.25,6.34,7.55,11.48,2.42,17,.32-2.4-5.27,3-5.46,4.88-8.5V328.16c7.16-4.75,14.6-3.79,20.53-3.9l7.71,5.43v7.62c-6.67,5.64-10.45,12.74-9.62,20.2,2.75,3.54,4.44,5.72,5.4,7h7.88L138.51,353V338c6.89-7.61,14-2.93,21.68-.59-2.31,3,2.59,3.33,2.12,6-1.5,3.73-3.55,7-7.15,8.69v15.69c2.61,5,6.79,4.66,10.57,3.39,6.51-1.45,5-7.6,7.53-11.25,3.93-5.6-2.73-10.11-1.25-15.28,10.38-8.07,12.59-8.2,19.57-.48-4.19,2.41-5.39,7-7.47,10.23v11.37c3.09,5.09,7,3.88,8.68,3.71l10.45-8.23V340.88c5,.46,9-.92,12.14-4.95-2.17-2.82-5-3-6.53-1.7-3.94,3.38-8.94,2.91-12.33,1.62-6.15-2.33-12.19-1.72-17.9-2.11l-10.22,5.64c-7.77-14-21.33-9.76-33.42-10.4a17.48,17.48,0,0,0-8-9.48c-5.31,0-10.53.5-15.61-.14-5.37-.67-9.9,5.36-15.5,1.48-.94-8.36-9.73-9.94-13.35-15.64H66c-7.11-7-15.85-11.15-26.49-9.95-5-.41-6.94-6-11.53-7l-8.46,8.2a9.23,9.23,0,0,0,1.49,7.43c-2.08,6.07-7.3,10-9.43,18.07a16.48,16.48,0,0,1,4.21,2.52,22,22,0,0,1,3.1,4.28h8.85c10.2-10,10.48-10.55,10.81-22.67,2.43-1.49,3.58-4.87,7.77-5.87,3,4.37,10.25,3.12,13.21,8.85-6.77,6.63-14.34,12.76-11.34,23.22l5.33,6.28h9.58Z"/><path class="cls-2" d="M224,188.37c-1.52-.08-3.25.35-4.28-1.23-7.13-10.88-16.45-19.5-27.06-26.9a68.81,68.81,0,0,0-32.47-12.13c-3.57-.38-6.16-2.6-9.85-2.76-13.26-.57-25.5,3.46-37.88,7.13.63-8.19-1.23-16-3.79-23.66C105,118,98.82,108.4,91.45,99.74A157,157,0,0,1,77.09,80.4a6.24,6.24,0,0,1-.38-2.19c1.44-3,4.07-2.13,6-1.19,8.78,4.37,18.41,7.35,25.28,15,.85,1,2.84.91,4.3,1.32,10.07,9.38,19.76,19.11,28.62,32.82,0-13.26,0-24.24,0-35.21,0-7.34-.6-14.75,2.3-21.79-1.44-9.06,3.69-17.5,2.41-26.4,1.23-2.19,2.44-4.18,5.9-4.38l7.58,14.71c2.9-17.86,5.65-34.79,8.4-51.78,2.33-2.21,5.13-1,8.3-1,7.74,18.1,10.09,37.33,10.47,56.94-.1,4.63-.63,8.53-3.8,12.88-4.14,5.66-7.17,12.33-11.62,17.94a8.25,8.25,0,0,0-1.21,7.78,107.27,107.27,0,0,1,4.67,33.89c0,1.86-.78,3.92.8,5.7,7-8.78,11.51-19.37,20.87-26.95-2.1-5.8,1.6-10.91,2.26-16.58C199.49,81.07,202,70.44,210,62.16c12-11.74,24.15-23.27,39.18-31.34,3.45-1.85,6.33-2.5,10.53-1.34-.72,5.74-3.86,10.33-7,14.89a321.61,321.61,0,0,0-20.92,35.38c-1.71,3.32-3.59,6.87-2.81,11-.65.33-1.79.56-1.88,1-1.7,8.28-6.15,15.2-10.48,22.25a168,168,0,0,0-8.95,16.88c-.65,1.38-1,3.92,1.35,5,2.44.48,3.65-1.3,4.86-2.73,7.12-8.35,16.72-13.18,26-18.51,3.4-2,8-1.32,10.7-4.76,4.54.14,8.39-4.54,13.35-1.86,2.79,4.87.28,9.55-2.37,12.75-7.65,9.24-13.95,19.89-25.08,25.88-3,1.63-5.4,4.43-7.64,7.6,18.4-3.57,36.35-7,54.34.79-4.62,6.16-9.26,8.53-15.63,12C253.38,174.92,237.32,178.85,224,188.37Zm-17.58-49.89c-.25.23-.72.51-.69.68a7.54,7.54,0,0,0,.66,1.45c.24-.24.71-.52.67-.7A6.27,6.27,0,0,0,206.41,138.48Z"/><path class="cls-3" d="M143.18,69.2c-2.9,7-2.28,14.45-2.3,21.79,0,11,0,22,0,35.21-8.86-13.71-18.55-23.44-28.62-32.82,1.11-4.08-3.86-6.76-2.5-10.89-6.17-8.56-7.21-19.75-14.19-27.84-5-5.77-6.7-13.49-13.54-19.43l6.66-3.69a48,48,0,0,1,18.48,9.9c10.19,9.07,23.41,14.83,30.28,27.77Z"/><path class="cls-3" d="M210,62.16C202,70.44,199.49,81.07,198.21,92c-.66,5.67-4.36,10.78-2.26,16.58-9.36,7.58-13.88,18.17-20.87,26.95-1.58-1.78-.83-3.84-.8-5.7a107.27,107.27,0,0,0-4.67-33.89,8.25,8.25,0,0,1,1.21-7.78c4.45-5.61,7.48-12.28,11.62-17.94,3.17-4.35,3.7-8.25,3.8-12.88,3.27.86,5.33-1.1,6.76-3.45,3.95-6.49,8.13-12.79,13.62-18.11,1.07-1,2-2.51,4.78-1.93,1.45,3.47,2.11,7.56-.1,11.24-2.44,4.06,0,9.17-3.59,13C206.71,59.08,207.17,61.9,210,62.16Z"/><path class="cls-3" d="M250.6,109.88c-2.74,3.44-7.3,2.8-10.7,4.76-9.26,5.33-18.86,10.16-26,18.51-1.21,1.43-2.42,3.21-4.86,2.73-2.32-1.12-2-3.66-1.35-5A168,168,0,0,1,216.66,114c4.33-7,8.78-14,10.48-22.25.09-.44,1.23-.67,1.88-1,11-2.31,21.11-7,31.41-11.16,4.2-1.68,6.6-.22,9.32,3.33-3.55,11.27-14.72,16.81-21.36,26Z"/><path class="cls-4" d="M63.14,338.57H53.56l-5.33-6.28c-3-10.46,4.57-16.59,11.34-23.22-3-5.73-10.16-4.48-13.21-8.85-4.19,1-5.34,4.38-7.77,5.87-.33,12.12-.61,12.71-10.81,22.67H18.93a22,22,0,0,0-3.1-4.28A16.48,16.48,0,0,0,11.62,322c2.13-8.09,7.35-12,9.43-18.07a9.23,9.23,0,0,1-1.49-7.43l8.46-8.2c4.59.95,6.53,6.58,11.53,7,10.64-1.2,19.38,3,26.49,9.95h16.5c3.62,5.7,12.41,7.28,13.35,15.64,5.6,3.88,10.13-2.15,15.5-1.48,5.08.64,10.3.14,15.61.14a17.48,17.48,0,0,1,8,9.48c12.09.64,25.65-3.63,33.42,10.4l10.22-5.64c5.71.39,11.75-.22,17.9,2.11,3.39,1.29,8.39,1.76,12.33-1.62,1.48-1.26,4.36-1.12,6.53,1.7-3.14,4-7.13,5.41-12.14,4.95v20.31l-10.45,8.23c-1.66.17-5.59,1.38-8.68-3.71V354.34c2.08-3.22,3.28-7.82,7.47-10.23-7-7.72-9.19-7.59-19.57.48-1.48,5.17,5.18,9.68,1.25,15.28-2.55,3.65-1,9.8-7.53,11.25-3.78,1.27-8,1.64-10.57-3.39V352c3.6-1.65,5.65-5,7.16-8.69.46-2.65-4.44-3-2.13-6-7.67-2.34-14.79-7-21.68.59v15l-5.86,11.51h-7.88c-1-1.25-2.65-3.43-5.4-7-.83-7.46,2.95-14.56,9.62-20.2v-7.62l-7.71-5.43c-5.93.11-13.37-.85-20.53,3.9V348c-1.9,3-7.28,3.23-4.88,8.5-5.56,2.1-10.7,7.23-17-.32,1.13-5-2-10.93,2.11-16.25-1.69-8.15,7.62-7.62,10-12.72-.5-9.91-7-14.44-16.05-16.67-1.22,1.17-2.82,2.87-6.39,1.85C72.62,322.93,72,331.39,63.14,338.57ZM19.08,321.46c12.28.27,15.48-4,13.17-16.78C24.9,307.75,20.16,312.49,19.08,321.46Zm77.48,19.18c-2.41-1.6-3-4.13-6.58-4.58-4,3-5.85,7.57-6.51,13.23,2,.89,2.59,3.88,5.72,3.55C93.39,350.47,94.31,346,96.56,340.64Zm-38.65-23c-1.26,5.26-6.65,10.66.53,15.86l6.17-3.34c0-3.3,0-6.79,0-10.27a7.47,7.47,0,0,0-.69-2.08C62.15,316.6,60.31,317.08,57.91,317.63Zm131.77,47.21c4.7-2.85,8-7.26,8.41-10.79.36-3.22-2-4.14-4.35-6.66C190.76,353.63,186.21,358.13,189.68,364.84ZM170,357c-3.27-1.43-1.21-6.88-6-6.4-3,4.25-6.09,8.46-2.81,14.11h4.62Zm-36.8-10.63c-7.57,3.65-7.57,3.65-4.27,12C132.53,354.85,131.71,350.2,133.17,346.35Z"/><path class="cls-4" d="M57.46,248v-5.5c2.41-2.84,10-3.4,6.34-10.73-5.72-2.23-9.42,3.46-14.38,4.6-.63-4.4-.63-4.4,4.41-9.6H65.76l5.17,4.62c7.81-.4,15.92-.47,23.61,2.67,2.82,1.16,3.06,4.27,4.52,6.51,6.64,2,12.49-4.23,20.44-1.36,2,2.33,4.9,5.63,7.48,8.61,7.74,1.1,14.1-4.19,21.17-2.23,6.75,1.87,10.59,7.64,15.53,11.92h13.15c3.92,2.2,8.35,3.67,10.86,7.73,3.85-2.61,7.78-3.05,9.76-5.42,12,.74,17.74,8.93,23.91,15.13V293l-3.56.2c-1.6-5.7,1.3-12.94-3.32-17.49-3.91-3.85-9.35-6.14-13.25-8.58-4.87-.43-7.11,2.69-10.29,3.73,3.43,9.08,4,17.94-.83,26.64-6.13,2.36-8.11-2.83-11.28-6,.95-5.76-.66-11.44,2.32-17.23,2.47-4.82-.17-7.53-6.5-9.63a46,46,0,0,1-5.1-2.36c-4.76,4.26-4.76,4.26-4.87,13.28l-11.13,10.52c-6.37,1.34-8.07-5-12.37-7.81v-7.47c3-5.32,9.11-8.28,13.83-11.52.53-3.45-1.48-4.41-3.14-6.19h-17.1l-3.39,3.21v12.09l-9.12,6.09c-2.39,1.88-6.39,3.67-9.19-.84-1.73-2.82-.27-6.06-1-9.89,4-1.61,4.17-6.71,8.55-9.34,3.67-2.21.81-6.19-2.52-8.69H104c-1.19,2.18-3.83,4.74-3.46,6.74,1.3,7.08-3.39,11.48-6.2,16.76-3.45.2-7.26,1.38-9.6-2.37-2.59-4.15-.94-8,1.26-11.82,2.45-4.21,6.58-7.48,7.18-12.87a17,17,0,0,0-15.9-5.94l-5.46,5.65v9.3c-3.65,2.68-4.87,8.41-10.26,10.41-4.62,1.72-10,.26-11.23-3.11-1.84-4.82.67-8.52,7.1-10.5.34,2.2-.79,4.59.84,6.6a6.74,6.74,0,0,0,5.75-.09c-1-3.14,5-4.81,2.07-8.6C62.6,244.81,60.82,249.44,57.46,248Zm90.59,30.58c8.59-.4,8.59-.4,11.29-10.73C151.32,267.7,149.41,269.39,148.05,278.59Zm-24.42-8.91c-1.15-4,5-5.62,2-9.62-5.45,2.32-5.51,2.26-8.42,7.81C118.3,270.33,120.49,269.18,123.63,269.68Zm-31.88-7.49c3.51-4.22,3.51-4.22,2.41-8.92C90.82,255.55,89.52,258.37,91.75,262.19Z"/><path class="cls-4" d="M143.26,205.11v-5.17c-1-2.8-3.91-4.36-6.08-6.68H127.1c-.95,7.34-.18,15.41-6.39,21.25H108.19c-1.11-6.66-2.11-12.86,5.53-17.43,1.6-1,4-4.61,3.59-6.65-.62-4.52-2.43-6.2-5.45-6.81-2.79-.57-5.29.89-5.82,3-2.33,9.07-10.9,12.25-16.41,18.28-4.81.61-9.45.9-10.84-5.22,6-12,6-12,19.17-19.87l-3.48-3.2c-4.74,0-7.53,5.3-12.57,4.41,1.9-8,3.82-9,17-9.3l7.6,7.14h11.44l7.74,7.29c10.58-1.59,18.51,4.27,26.08,11.74,6.86.63,14.64-1.61,20.71,4.2,6.94-2.59,13.35-3.44,18.67,3.61,1.64,2.17,4.84,3.16,7.69,4.92,6.81-4.63,14.35-2.72,21.53-3.15,3.08,2.33,5.51,4.77,3.53,8.93-4.82,2.11-5.56-3.74-9.72-4.24-4,2-10,1-13.45,6.1-.23,10.08-.23,10.08-3.76,17.55-5.58,1.92-7.54-2.82-10.55-5.63-.26-3.48-1.3-7.13,2.28-9.66,3.74-2.65,1.64-6.37,2.36-9.43-4.65-2-8.47-5.1-14-2.89v14.39c-4.51,2.92-8.53,5-13.59,3.71l-3.53-6.71c1.77-4.39,3.92-8.38,7.9-11.66-3.21-5.61-8.21-6.89-14.26-7.86a63.93,63.93,0,0,1-6.66,21.58h-7.22c-3.22-1.44-3.41-5.54-5.46-8.4,2.41-2.95,2.61-9,9.06-8.12,1.35,3.42-2.8,5.17-2.47,8.42.22,2.27.65,3.68,4.09,3.26.28-3.53,1.92-7,3.77-11.44ZM85.91,198c8.87-1.19,9.56-1.78,11.55-9.42C91.17,188.35,88.64,192.56,85.91,198Zm31,9.5c3.23-4.36,3.23-4.36,4.09-8.93C113.41,200.94,113.41,200.94,116.92,207.45Zm53,15c2.76-2.94,2.53-5.26,1-7.69C167.25,218.7,167.25,218.7,169.89,222.45Z"/><path class="cls-4" d="M31.25,395.76v3.36c-1.61,2.2-3.74,1.15-5.61,1.4-2.46-3.87-5.05-7.7-3.11-15.33l11-9.09c.36-4.29-2.71-4.72-3.43-6.65-4.11.64-6.52,4.17-10.44,4.06,1.92-4.67,2.29-5,9.12-8.83,3.52,2.94,10.27,2.16,9.87,9.37H56.86l7.94,9.79h15c2.47,2.32,5.29,5,7.86,7.35,17.12-4.56,20.42-3.5,27.54,8.76,4.37-2.89,9.35-1.48,14.6-1.9l8.08,7.67c3.19-3.66,8.17-2.07,12.33-3.85s8.34-2.64,12.88.73c-3.29,5-9.52.19-11.75,5-6.41.13-9.95,3-10.63,9.75-.27,2.63-2.35,5-6.4,4.44-1.44-4-.21-8.34-.79-13.33l-5.76-5.38h-7.33c-6.17,4.2-1.66,14.41-9.94,18.68a11.13,11.13,0,0,1-7.54-.65c-.25-4.75-1.21-9.24,3.17-13.73,3.16-3.24,2.33-8-1.9-11.12-10.44-.56-10.44-.56-15.53,2.8v11c-2.07,3.92-4.69,6-8.71,4.42-2.94-1.16-5-6.84-3.15-10.21,2-3.7,4.8-6.94,4.4-11.51a15.22,15.22,0,0,0-13.86-3.81v14.49l-3.94,4.19h-12c-2.17-3.26-.66-6.91-1.23-10.24,1.73-2.2,3.47-4.28,6.85-4.64V382.49c-5.82-4.23-11.77-4.76-18.26,0v7.81c-1.74,4-3.86,6-7.57,5.42-1.27-4.1,5.24-7.16,1.32-11.87-3,3.4-8.69,5.45-4.87,11.87Zm29.91-.32c-3.75,1.07-6.53,2.35-5.91,6.46,2.17,1.47,3.47,1,4.65-.26S63.05,399.13,61.16,395.44Z"/><path class="cls-3" d="M206.41,138.48a6.27,6.27,0,0,1,.64,1.43c0,.18-.43.46-.67.7a7.54,7.54,0,0,1-.66-1.45C205.69,139,206.16,138.71,206.41,138.48Z"/><path class="cls-1" d="M96.56,340.64c-2.25,5.37-3.17,9.83-7.37,12.2-3.13.33-3.67-2.66-5.72-3.55.66-5.66,2.49-10.24,6.51-13.23C93.52,336.51,94.15,339,96.56,340.64Z"/><path class="cls-1" d="M189.68,364.84c-3.47-6.71,1.08-11.21,4.06-17.45,2.32,2.52,4.71,3.44,4.35,6.66C197.69,357.58,194.38,362,189.68,364.84Z"/><path class="cls-1" d="M170,357l-4.19,7.71h-4.62c-3.28-5.65-.15-9.86,2.81-14.11C168.76,350.1,166.7,355.55,170,357Z"/><path class="cls-1" d="M133.17,346.35c-1.46,3.85-.64,8.5-4.27,12C125.6,350,125.6,350,133.17,346.35Z"/><path class="cls-1" d="M148.05,278.59c1.36-9.2,3.27-10.89,11.29-10.73C156.64,278.19,156.64,278.19,148.05,278.59Z"/><path class="cls-1" d="M123.63,269.68c-3.14-.5-5.33.65-6.44-1.81,2.91-5.55,3-5.49,8.42-7.81C128.67,264.06,122.48,265.66,123.63,269.68Z"/><path class="cls-1" d="M91.75,262.19c-2.23-3.82-.93-6.64,2.41-8.92C95.26,258,95.26,258,91.75,262.19Z"/><path class="cls-1" d="M85.91,198c2.73-5.39,5.26-9.6,11.55-9.42C95.47,196.17,94.78,196.76,85.91,198Z"/><path class="cls-1" d="M143.26,205.11l5.39.23c-1.85,4.43-3.49,7.91-3.77,11.44-3.44.42-3.87-1-4.09-3.26-.33-3.25,3.82-5,2.47-8.42Z"/><path class="cls-1" d="M116.92,207.45c-3.51-6.51-3.51-6.51,4.09-8.93C120.15,203.09,120.15,203.09,116.92,207.45Z"/><path class="cls-1" d="M169.89,222.45c-2.64-3.75-2.64-3.75,1-7.69C172.42,217.19,172.65,219.51,169.89,222.45Z"/><path class="cls-1" d="M31.25,395.76H27.7c-3.82-6.42,1.86-8.47,4.87-11.87,3.92,4.71-2.59,7.77-1.32,11.87Z"/><path class="cls-1" d="M61.16,395.44c1.89,3.69.05,4.84-1.26,6.2s-2.48,1.73-4.65.26C54.63,397.79,57.41,396.51,61.16,395.44Z"/></g></g></svg>