<svg width="225" height="251" viewBox="0 0 225 251" fill="none" xmlns="http://www.w3.org/2000/svg">
<g clip-path="url(#clip0_16_117)">
<path d="M187.603 292.39C186.787 291.764 185.966 291.156 185.139 290.536C181.126 297.038 173.931 299.102 167.946 302.856C151.889 312.916 136.512 310.357 121.228 301.048C112.353 295.684 105.907 288.186 98.8713 280.74C82.8696 263.757 71.6812 243.971 60.1447 224.116C48.7503 204.557 43.9974 181.832 46.5961 159.334C47.9729 145.94 56.9119 135.148 65.0136 124.439C74.5016 111.917 88.6639 108.101 102.48 104.773C106.943 103.697 110.921 101.006 114.616 100.854C117.907 100.976 117.837 104.697 122.7 103.366L127.666 100.586C128.609 102.27 129.974 102.882 131.8 101.798C133.495 103.386 133.764 106.716 137.275 106.235C141.838 104.175 139.614 98.737 142.233 95.7232C143.205 95.2721 144.606 95.0906 145.098 94.3359C154.221 79.8059 169.258 73.0715 183.548 65.6107C199.105 57.4248 226.786 61.5091 237.325 72.7483C241.07 76.6691 245.304 79.0009 249.427 81.9365C254.623 86.2357 254.142 95.0601 262.111 97.4505C263.602 97.8996 264.92 100.751 265.331 102.702C268.617 118.142 275.852 132.391 278.662 148.005C284.205 178.626 282.197 196.814 278.826 223.856C277.84 231.834 274.961 238.397 272.415 245.608C269.67 253.438 264.139 259.988 256.876 264.009C249.019 268.626 240.965 272.919 232.968 277.397C228.479 277.514 223.877 273.392 219.384 277.625C213.183 274.353 207.648 276.725 202.335 279.855C196.821 283.205 189.582 284.692 187.603 292.39ZM232.593 263.004C237.96 259.999 242.116 257.516 246.393 255.276C252.119 252.332 255.915 247.02 258.752 242.043C263.375 233.947 262.407 223.366 268.779 215.683C266.697 207.814 268.636 200.293 270.4 192.653C271.25 188.913 270.047 184.636 269.458 180.65C268.065 171.219 267.663 161.73 265.967 152.283C263.427 137.648 257.877 124.002 254.517 109.701C253.809 106.694 252.169 102.492 249.83 101.497C242.366 98.4058 241.504 90.8905 237.165 85.3839C217.158 73.6149 217.158 73.6148 187.11 74.7388C175.622 79.981 167.079 87.6889 159.052 97.0105C153.035 104 149.488 114.959 137.469 115.934C121.357 108.466 94.877 112.28 77.9076 124.335C66.984 134.598 63.3168 144.649 60.0873 153.961C57.2887 161.994 55.0105 171.206 57.8333 181.089C60.6561 190.972 62.4412 201.049 67.2661 210.135C73.8126 222.434 80.8021 234.501 87.7105 246.644C89.2537 249.399 90.3945 253.262 92.8051 254.496C100.674 258.505 103.834 266.776 108.858 272.842C114.933 280.177 122.734 284.812 129.422 290.89C136.37 297.21 146.335 296.193 155.697 294.926C161.969 290.965 168.099 286.28 174.216 281.461C190.944 268.505 210.818 262.327 232.593 263.004V263.004Z" fill="#90DBD0"/>
<path d="M142.319 95.7372C139.64 98.784 141.838 104.175 137.36 106.249C133.823 106.683 133.58 103.4 131.885 101.812L130.271 99.0958C124.912 83.6876 122.387 68.0843 128.715 52.3813C130.93 46.9021 133.146 40.7881 140.702 38.4286C145.776 44.3899 144.46 50.8663 143.364 57.5134C141.222 70.1448 140.87 83.0123 142.319 95.7372V95.7372Z" fill="#A85751"/>
<path d="M130.233 99.0554L131.847 101.771C129.995 102.808 128.715 102.21 127.713 100.559C128.495 100.075 129.331 99.5757 130.233 99.0554Z" fill="#EBF3F6"/>
<path d="M232.593 263.004C210.794 262.34 190.944 268.505 174.262 281.544C168.132 286.338 162.002 291.024 155.743 295.009C146.334 296.301 136.416 297.292 129.468 290.972C122.78 284.894 114.979 280.259 108.904 272.925C103.88 266.858 100.72 258.587 92.8512 254.578C90.4406 253.345 89.3116 249.475 87.7566 246.726C80.944 234.56 73.9191 222.513 67.3122 210.217C62.4874 201.131 60.6877 191 57.8795 181.171C55.0713 171.342 57.3349 162.077 60.1335 154.043C63.363 144.732 67.0433 134.704 77.9537 124.417C94.9231 112.362 121.403 108.548 137.515 116.016C149.534 115.041 153.081 104.082 159.098 97.0929C167.125 87.7713 175.674 80.0751 187.156 74.821C217.197 73.6853 217.197 73.6853 237.211 85.4662C241.543 90.961 242.405 98.4763 249.876 101.579C252.201 102.551 253.842 106.753 254.563 109.784C257.923 124.084 263.52 137.704 266.013 152.365C267.65 161.845 268.053 171.335 269.504 180.732C270.094 184.718 271.302 189.007 270.446 192.735C268.702 200.41 266.743 207.896 268.826 215.765C262.418 223.468 263.385 234.049 258.798 242.126C255.961 247.102 252.165 252.415 246.439 255.358C242.116 257.516 237.96 259.998 232.593 263.004ZM160.258 214.48C155.371 194.522 153.256 189.72 149.044 188.535L141.024 193.027C140.035 204.734 144.288 213.104 155.156 217.6L160.258 214.48ZM190.172 204.071C195.997 204.043 198.418 200.537 198.404 196.058C198.379 188.461 197.375 180.885 190.416 176.259C186.686 177.899 183.822 179.147 181.974 181.852C181.199 190.733 185.218 197.687 190.172 204.071V204.071Z" fill="#FBF6E3"/>
<path d="M160.258 214.48L155.189 217.659C144.288 213.104 140.035 204.734 141.057 193.086L149.077 188.594C153.256 189.72 155.371 194.522 160.258 214.48Z" fill="#A85751"/>
<path d="M190.172 204.072C185.218 197.687 181.164 190.753 181.962 181.859C183.81 179.154 186.71 177.886 190.404 176.265C197.376 180.885 198.379 188.461 198.392 196.065C198.418 200.537 195.997 204.043 190.172 204.072Z" fill="#A85751"/>
</g>
<defs>
<clipPath id="clip0_16_117">
<rect width="238.931" height="259.509" fill="white" transform="translate(0 116.74) rotate(-29.2483)"/>
</clipPath>
</defs>
</svg>
