<svg width="552" height="545" viewBox="0 0 552 545" fill="none" xmlns="http://www.w3.org/2000/svg">
<path d="M353.94 543.723C329.165 543.723 304.331 541.683 280.029 544.137C219.747 550.227 170.434 523.117 122.747 493.139C80.766 466.708 46.5306 431.645 27.373 384.549C18.2081 361.992 8.51099 339.848 6.05716 314.6C4.7859 301.651 -0.979129 288.672 0.144312 274.836C4.372 218.369 18.2376 164.917 50.4035 117.436C59.2728 104.251 75.4149 96.7415 80.3521 80.1264C94.3951 78.0864 99.0662 62.8609 110.33 58.0124C127.093 50.8283 138.771 36.7852 155.002 28.4481C167.596 21.9736 183.945 28.8323 192.696 16.2971C203.605 0.628037 221.226 13.5476 234.264 4.47139C246.089 -3.71791 261.433 1.92886 275.18 1.51496C297.413 0.805423 319.704 1.51507 341.996 1.24899C360.562 1.04204 375.994 10.1183 392.846 15.7059C416.911 23.5109 433.26 41.2493 450.467 55.854C474.384 76.076 492.182 103.778 511.517 129.085C535.168 160.068 539.426 198.59 549.093 234.718C551.813 244.888 553.646 258.369 546.137 268.362C541.17 275.043 541.791 281.932 542.855 288.259C548.531 321.105 534.577 350.935 527.57 381.445C523.52 398.977 508.59 413.729 500.549 430.699C482.958 467.595 446.505 485.777 420.282 514.041C404.908 514.189 393.94 527.906 380.163 528.823C367.096 529.68 362.809 539.702 353.94 543.723ZM338.418 508.483C355.773 498.608 372.713 493.7 384.332 480.722C414.635 479.657 429.535 455.444 447.658 437.144C469.113 415.624 484.573 388.872 492.507 359.538C504.155 315.369 510.778 270.106 507.289 223.868C505.161 195.249 492.803 170.327 479.115 146.557C463.475 119.388 438.73 99.2543 417.237 76.549C387.406 45.1222 348.175 37.0808 308.352 29.2462C295.639 26.7333 287.331 37.5242 275.565 36.6077C255.022 34.6346 234.294 37.0429 214.751 43.6736C191.898 51.7446 165.083 51.242 148.793 73.9769C146.462 76.4194 143.439 78.0906 140.131 78.7663C120.8 84.0152 104.212 96.4667 93.7742 113.563C82.2146 131.45 71.9263 150.223 60.1597 167.489C41.8003 194.481 35.5918 222.596 35.0301 253.461C34.6162 275.753 35.0301 298.074 35.0301 315.546C49.9896 355.251 69.5316 387.565 89.7831 419.613C96.0633 430.041 104.855 438.731 115.356 444.89C135.519 456.479 155.179 468.541 176.761 478.15C221.787 497.958 267.642 511.055 317.221 508.483C324.168 508.187 331.234 508.483 338.27 508.483H338.418Z" fill="#FDE773" fill-opacity="0.7"/>
<path d="M338.271 508.483C331.235 508.483 324.169 508.187 317.133 508.483C267.553 511.055 221.699 497.958 176.673 478.15C155.091 468.689 135.431 456.479 115.268 444.89C104.767 438.731 95.9751 430.041 89.6949 419.613C69.4434 387.565 49.9014 355.251 34.9419 315.546C34.9419 298.104 34.6167 275.783 34.9419 253.462C35.5036 222.596 41.7121 194.333 60.0715 167.489C71.8972 150.223 82.1264 131.45 93.6861 113.564C104.056 96.4126 120.603 83.8861 139.925 78.5594C143.233 77.8836 146.255 76.2125 148.587 73.77C164.877 51.0351 191.692 51.5377 214.545 43.4667C234.088 36.836 254.815 34.4278 275.358 36.401C287.184 37.3175 295.432 26.5264 308.145 29.0393C347.968 36.9921 387.2 45.0336 417.03 76.3421C438.523 98.9883 463.269 119.181 478.908 146.35C492.596 170.002 504.954 195.043 507.083 223.661C510.542 269.899 503.919 315.31 492.301 359.331C484.366 388.665 468.906 415.417 447.452 436.937C429.329 455.237 414.428 479.451 384.125 480.515C372.566 493.848 355.625 498.608 338.271 508.483ZM415.463 113.741C416.616 102.832 411.768 96.0023 401.361 92.8094C400.445 90.8286 400.001 87.6357 398.552 87.0739C355.034 70.2223 312.284 49.4683 262.557 59.2245C239.083 77.2882 264.331 95.2338 261.286 113.416L274.324 114.125V128.109C271.101 136.091 263.947 142.891 268.263 153.002C276.659 172.544 279.29 193.505 281.123 214.348C282.099 225.169 286.593 230.934 297.857 234.807C306.726 223.927 320.207 217.275 325.174 201.695C326.515 197.778 329.309 194.527 332.979 192.612C336.649 190.697 340.914 190.266 344.893 191.406V206.986C338.774 219.788 321.242 223.72 323.637 240.69C321.715 241.636 318.966 242.079 318.02 243.646C317.627 244.038 317.407 244.57 317.407 245.124C317.407 245.679 317.627 246.211 318.02 246.603C318.412 246.995 318.943 247.215 319.498 247.215C320.052 247.215 320.584 246.995 320.976 246.603C322.513 245.686 322.957 242.966 323.932 241.015C332.062 241.015 340.518 242.434 348.264 240.69C373.985 234.777 399.38 227.682 424.983 221.473C440.8 217.659 459.277 223.276 471.073 208.908C472.64 201.569 472.738 193.992 471.363 186.614C469.988 179.237 467.167 172.204 463.062 165.922C451.827 147.947 442.751 128.198 425.722 114.51C423.534 112.588 418.981 113.889 415.463 113.741ZM204.138 360.602H218.24C213.155 388.925 193.85 408.378 176.436 427.506V448.024C196.777 456.39 215.52 467.566 235.565 471.38C256.644 475.371 279.054 472.267 300.281 472.267C308.175 451.099 296.231 433.094 295.876 414.232C295.344 383.485 282.513 354.956 281.094 324.357C280.798 317.971 274.56 312.531 264.42 310.846C260.487 322.671 248.691 330.122 244.759 343.366C243.252 348.422 236.452 345.643 232.047 346.323C232.047 330.654 229.948 314.275 246.238 304.076C256.26 304.076 265.513 303.603 256.585 289.914H239.172C203.695 297.956 167.035 300.942 130.346 319.124H100.781C83.0429 336.182 91.6166 353.507 98.6824 369.679C103.087 379.73 113.465 387.417 116.953 397.587C123.723 416.981 138.801 421.239 156.007 424.668C178.269 407.757 191.839 384.668 204.138 360.602ZM316.837 304.135C316.921 303.02 316.731 301.902 316.284 300.877C315.836 299.852 315.145 298.953 314.271 298.256C313.397 297.559 312.365 297.087 311.267 296.88C310.168 296.673 309.035 296.738 307.968 297.069C306.349 297.351 304.895 298.231 303.893 299.534C302.891 300.837 302.414 302.468 302.557 304.105C303.119 326.87 300.488 349.634 309.357 371.925C319.291 396.907 321.478 423.899 325.706 450.212C333.215 459.317 339.927 462.037 352.61 455.888C386.481 439.64 416.313 416.06 439.942 386.855L316.837 304.135ZM102.082 170.711C93.213 193.121 81.9195 212.959 78.0761 234.127C74.0258 256.418 77.1596 279.981 77.1596 300.794C111.04 314.275 136.111 289.678 165.852 288.968C187.375 288.584 209.164 280.513 229.888 273.181C234.648 271.496 244.434 272.264 247.036 259.611C209.46 233.328 170.937 205.568 131.321 179.433C123.605 174.584 114.47 167.016 102.082 170.711ZM116.864 148.597C159.26 181.118 202.009 201.813 237.516 233.89C244.611 231.939 253.422 237.29 260.133 230.047C262.468 201.31 252.86 174.761 246.592 147.503C240.325 120.245 243.074 90.06 228.558 64.0139C181.787 82.2254 145.069 109.543 116.864 148.597ZM455.937 373.463C456.942 345.14 478.021 330.476 478.287 309.101C478.553 287.224 491.355 267.091 484.998 244.06C481.776 240.631 479.085 235.191 472.847 233.624C448.516 245.686 419.454 240.217 395.98 254.94C367.007 251.244 343.918 270.343 313.91 272.235C334.842 295.62 359.528 306.589 380.873 322.08C403.401 338.488 426.845 353.655 455.937 373.463Z" fill="#FBF2DD"/>
<path d="M345.07 191.406C341.091 190.266 336.826 190.697 333.156 192.612C329.486 194.527 326.692 197.778 325.351 201.695C320.384 217.275 306.991 223.927 298.033 234.807C286.77 230.934 282.276 225.169 281.3 214.348C279.467 193.505 276.836 172.544 268.44 153.002C264.123 142.951 271.396 136.091 274.5 128.109C276.774 128.272 279.056 128.272 281.33 128.109C303.562 124.414 308.529 114.45 296.644 97.4214C292.594 91.5086 288.484 85.8914 284.138 79.6829C280.857 91.5086 277.634 102.773 274.441 114.155L261.403 113.445C264.36 95.2634 239.201 77.3178 262.675 59.2541C312.343 49.4979 355.092 70.2519 398.67 87.1035C400.119 87.6653 400.562 90.8582 401.479 92.839C401.479 96.2685 402.809 101.354 401.065 102.921C382.439 119.506 372.24 142.27 357.605 161.753C351.19 170.268 344.065 179.492 345.159 191.317L345.07 191.406Z" fill="#FDE773" fill-opacity="0.7"/>
<path d="M102.082 170.711C114.558 167.016 123.605 174.584 131.173 179.58C170.789 205.715 209.311 233.476 246.887 259.759C244.286 272.412 234.5 271.584 229.74 273.329C209.045 280.661 187.227 288.732 165.704 289.116C136.14 289.678 111.04 314.275 77.0113 300.942C77.0113 280.247 73.8775 256.595 77.9278 234.274C81.9486 212.959 93.2421 193.121 102.082 170.711Z" fill="#FDE773" fill-opacity="0.7"/>
<path d="M116.864 148.597C145.068 109.543 181.905 82.2255 228.557 64.0139C243.074 90.06 240.383 119.861 246.592 147.503C252.8 175.146 262.468 201.31 260.132 230.047C253.421 237.29 244.611 231.939 237.515 233.89C202.009 201.931 159.259 181.118 116.864 148.597Z" fill="#FDE773" fill-opacity="0.7"/>
<path d="M232.224 346.471C236.629 345.761 243.428 348.54 244.936 343.514C248.868 330.151 260.664 322.819 264.596 310.994C274.737 312.708 280.975 318.118 281.271 324.504C282.601 355.103 295.432 383.633 296.053 414.38C296.408 433.242 308.352 451.246 300.458 472.414C279.231 472.414 256.821 475.371 235.742 471.527C215.609 467.714 196.865 456.538 176.613 448.172V427.654C194.027 408.526 213.332 389.073 218.417 360.75L231.573 359.775C231.928 354.749 232.194 350.639 232.49 346.559L232.224 346.471Z" fill="#FDE773" fill-opacity="0.7"/>
<path d="M455.936 373.463C426.845 353.655 403.4 338.488 380.813 322.11C359.468 306.618 334.782 295.65 313.85 272.264C343.858 270.372 367.066 251.274 395.92 254.969C419.572 240.187 448.515 245.716 472.787 233.653C478.937 235.191 481.657 240.66 484.938 244.09C491.295 267.091 478.493 287.224 478.227 309.131C478.109 330.476 456.941 345.14 455.936 373.463Z" fill="#FDE773" fill-opacity="0.7"/>
<path d="M316.837 304.135L440.06 386.915C416.431 416.119 386.599 439.699 352.728 455.947C340.044 462.126 333.333 459.377 325.824 450.271C321.596 423.959 319.409 397.055 309.475 371.985C300.606 349.693 303.237 326.929 302.675 304.164L316.837 304.135Z" fill="#FDE773" fill-opacity="0.7"/>
<path d="M246.414 304.223C230.124 314.423 232.223 330.831 232.223 346.471H218.092L204.876 347.387L204.078 360.632C191.779 384.697 178.209 407.935 156.036 424.846C138.83 421.327 123.752 417.159 116.982 397.765C113.434 387.595 103.116 380.026 98.7111 369.856C91.6453 353.684 83.1012 336.36 100.81 319.301H130.374C167.064 301.119 203.812 298.133 239.2 290.092L246.414 304.223Z" fill="#FDE773" fill-opacity="0.7"/>
<path d="M323.754 240.69C321.33 223.72 338.891 219.788 345.011 206.986V191.406C350.924 191.702 357.28 192.53 360.473 186.321C374.516 158.856 396.956 137.806 415.433 113.741C418.922 113.889 423.504 112.588 425.692 114.332C442.721 128.021 451.797 147.769 463.032 165.745C467.137 172.027 469.958 179.059 471.333 186.437C472.708 193.815 472.61 201.391 471.044 208.731C459.218 223.099 440.77 217.6 424.953 221.296C399.35 227.504 373.955 234.688 348.234 240.512C340.488 242.257 332.032 240.808 323.902 240.838L323.754 240.69Z" fill="#FDE773" fill-opacity="0.7"/>
<path d="M415.463 113.741C396.985 137.806 374.546 158.856 360.503 186.321C357.31 192.53 350.865 191.702 345.041 191.406C343.947 179.314 350.954 170.238 357.487 161.842C372.269 142.359 382.321 119.595 400.947 103.009C402.691 101.442 401.302 96.3572 401.361 92.9277C411.767 95.825 416.616 102.832 415.463 113.741Z" fill="#FCEFA8" fill-opacity="0.7"/>
<path d="M274.381 114.125C277.574 102.743 280.797 91.3609 284.078 79.6534C288.424 85.7732 292.534 91.4791 296.584 97.392C308.41 114.421 303.502 124.384 281.27 128.079C278.996 128.243 276.714 128.243 274.44 128.079C274.411 123.438 274.411 118.767 274.381 114.125Z" fill="#FDCB44" fill-opacity="0.7"/>
<path d="M246.415 304.223L239.349 290.062H256.762C265.691 303.75 256.378 304.283 246.415 304.223Z" fill="#FCEFA8" fill-opacity="0.7"/>
<path d="M204.138 360.602L204.936 347.358L218.151 346.441V360.602H204.079H204.138Z" fill="#FCEFA8" fill-opacity="0.7"/>
<path d="M316.837 304.135H302.676C302.533 302.497 303.009 300.866 304.011 299.563C305.013 298.26 306.467 297.381 308.086 297.098C309.144 296.792 310.26 296.745 311.34 296.962C312.42 297.178 313.432 297.651 314.291 298.341C315.149 299.032 315.829 299.918 316.272 300.927C316.715 301.935 316.909 303.035 316.837 304.135Z" fill="#FCEFA8" fill-opacity="0.7"/>
<path d="M323.932 240.838C322.986 242.789 322.543 245.509 320.976 246.425C320.584 246.817 320.052 247.038 319.498 247.038C318.943 247.038 318.412 246.817 318.02 246.425C317.627 246.033 317.407 245.502 317.407 244.947C317.407 244.393 317.627 243.861 318.02 243.469C318.966 241.932 321.715 241.488 323.637 240.513L323.932 240.838Z" fill="#FDE773" fill-opacity="0.7"/>
<path d="M218.209 360.602V346.441H232.341C232.046 350.521 231.779 354.63 231.425 359.656L218.209 360.602Z" fill="#FBF2DD" fill-opacity="0.7"/>
</svg>
