<svg width="136" height="113" viewBox="0 0 136 113" fill="none" xmlns="http://www.w3.org/2000/svg">
<g clip-path="url(#clip0_317_148)">
<path d="M81.714 78.7003C79.3587 86.1382 75.2251 88.7577 68.8188 86.8785L57.4071 78.9914C58.1805 82.2057 60.1427 82.7878 61.4678 83.8824C63.3697 85.4896 66.2384 86.5621 64.4601 89.9567C63.6402 90.9122 62.8202 91.8697 62.0003 92.8294L59.7211 94.31C59.5029 94.3341 59.2934 94.4089 59.1093 94.5283C51.7108 96.7113 46.0842 93.3229 40.9806 88.628C36.0514 84.0912 30.9732 79.6684 27.1915 74.0338C31.1793 83.2434 39.177 88.9823 45.9986 95.2781C46.5787 98.4861 43.4215 98.6063 42.5403 100.419C33.4902 102.893 26.0757 99.5618 20.6076 92.8262C10.6256 80.5163 4.44112 66.1625 0.637228 50.8565C-0.817759 44.9974 0.288544 39.2204 3.59476 34.0098L8.8473 29.9603C10.1501 29.685 11.9602 30.631 12.4673 28.4512L17.013 28.3911C18.0971 30.1438 15.7925 31.0834 15.9954 32.6241L15.3614 34.361C12.1915 42.6404 16.5026 49.4613 19.6377 56.5354C17.7769 49.2588 15.4122 42.0393 16.8069 34.3483C16.9263 34.1455 16.9927 33.9159 17.0003 33.6808C19.1748 32.4912 20.0529 30.2387 21.3716 28.3499C21.5349 28.2643 21.6603 28.1211 21.7235 27.9481C24.4686 26.6257 27.3184 25.8095 30.409 26.2144L34.8088 28.8625C35.5982 32.8329 33.7279 36.7306 37.6047 41.7008C37.6237 35.4461 36.0483 30.536 39.1199 26.4043C42.7621 21.4973 47.2602 21.9308 52.1165 23.9777L55.9394 29.5047L57.5054 27.9228C56.9855 25.4931 54.7476 24.5756 52.9629 23.2595C49.6377 19.1467 51.08 14.61 56.1328 13.3192C60.3139 12.253 64.2731 12.9142 68.0326 14.958C66.5428 18.2166 62.8752 14.8821 61.0588 17.103C63.4046 20.2667 67.3257 16.4955 69.5066 19.4599L72.6195 17.7832L72.6797 17.7642C72.7273 18.6564 72.7748 19.5485 72.8446 20.9279L74.8574 19.346L84.4971 30.0299C84.4369 28.7644 84.643 27.926 84.3386 27.3882C80.0878 19.9219 74.1537 14.417 65.8042 11.7785C64.2699 11.2912 62.1112 11.4621 62.1303 8.93112C66.4223 2.77456 71.0694 1.43949 77.9608 4.37857C94.2826 11.3387 110.589 38.1859 109.311 55.9058C109.042 59.6105 108.208 63.0463 105.621 65.862C102.841 67.4945 100.093 69.2155 96.6537 68.9181L96.5967 68.8675C96.5354 64.6092 96.4741 60.3519 96.4128 56.0956C95.7302 51.9849 95.0466 47.8721 94.3619 43.7572L93.0432 44.0261C93.7681 47.3121 94.495 50.6003 95.2241 53.8905C95.2495 61.534 95.5031 69.2092 92.1017 76.375C89.699 79.4185 86.8651 80.6998 83.188 78.5611C82.8171 75.9384 83.86 72.9993 81.2512 70.1362C81.4318 73.4707 81.5745 76.0934 81.714 78.7003ZM82.7505 15.2965C81.3558 14.7713 80.2938 14.7555 80.2716 16.3469C80.2716 16.8088 81.0419 17.6566 81.5016 17.6851C83.0928 17.7958 83.1658 16.7297 82.7505 15.3092V15.2965ZM7.96923 58.9271C5.80418 58.209 4.87856 58.4874 5.06875 60.316C5.08777 60.5122 5.33186 60.6893 5.64568 61.0974L7.96923 58.9271Z" fill="#FF7E60"/>
<path d="M30.596 17.8971C30.1713 14.8916 28.9477 12.2024 27.2455 9.72205C25.3435 6.91585 25.6352 4.619 29.2679 4.01157C32.3775 3.49273 34.3651 1.03453 37.348 0C42.8224 3.00235 39.0914 10.0954 43.3137 13.5691C44.1537 16.3627 47.013 15.9704 49.0734 16.9828C48.7565 18.2989 48.4395 19.46 48.0876 20.8583C42.3025 20.1496 38.8727 23.7278 35.725 27.5717L31.9908 25.4014C31.7372 23.8828 32.5265 22.1807 31.1666 20.8646L31.2015 20.9279C31.005 19.9187 30.7989 18.9063 30.596 17.8971Z" fill="#ACD8AA"/>
<path d="M31.9971 25.4014L35.7312 27.5717C38.8726 23.7278 42.3024 20.1496 48.0939 20.8583C48.4521 19.4599 48.7469 18.2989 49.0797 16.9828C47.0193 15.9704 44.16 16.35 43.32 13.5691C44.3724 12.5884 43.7701 9.91818 46.4075 10.5541C45.9193 11.6108 45.428 12.6643 44.9367 13.7178C47.8371 14.9833 57.8445 11.3798 59.0269 8.88049L62.1397 8.93427C62.1207 11.4652 64.2794 11.2944 65.8137 11.7816C74.1632 14.4296 80.0973 19.925 84.3481 27.3913C84.6651 27.9291 84.4464 28.7549 84.5066 30.033L74.8669 19.3492L72.6892 17.7673L72.629 17.7863L68.0548 14.9611C64.2953 12.9174 60.3361 12.2562 56.155 13.3223C51.0831 14.6131 49.644 19.1436 52.9851 23.2627L52.1387 23.9745C47.2697 21.9276 42.7716 21.4942 39.1421 26.4011C36.0704 30.5329 37.6459 35.443 37.6269 41.6976C33.7501 36.7274 35.6203 32.8392 34.831 28.8593L30.4312 26.2113L30.5072 25.3792L31.9971 25.4014Z" fill="#F3D9AF"/>
<path d="M42.5274 100.432C43.4087 98.619 46.5659 98.4987 45.9858 95.2907C39.1642 88.995 31.1665 83.2687 27.1787 74.0465C30.9604 79.6811 36.0545 84.1039 40.9678 88.6407C46.0714 93.3356 51.698 96.7239 59.0965 94.541C58.9919 94.7624 58.8937 95.1737 58.7795 95.1737C52.8645 95.4046 47.3996 96.9991 42.5274 100.432Z" fill="#F3D9AF"/>
<path d="M59.0204 8.88685C57.8381 11.3862 47.8306 14.9991 44.9302 13.7241C45.4215 12.6643 45.9129 11.6108 46.401 10.5604V10.5415L47.2284 10.0321L47.3583 9.88024C50.319 7.44735 53.7362 6.96648 57.4006 7.54544L59.0204 8.88685Z" fill="#FF7E60"/>
<path d="M21.4158 26.6099C17.4407 22.4971 31.1094 14.9485 31.0016 22.2061C30.7512 27.0813 24.088 22.5414 21.4158 26.6099Z" fill="#FF7E60"/>
<path d="M96.4158 56.1051C96.4792 60.3634 96.5405 64.6207 96.5996 68.877C93.7689 70.5885 95.4934 75.0177 92.1047 76.3971C95.506 69.2313 95.2524 61.5562 95.2271 53.9127L96.4158 56.1051Z" fill="#F3D9AF"/>
<path d="M64.4346 89.9694C66.213 86.5747 63.3569 85.5022 61.4423 83.8951C60.1172 82.7846 58.155 82.2183 57.3816 79.004L68.7933 86.8911C66.0703 86.0907 66.942 90.406 64.4346 89.9694Z" fill="#F3D9AF"/>
<path d="M96.6567 68.9276C100.096 69.225 102.844 67.5039 105.624 65.8715C103.424 69.2092 100.733 71.0884 96.6567 68.9276Z" fill="#F3D9AF"/>
<path d="M81.7138 78.7003C81.5743 76.0807 81.4317 73.458 81.2542 70.1583C83.863 73.0056 82.8201 75.9605 83.191 78.5832L81.7138 78.7003Z" fill="#F3D9AF"/>
<path d="M16.7941 34.3515C15.3994 42.0425 17.7641 49.2462 19.6249 56.5386C16.4898 49.4645 12.1851 42.6436 15.3487 34.3642L16.7941 34.3515Z" fill="#F3D9AF"/>
<path d="M68.0485 14.9675L72.6227 17.7926L69.5098 19.4694C67.3289 16.505 63.4077 20.2888 61.062 17.1124C62.891 14.8915 66.5586 18.2261 68.0485 14.9675Z" fill="#FF7E60"/>
<path d="M96.416 56.1051L95.2273 53.9126C94.5003 50.6245 93.7734 47.3363 93.0464 44.0482L94.3651 43.7793C95.0498 47.89 95.7334 51.9986 96.416 56.1051Z" fill="#F3D9AF"/>
<path d="M17.0034 28.3974C18.4584 28.8878 19.9134 29.0997 21.3589 28.3563C20.0402 30.2545 19.1621 32.4975 16.9875 33.6871L15.9859 32.6304C15.783 31.0865 18.0875 30.1469 17.0034 28.3974Z" fill="#F3D9AF"/>
<path d="M21.416 26.6099C23.9741 23.9619 27.2455 24.5156 30.4154 24.6073L30.4724 25.3856L30.3964 26.2177C27.3057 25.8127 24.4559 26.6289 21.7108 27.9514L21.416 26.6099Z" fill="#F3D9AF"/>
<path d="M52.1165 23.9682L52.9628 23.2564C54.7475 24.5725 56.9854 25.49 57.5053 27.9197L55.9393 29.5016L52.1165 23.9682Z" fill="#F3D9AF"/>
<path d="M82.7505 15.3091C83.1657 16.7297 83.0928 17.7958 81.5015 17.6978C81.0419 17.6693 80.2621 16.8214 80.2716 16.3595C80.2843 14.7681 81.3557 14.7935 82.7505 15.3091Z" fill="#FF7E60"/>
<path d="M7.96915 58.9271L5.64561 61.0974C5.32862 60.6893 5.0877 60.5122 5.06868 60.316C4.87849 58.4874 5.79143 58.209 7.96915 58.9271Z" fill="#FF7E60"/>
<path d="M72.6765 17.7737L74.8542 19.3555L72.8414 20.9374C72.778 19.558 72.7304 18.6658 72.6765 17.7737Z" fill="#FF7E60"/>
<path d="M8.83765 29.9793C9.833 28.9732 10.99 28.3499 12.4577 28.4702C11.9505 30.6341 10.1405 29.6882 8.83765 29.9793Z" fill="#FF7E60"/>
<path d="M15.9858 32.6273L16.9875 33.6839C16.9799 33.9191 16.9134 34.1486 16.7941 34.3515H15.3486L15.9858 32.6273Z" fill="#F3F7F1"/>
<path d="M30.4723 25.3856L30.4153 24.6073L30.4565 24.5409C30.6403 23.7626 30.8221 22.9843 31.0017 22.2061L31.1729 20.8646C32.5327 22.1807 31.7435 23.8828 31.9971 25.4014L30.4723 25.3856Z" fill="#F8EDDA"/>
<path d="M31.0018 22.2061C30.8221 22.9843 30.6404 23.7626 30.4565 24.5409C30.6404 23.7626 30.8221 22.9843 31.0018 22.2061Z" fill="#ACD8AA"/>
</g>
<g clip-path="url(#clip1_317_148)">
<path d="M134.491 40.2832C134.491 44.3717 134.702 48.4775 134.426 52.5531C134.188 56.1301 135.885 59.3932 135.561 62.983C135.259 66.3665 135.876 69.8617 135.419 73.1936C134.357 80.9322 133.627 88.7353 129.604 95.872C124.692 104.574 117.121 109.2 107.901 111.779C105.311 112.51 102.691 112.686 100.015 112.897C92.077 113.525 85.8786 110.012 80.1593 105.24C78.0701 103.494 76.2486 101.427 74.332 99.479C71.8932 96.9984 70.9652 93.8255 70.7494 90.5237C70.5206 86.9597 70.3436 83.3226 70.7925 79.7972C71.5177 74.1179 73.6803 68.817 76.3306 63.744C79.555 57.5746 84.139 52.3339 88.3001 46.8266C90.3445 44.0408 92.0242 41.0069 93.2986 37.7982C95.3489 32.8627 97.0582 27.7854 98.9575 22.7854C100.479 18.9556 102.671 15.4256 105.432 12.3598C108.292 9.10809 112.228 6.98616 116.526 6.37962C119.905 5.87231 122.97 7.45011 125.724 9.36326C126.557 9.93935 127.153 10.8422 127.951 11.4742C132.988 15.4466 134.236 21.0227 134.46 26.9513C134.624 31.3795 134.491 35.8163 134.491 40.2488V40.2832ZM127.286 42.6521C127.286 37.5403 127.222 32.4242 127.317 27.3125C127.368 24.5825 126.453 22.1878 125.236 19.8576C122.413 14.5137 116.996 12.6823 112.986 15.9883C109.606 18.6925 107.062 22.2933 105.648 26.3752C103.947 31.3924 101.845 36.2634 99.9287 41.2247C97.0539 48.6537 92.2022 54.8489 87.2469 60.9237C80.8629 68.7569 77.8888 77.639 77.8672 87.6691C77.8672 91.0525 79.2658 93.7396 81.2859 96.1299C84.2038 99.5693 87.9548 101.934 92.0123 103.985C95.3097 105.645 99.0678 106.167 102.696 105.468C104.988 105.038 107.47 104.608 109.71 103.611C115.058 101.237 120.233 98.5031 122.819 92.9786C123.902 90.6656 124.865 88.2495 125.918 85.9107C127.753 81.8092 126.509 77.1016 128.296 72.9357C128.603 72.2177 128.327 71.2504 128.322 70.3991C128.317 66.0658 128.028 61.7374 127.459 57.4413C126.768 52.6133 127.286 47.5918 127.286 42.6606V42.6521Z" fill="#0B8790"/>
<path d="M127.286 42.6606C127.286 47.6047 126.777 52.6133 127.437 57.4671C128.007 61.7632 128.295 66.0916 128.301 70.4249C128.301 71.2848 128.581 72.2435 128.275 72.9615C126.488 77.1274 127.731 81.835 125.896 85.9365C124.843 88.2882 123.881 90.6914 122.797 93.0044C120.207 98.5289 115.028 101.263 109.688 103.636C107.448 104.629 104.966 105.077 102.674 105.494C99.0462 106.193 95.2881 105.671 91.9906 104.01C87.9202 101.96 84.1865 99.6123 81.2686 96.1729C79.2484 93.7825 77.8413 91.0955 77.8499 87.7121C77.8715 77.682 80.8455 68.7955 87.2296 60.9667C92.1849 54.8919 97.0366 48.6967 99.9114 41.2677C101.828 36.3193 103.93 31.4354 105.631 26.4182C107.045 22.3362 109.589 18.7355 112.969 16.0313C116.979 12.708 122.396 14.5395 125.219 19.9006C126.449 22.2308 127.351 24.6297 127.299 27.3554C127.204 32.4672 127.269 37.5833 127.269 42.695L127.286 42.6606ZM106.71 88.2581H108.941C119.241 80.5195 121.804 69.9907 121.028 58.069C119.206 55.5368 116.396 54.0578 113.879 52.3854H105.505C101.392 54.9392 98.7028 58.7053 96.6352 62.983C95.7287 64.866 95.0726 66.9125 93.9028 68.615C92.6079 70.5238 94.382 73.1033 92.2885 74.694C92.3878 78.9675 91.9 83.2581 95.2539 86.9253C96.1949 87.9571 98.0898 88.4429 97.9733 90.0465H106.71V88.2581Z" fill="#90DBD0"/>
<path d="M106.71 88.258V90.0465H97.9734C98.0899 88.4429 96.195 87.9571 95.254 86.9253C91.9001 83.2752 92.3879 78.976 92.2886 74.6768C94.3821 73.0861 92.595 70.5066 93.9029 68.5977C95.0727 66.8781 95.7288 64.8488 96.6353 62.9658C98.7028 58.6881 101.383 54.922 105.506 52.3682H113.867C116.383 54.0406 119.193 55.5196 121.015 58.0518C121.805 69.9735 119.241 80.5238 108.929 88.2408H106.697C106.524 87.2821 107.072 86.2202 106.265 85.3561C105.458 85.1239 104.664 84.9563 103.904 85.4636C103.52 86.4137 103.201 87.3509 104.228 88.2408L106.71 88.258ZM100.965 62.9228C101.776 61.4009 103.555 60.9968 103.615 59.2126C100.995 58.6623 100.637 59.118 100.965 62.9228V62.9228ZM104.418 65.627C104.517 64.8016 105.018 63.9331 104.383 63.0475C103.909 62.3725 103.3 62.5659 102.501 63.271C103.054 64.0105 101.642 65.8377 104.431 65.6485L104.418 65.627Z" fill="#E39E93"/>
<path d="M106.71 88.2581H104.254C103.226 87.3681 103.546 86.4309 103.93 85.4808C104.69 84.9735 105.484 85.1411 106.291 85.3733C107.085 86.2331 106.537 87.2994 106.723 88.2581H106.71Z" fill="#FC755D"/>
<path d="M100.965 62.9228C100.637 59.118 100.995 58.6623 103.615 59.2126C103.563 60.9968 101.776 61.4009 100.965 62.9228Z" fill="#FB7259"/>
<path d="M104.431 65.6485C101.642 65.8592 103.054 64.032 102.514 63.2796C103.313 62.5746 103.921 62.3811 104.396 63.0561C105.031 63.9288 104.53 64.7887 104.431 65.6485Z" fill="#FC755D"/>
</g>
<defs>
<clipPath id="clip0_317_148">
<rect width="109.384" height="101.248" fill="white"/>
</clipPath>
<clipPath id="clip1_317_148">
<rect width="65.088" height="106.672" fill="white" transform="translate(70.512 6.328)"/>
</clipPath>
</defs>
</svg>
