<svg width="175" height="107" viewBox="0 0 175 107" fill="none" xmlns="http://www.w3.org/2000/svg">
<g clip-path="url(#clip0_358_147)">
<path d="M88.004 87.9614C86.2169 93.9119 83.0804 96.0075 78.2192 94.5041L69.5601 88.1943C70.147 90.7658 71.6359 91.2315 72.6413 92.1072C74.0845 93.393 76.2613 94.251 74.9119 96.9668C74.2898 97.7311 73.6676 98.4972 73.0454 99.265L71.316 100.449C71.1504 100.469 70.9914 100.529 70.8518 100.624C65.2378 102.371 60.9684 99.6598 57.0958 95.9038C53.3556 92.2743 49.5023 88.7359 46.6327 84.2282C49.6586 91.596 55.7272 96.1872 60.9034 101.224C61.3436 103.79 58.9479 103.887 58.2792 105.337C51.4121 107.316 45.7861 104.651 41.6369 99.2624C34.0626 89.4143 29.3698 77.931 26.4834 65.686C25.3794 60.9986 26.2189 56.3769 28.7276 52.2084L32.7132 48.9687C33.7018 48.7485 35.0752 49.5053 35.4601 47.7614L38.9093 47.7133C39.7319 49.1155 37.9832 49.8672 38.1372 51.0998L37.6561 52.4893C35.2508 59.113 38.522 64.5698 40.9009 70.2292C39.489 64.4078 37.6946 58.6321 38.7529 52.4792C38.8435 52.3169 38.8939 52.1332 38.8997 51.9451C40.5497 50.9935 41.216 49.1914 42.2166 47.6804C42.3405 47.6119 42.4356 47.4973 42.4836 47.3589C44.5666 46.301 46.7289 45.648 49.0741 45.9719L52.4127 48.0904C53.0116 51.2668 51.5925 54.385 54.5342 58.3613C54.5486 53.3575 53.3532 49.4293 55.6839 46.1238C58.4476 42.1982 61.8607 42.545 65.5457 44.1825L68.4465 48.6042L69.6347 47.3387C69.2402 45.3949 67.5421 44.6609 66.1879 43.608C63.6647 40.3177 64.7591 36.6882 68.5932 35.6555C71.7658 34.8026 74.77 35.3316 77.6227 36.9666C76.4922 39.5736 73.7093 36.9059 72.331 38.6826C74.111 41.2137 77.0863 38.1967 78.7412 40.5682L81.1032 39.2268L81.1489 39.2116C81.185 39.9254 81.2211 40.6391 81.274 41.7426L82.8014 40.4771L90.1159 49.0244C90.0702 48.012 90.2266 47.3412 89.9956 46.911C86.7701 40.9378 82.2674 36.5338 75.9318 34.4229C74.7676 34.0332 73.1296 34.1698 73.144 32.145C76.4008 27.2197 79.927 26.1516 85.1562 28.5029C97.5411 34.0711 109.914 55.5493 108.945 69.7255C108.74 72.6893 108.108 75.438 106.145 77.6906C104.035 78.9966 101.95 80.3735 99.3403 80.1355L99.297 80.0951C99.2504 76.6883 99.204 73.2824 99.1575 69.8774C98.6395 66.5887 98.1208 63.2984 97.6012 60.0064L96.6006 60.2216C97.1506 62.8504 97.7022 65.481 98.2555 68.1132C98.2747 74.2282 98.4671 80.3684 95.8862 86.1012C94.063 88.536 91.9127 89.5611 89.1225 87.8501C88.8411 85.7519 89.6324 83.4006 87.6529 81.11C87.79 83.7777 87.8982 85.8759 88.004 87.9614ZM88.7906 37.2374C87.7322 36.8173 86.9264 36.8046 86.9096 38.0777C86.9096 38.4473 87.4941 39.1256 87.8429 39.1483C89.0503 39.2369 89.1057 38.384 88.7906 37.2475V37.2374ZM32.0469 72.1426C30.4041 71.5681 29.7017 71.7908 29.8461 73.2537C29.8605 73.4107 30.0457 73.5524 30.2838 73.8789L32.0469 72.1426Z" fill="#FF7E60"/>
<path d="M49.216 39.318C48.8937 36.9135 47.9652 34.7621 46.6736 32.7778C45.2304 30.5328 45.4517 28.6953 48.2082 28.2093C50.5678 27.7942 52.0759 25.8276 54.3393 25C58.4933 27.4019 55.6622 33.0765 58.8661 35.8555C59.5035 38.0904 61.6731 37.7766 63.2365 38.5865C62.996 39.6394 62.7555 40.5683 62.4885 41.687C58.0988 41.12 55.4963 43.9826 53.1078 47.0578L50.2743 45.3215C50.0819 44.1066 50.6808 42.7449 49.6489 41.692L49.6754 41.7427C49.5263 40.9353 49.3699 40.1254 49.216 39.318Z" fill="#ACD8AA"/>
<path d="M50.2793 45.3215L53.1127 47.0578C55.4964 43.9826 58.0989 41.12 62.4934 41.687C62.7652 40.5683 62.989 39.6394 63.2415 38.5865C61.6781 37.7766 59.5085 38.0803 58.8711 35.8555C59.6696 35.0709 59.2126 32.9347 61.2138 33.4435C60.8434 34.2888 60.4706 35.1316 60.0978 35.9745C62.2986 36.9869 69.8922 34.1041 70.7893 32.1046L73.1514 32.1476C73.1369 34.1724 74.775 34.0357 75.9391 34.4255C82.2747 36.5439 86.7774 40.9403 90.003 46.9135C90.2435 47.3438 90.0775 48.0044 90.1232 49.0269L82.8087 40.4797L81.1563 39.2142L81.1105 39.2293L77.6397 36.9692C74.787 35.3341 71.7828 34.8051 68.6102 35.6581C64.7617 36.6907 63.6696 40.3152 66.2048 43.6105L65.5626 44.18C61.8681 42.5425 58.4549 42.1957 55.7008 46.1213C53.3701 49.4268 54.5656 53.3549 54.5511 58.3588C51.6094 54.3825 53.0286 51.2719 52.4296 48.0879L49.0911 45.9694L49.1488 45.3038L50.2793 45.3215Z" fill="#F3D9AF"/>
<path d="M58.2696 105.347C58.9382 103.897 61.3339 103.801 60.8938 101.234C55.7175 96.1974 49.6489 91.6162 46.623 84.2383C49.4926 88.7461 53.3579 92.2844 57.0861 95.9139C60.9587 99.6699 65.2281 102.381 70.8421 100.634C70.7627 100.811 70.6882 101.14 70.6016 101.14C66.1133 101.325 61.9665 102.601 58.2696 105.347Z" fill="#F3D9AF"/>
<path d="M70.7844 32.1096C69.8872 34.1091 62.2936 36.9995 60.0928 35.9795C60.4656 35.1316 60.8384 34.2888 61.2088 33.4485V33.4333L61.8366 33.0258L61.9352 32.9043C64.1818 30.958 66.7747 30.5733 69.5553 31.0365L70.7844 32.1096Z" fill="#FF7E60"/>
<path d="M42.2502 46.2884C39.2339 42.998 49.6056 36.9591 49.5238 42.7652C49.3338 46.6655 44.2779 43.0335 42.2502 46.2884Z" fill="#FF7E60"/>
<path d="M99.1599 69.885C99.208 73.2917 99.2545 76.6976 99.2994 80.1027C97.1514 81.4719 98.4599 85.0154 95.8887 86.1189C98.4696 80.3861 98.2771 74.2459 98.2579 68.131L99.1599 69.885Z" fill="#F3D9AF"/>
<path d="M74.8928 96.977C76.2422 94.2612 74.075 93.4032 72.6222 92.1174C71.6168 91.229 70.1279 90.776 69.541 88.2045L78.2001 94.5143C76.134 93.8739 76.7954 97.3262 74.8928 96.977Z" fill="#F3D9AF"/>
<path d="M99.3428 80.1431C101.953 80.3811 104.038 79.0042 106.147 77.6982C104.478 80.3684 102.436 81.8718 99.3428 80.1431Z" fill="#F3D9AF"/>
<path d="M88.004 87.9615C87.8982 85.8658 87.79 83.7676 87.6553 81.1277C89.6348 83.4057 88.8435 85.7696 89.1249 87.8678L88.004 87.9615Z" fill="#F3D9AF"/>
<path d="M38.7433 52.4818C37.685 58.6346 39.4793 64.3978 40.8913 70.2317C38.5124 64.5724 35.246 59.1155 37.6465 52.4919L38.7433 52.4818Z" fill="#F3D9AF"/>
<path d="M77.6348 36.9742L81.1057 39.2344L78.7437 40.5759C77.0888 38.2043 74.1134 41.2314 72.3335 38.6902C73.7214 36.9135 76.5043 39.5812 77.6348 36.9742Z" fill="#FF7E60"/>
<path d="M99.1599 69.885L98.2579 68.131C97.7063 65.5004 97.1546 62.8699 96.603 60.2393L97.6036 60.0242C98.1232 63.3128 98.6419 66.5997 99.1599 69.885Z" fill="#F3D9AF"/>
<path d="M38.9021 47.7184C40.0062 48.1107 41.1102 48.2803 42.207 47.6855C41.2064 49.2041 40.5401 50.9986 38.8901 51.9502L38.13 51.1049C37.9761 49.8698 39.7247 49.118 38.9021 47.7184Z" fill="#F3D9AF"/>
<path d="M42.2502 46.2883C44.1913 44.1699 46.6736 44.6128 49.0789 44.6862L49.1222 45.3088L49.0645 45.9745C46.7193 45.6505 44.5569 46.3035 42.4739 47.3615L42.2502 46.2883Z" fill="#F3D9AF"/>
<path d="M65.5457 44.1749L66.1879 43.6055C67.5421 44.6584 69.2402 45.3924 69.6347 47.3362L68.4464 48.6017L65.5457 44.1749Z" fill="#F3D9AF"/>
<path d="M88.7907 37.2476C89.1058 38.384 89.0505 39.237 87.843 39.1585C87.4942 39.1357 86.9025 38.4574 86.9097 38.0879C86.9194 36.8148 87.7324 36.835 88.7907 37.2476Z" fill="#FF7E60"/>
<path d="M32.0468 72.1426L30.2837 73.8789C30.0432 73.5524 29.8604 73.4107 29.846 73.2537C29.7017 71.7908 30.3944 71.5681 32.0468 72.1426Z" fill="#FF7E60"/>
<path d="M81.1465 39.2192L82.7989 40.4847L81.2716 41.7503C81.2235 40.6467 81.1874 39.933 81.1465 39.2192Z" fill="#FF7E60"/>
<path d="M32.7061 48.9839C33.4613 48.179 34.3393 47.6804 35.4529 47.7766C35.0681 49.5078 33.6946 48.751 32.7061 48.9839Z" fill="#FF7E60"/>
<path d="M38.13 51.1024L38.89 51.9477C38.8843 52.1358 38.8338 52.3194 38.7433 52.4817H37.6465L38.13 51.1024Z" fill="#F3F7F1"/>
<path d="M49.1221 45.3088L49.0789 44.6862L49.1101 44.6331C49.2496 44.0105 49.3875 43.3878 49.5238 42.7652L49.6537 41.692C50.6856 42.7449 50.0867 44.1066 50.2791 45.3215L49.1221 45.3088Z" fill="#F8EDDA"/>
<path d="M49.5238 42.7652C49.3875 43.3878 49.2496 44.0105 49.1101 44.6331C49.2496 44.0105 49.3875 43.3878 49.5238 42.7652Z" fill="#ACD8AA"/>
</g>
<path d="M104.869 59.5447C99.1063 57.1836 96.0896 53.3931 97.7795 47.2779C84.0518 43.5969 83.5773 31.2936 95.5473 23.073C94.39 18.5974 91.843 13.5692 97.1694 9.90194C102.351 6.31232 107.721 8.2213 113.251 10.5687C114.601 5.38979 116.369 0.347872 123.158 0.0236184C131.065 -0.355439 135.907 3.85529 139.297 10.7012C147.195 6.43562 154.308 8.02492 160.269 14.0076C165.595 19.3373 164.946 25.4524 161.721 31.4717C178.156 42.679 179.129 49.5568 165.784 60.2435C168.089 64.4268 168.936 68.6832 164.68 72.3779C159.353 76.9996 153.828 75.52 148.313 72.6656C146.938 68.2265 141.98 69.4231 139.055 67.4227L133.389 62.8878C132.997 58.1518 129.114 60.1476 126.504 59.7229L120.78 56.9827C117.609 53.6762 116.02 57.9646 113.609 58.3117L110.103 59.4717L104.869 59.5447ZM153.586 38.7057C155.785 34.0885 156.656 29.6312 152.134 25.9183C149.059 23.3882 145.655 20.9403 141.35 23C138.382 24.4203 134.9 25.9228 135.128 30.4989C140.183 29.7454 142.541 21.7806 149.141 27.0098C155 31.6544 151.001 35.9108 149.194 40.4549C153.485 42.0076 158.937 41.3683 159.746 46.8486C160.501 51.9225 155.523 52.6349 151.272 54.9276C157.223 56.2017 160.356 54.2471 161.707 50.2145C163.91 43.5741 159.261 40.7472 153.586 38.7057ZM127.574 24.8359C130.963 23.1461 129.898 20.7941 128.818 18.8212C127.322 16.081 125.39 13.2724 121.686 13.2724C117.023 13.2724 115.875 17.2319 114.02 20.4836C110.519 19.1135 106.927 17.6338 104.094 21.123C101.566 24.2376 101.552 27.8592 102.98 31.3895C104.409 34.9197 106.568 36.1345 110.791 36.0797C106.723 31.7594 101.276 27.6765 107.474 22.1368C111.556 21.5522 113.004 24.5847 115.706 25.731C116.926 22.3332 116.911 18.4239 120.737 16.419C126.867 16.2409 125.739 21.5979 127.574 24.8359ZM140.343 58.0605C143.945 54.4754 144.89 50.2967 143.035 45.8713C140.798 40.5371 135.689 41.076 130.93 41.4642C127.85 35.7966 123.463 32.3668 117.095 35.9382C112.626 38.4408 111.943 42.9302 113.861 47.4971C115.231 43.0124 114.897 37.3311 121.812 37.2945C128.644 37.2626 127.191 43.2407 128.16 47.3921C131.811 45.8028 134.455 41.455 138.6 44.556C143.655 48.3374 140.934 53.2972 140.343 58.0605V58.0605Z" fill="#576849"/>
<path d="M126.504 59.7229C129.114 60.1796 132.997 58.1518 133.389 62.8878C133.68 65.7147 132.247 68.7654 134.479 71.4188C137.191 71.1037 138.561 69.6925 139.065 67.409C141.97 69.4094 146.948 68.2128 148.323 72.6519C137.912 82.7494 129.37 94.0801 123.458 107C116.732 106.543 111.406 104.26 104.869 100.885V59.5447L110.103 59.458C110.665 61.367 110.398 63.7189 113.217 64.6415C114.03 62.463 115.938 60.5312 113.609 58.298C116.03 57.9509 117.609 53.6625 120.78 56.969C121.047 61.6136 119.739 66.4865 123.158 73.0173L126.504 59.7229Z" fill="#AEC6AD"/>
<path d="M153.586 38.7058C159.261 40.7472 163.91 43.5742 161.697 50.1871C160.346 54.2198 157.213 56.1744 151.262 54.9002C155.514 52.6168 160.491 51.8952 159.736 46.8213C158.927 41.3409 153.475 41.9894 149.185 40.4276C150.991 35.8606 154.995 31.627 149.131 26.9824C142.531 21.7533 140.173 29.7226 135.118 30.4716C134.89 25.9046 138.372 24.393 141.34 22.9726C145.645 20.913 149.049 23.3608 152.124 25.8909C156.656 29.6313 155.785 34.0886 153.586 38.7058Z" fill="#A5BA9C"/>
<path d="M127.574 24.8359C125.739 21.598 126.867 16.2409 120.751 16.4008C116.926 18.4239 116.94 22.3378 115.72 25.7128C113.004 24.5665 111.556 21.534 107.488 22.1186C101.276 27.6583 106.723 31.7412 110.791 36.0798C106.568 36.1528 104.399 34.8878 102.985 31.4078C101.571 27.9278 101.566 24.2377 104.094 21.123C106.927 17.6338 110.52 19.1181 114.02 20.4836C115.851 17.2319 117.023 13.277 121.686 13.2724C125.39 13.2724 127.322 16.0902 128.818 18.8213C129.898 20.7942 130.968 23.1462 127.574 24.8359Z" fill="#A5BA9C"/>
<path d="M140.343 58.0605C140.934 53.2972 143.631 48.3375 138.6 44.556C134.464 41.4459 131.821 45.8028 128.16 47.3921C127.191 43.2408 128.644 37.2626 121.812 37.2946C114.897 37.3311 115.231 43.0124 113.861 47.4972C111.924 42.9302 112.626 38.4409 117.086 35.9382C123.453 32.3668 127.84 35.7966 130.92 41.4642C135.69 41.076 140.798 40.5508 143.026 45.8713C144.89 50.3013 143.946 54.4755 140.343 58.0605Z" fill="#A5BA9C"/>
<path d="M126.504 59.7229L123.158 73.0173C119.739 66.4865 121.046 61.5999 120.78 56.969L126.504 59.7229Z" fill="#EBF1E5"/>
<path d="M139.064 67.409C138.58 69.6925 137.191 71.1037 134.479 71.4188C132.247 68.7654 133.68 65.7147 133.389 62.8878L139.064 67.409Z" fill="#EBF1E5"/>
<path d="M113.633 58.2979C115.962 60.5312 114.054 62.463 113.241 64.6414C110.423 63.728 110.689 61.3669 110.127 59.4579L113.633 58.2979Z" fill="#EBF1E5"/>
<defs>
<clipPath id="clip0_358_147">
<rect width="83" height="81" fill="white" transform="translate(26 25)"/>
</clipPath>
</defs>
</svg>
