<svg width="124" height="100" viewBox="0 0 124 100" fill="none" xmlns="http://www.w3.org/2000/svg">
<g clip-path="url(#clip0_317_114)">
<path d="M51.4029 78.8157C47.8079 78.8157 44.2043 78.5201 40.6779 78.8757C31.9305 79.7584 24.7748 75.8292 17.855 71.4843C11.7632 67.6537 6.79541 62.5718 4.01549 55.746C2.68559 52.4767 1.27847 49.2673 0.922399 45.608C0.737929 43.7313 -0.0986223 41.8502 0.0643979 39.8449C0.677868 31.6608 2.68988 23.9138 7.35741 17.0323C8.64441 15.1213 10.9867 14.0329 11.7032 11.6248C13.7409 11.3292 14.4188 9.12246 16.0532 8.41974C18.4857 7.37852 20.1802 5.34321 22.5354 4.13488C24.363 3.19649 26.7354 4.19056 28.0052 2.37378C29.5882 0.102804 32.1451 1.97529 34.0369 0.659836C35.7529 -0.527071 37.9795 0.291338 39.9743 0.23135C43.2004 0.128513 46.4351 0.231364 49.6697 0.192801C52.3638 0.162806 54.6032 1.47827 57.0485 2.2881C60.5406 3.41931 62.913 5.99021 65.4097 8.10693C68.8804 11.0378 71.4629 15.0527 74.2686 18.7205C77.7006 23.2111 78.3184 28.7942 79.7212 34.0303C80.1159 35.5043 80.3819 37.4582 79.2922 38.9065C78.5715 39.8749 78.6616 40.8733 78.816 41.7902C79.6397 46.5507 77.6148 50.8741 76.5981 55.2961C76.0103 57.837 73.8439 59.9752 72.677 62.4347C70.1245 67.7822 64.8349 70.4174 61.0297 74.5137C58.7988 74.5352 57.2073 76.5233 55.2081 76.6562C53.3119 76.7804 52.6899 78.233 51.4029 78.8157ZM49.1506 73.7082C51.6689 72.277 54.127 71.5657 55.813 69.6847C60.2103 69.5304 62.3724 66.0211 65.0022 63.3688C68.1154 60.2498 70.3588 56.3725 71.5101 52.121C73.2004 45.7195 74.1614 39.1593 73.6551 32.4578C73.3462 28.3101 71.553 24.6979 69.5668 21.2529C67.2973 17.3151 63.7066 14.3971 60.5878 11.1063C56.2592 6.55152 50.5663 5.38604 44.7877 4.25055C42.943 3.88634 41.7375 5.45031 40.0301 5.31748C37.0492 5.03151 34.0414 5.38056 31.2055 6.34157C27.8894 7.51133 23.9983 7.43849 21.6345 10.7336C21.2962 11.0875 20.8576 11.3298 20.3776 11.4277C17.5725 12.1884 15.1654 13.9931 13.6508 16.471C11.9734 19.0633 10.4805 21.7842 8.7731 24.2866C6.10901 28.1987 5.20811 32.2736 5.1266 36.747C5.06654 39.9777 5.1266 43.2128 5.1266 45.7452C7.29734 51.4997 10.133 56.1831 13.0717 60.8279C13.983 62.3394 15.2588 63.5989 16.7825 64.4914C19.7083 66.1711 22.5612 67.9193 25.6929 69.3119C32.2266 72.1828 38.8804 74.081 46.0747 73.7082C47.0828 73.6653 48.1082 73.7082 49.1292 73.7082H49.1506Z" fill="#FDE773"/>
<path d="M49.1292 73.7082C48.1082 73.7082 47.0829 73.6653 46.0618 73.7082C38.8675 74.081 32.2137 72.1828 25.68 69.3119C22.5483 67.9408 19.6955 66.1711 16.7697 64.4914C15.2459 63.5989 13.9702 62.3394 13.0588 60.8279C10.1202 56.1831 7.28449 51.4997 5.11375 45.7452C5.11375 43.2171 5.06656 39.982 5.11375 36.747C5.19526 32.2736 6.09616 28.1772 8.76025 24.2866C10.4763 21.7842 11.9606 19.0633 13.638 16.471C15.1428 13.9852 17.5438 12.1697 20.3476 11.3977C20.8276 11.2998 21.2662 11.0575 21.6045 10.7036C23.9683 7.40849 27.8594 7.48134 31.1755 6.31157C34.0114 5.35056 37.0191 5.00153 40.0001 5.28751C41.7161 5.42034 42.913 3.85634 44.7577 4.22055C50.5363 5.37318 56.2291 6.53866 60.5578 11.0763C63.6766 14.3585 67.2673 17.2851 69.5367 21.2229C71.523 24.6508 73.3162 28.2801 73.6251 32.4278C74.1271 39.1293 73.1661 45.7109 71.4801 52.091C70.3288 56.3425 68.0854 60.2198 64.9722 63.3388C62.3424 65.9911 60.1803 69.5004 55.783 69.6547C54.1056 71.5872 51.6474 72.277 49.1292 73.7082ZM60.3304 16.4967C60.4977 14.9156 59.7941 13.9258 58.2841 13.463C58.1511 13.1759 58.0867 12.7132 57.8765 12.6317C51.5616 10.1894 45.3583 7.1814 38.1425 8.59541C34.7362 11.2135 38.3999 13.8144 37.958 16.4496L39.8499 16.5524V18.5791C39.3823 19.736 38.3441 20.7216 38.9705 22.187C40.1888 25.0193 40.5706 28.0573 40.8366 31.0781C40.9782 32.6464 41.6303 33.4819 43.2648 34.0432C44.5518 32.4664 46.508 31.5023 47.2287 29.2442C47.4233 28.6766 47.8287 28.2053 48.3613 27.9278C48.8938 27.6503 49.5127 27.5877 50.0902 27.753V30.0111C49.2021 31.8665 46.6582 32.4364 47.0056 34.8959C46.7268 35.033 46.3278 35.0973 46.1905 35.3244C46.1337 35.3812 46.1017 35.4583 46.1017 35.5386C46.1017 35.619 46.1337 35.696 46.1905 35.7529C46.2474 35.8097 46.3246 35.8416 46.405 35.8416C46.4855 35.8416 46.5627 35.8097 46.6195 35.7529C46.8426 35.62 46.907 35.2258 47.0485 34.943C48.2283 34.943 49.4552 35.1487 50.5792 34.8959C54.3115 34.0389 57.9966 33.0106 61.7118 32.1107C64.0069 31.558 66.6882 32.3721 68.3999 30.2897C68.6272 29.2259 68.6415 28.1278 68.4419 27.0585C68.2424 25.9893 67.833 24.97 67.2373 24.0595C65.6071 21.4543 64.2901 18.592 61.819 16.6081C61.5016 16.3296 60.8409 16.5181 60.3304 16.4967V16.4967ZM29.6654 52.2753H31.7118C30.9739 56.3802 28.1725 59.1996 25.6457 61.9719V64.9456C28.5972 66.1583 31.3171 67.7779 34.2257 68.3307C37.2845 68.9091 40.5363 68.4592 43.6165 68.4592C44.762 65.3913 43.0288 62.7818 42.9773 60.048C42.9001 55.5918 41.0382 51.4569 40.8323 47.0221C40.7894 46.0965 39.8842 45.3081 38.4128 45.0639C37.8422 46.7778 36.1305 47.8576 35.5599 49.7772C35.3411 50.5099 34.3544 50.1071 33.7152 50.2057C33.7152 47.9347 33.4106 45.5609 35.7744 44.0826C37.2287 44.0826 38.5715 44.0141 37.2759 42.0302H34.7491C29.6011 43.1957 24.2815 43.6285 18.9576 46.2636H14.6676C12.0936 48.736 13.3377 51.2469 14.363 53.5908C15.0022 55.0476 16.508 56.1617 17.0142 57.6357C17.9966 60.4465 20.1845 61.0635 22.6813 61.5606C25.9117 59.1096 27.8808 55.7632 29.6654 52.2753V52.2753ZM46.0189 44.0912C46.0311 43.9296 46.0035 43.7676 45.9386 43.6191C45.8738 43.4706 45.7735 43.3401 45.6466 43.2392C45.5197 43.1382 45.3701 43.0698 45.2107 43.0398C45.0512 43.0098 44.8869 43.0192 44.7319 43.0671C44.497 43.1081 44.286 43.2356 44.1406 43.4244C43.9953 43.6132 43.9261 43.8496 43.9469 44.0869C44.0284 47.3863 43.6466 50.6856 44.9336 53.9164C46.375 57.5371 46.6925 61.4492 47.3059 65.2627C48.3956 66.5824 49.3694 66.9766 51.2098 66.0854C56.1248 63.7305 60.4536 60.3129 63.8825 56.0803L46.0189 44.0912ZM14.8563 24.7536C13.5693 28.0016 11.9306 30.8767 11.3729 33.9447C10.7851 37.1755 11.2399 40.5905 11.2399 43.607C16.1562 45.5609 19.7941 41.9959 24.1099 41.8931C27.233 41.8374 30.3947 40.6676 33.402 39.605C34.0927 39.3607 35.5127 39.4721 35.8902 37.6382C30.4376 33.829 24.8478 29.8055 19.0992 26.0177C17.9795 25.315 16.6539 24.218 14.8563 24.7536V24.7536ZM17.0013 21.5485C23.1532 26.2619 29.3566 29.2613 34.5089 33.9104C35.5385 33.6276 36.8169 34.4031 37.7907 33.3534C38.1296 29.1885 36.7354 25.3406 35.8259 21.39C34.9164 17.4394 35.3154 13.0645 33.209 9.28955C26.4222 11.929 21.094 15.8882 17.0013 21.5485V21.5485ZM66.2034 54.1392C66.3493 50.0343 69.408 47.909 69.4467 44.8111C69.4853 41.6403 71.3428 38.7223 70.4205 35.3844C69.9529 34.8873 69.5625 34.0989 68.6573 33.8718C65.1266 35.62 60.9095 34.8273 57.5033 36.9612C53.2991 36.4256 49.9486 39.1936 45.5942 39.4678C48.6316 42.8572 52.2137 44.4469 55.3111 46.6921C58.5801 49.0702 61.982 51.2683 66.2034 54.1392Z" fill="#FBF2DD"/>
<path d="M50.1158 27.753C49.5384 27.5877 48.9195 27.6503 48.387 27.9278C47.8544 28.2053 47.449 28.6766 47.2544 29.2442C46.5337 31.5023 44.5903 32.4664 43.2904 34.0432C41.6559 33.4819 41.0039 32.6464 40.8623 31.0781C40.5963 28.0573 40.2145 25.0193 38.9961 22.187C38.3698 20.7302 39.4251 19.7361 39.8756 18.5791C40.2055 18.6028 40.5367 18.6028 40.8666 18.5791C44.0927 18.0435 44.8134 16.5995 43.0888 14.1315C42.5011 13.2745 41.9048 12.4604 41.2741 11.5605C40.7979 13.2745 40.3303 14.907 39.867 16.5567L37.9751 16.4539C38.4041 13.8187 34.7533 11.2178 38.1596 8.59971C45.3668 7.1857 51.5702 10.1937 57.8936 12.636C58.1038 12.7175 58.1682 13.1802 58.3012 13.4673C58.3012 13.9643 58.4942 14.7014 58.2411 14.9285C55.5384 17.3323 54.0584 20.6316 51.9348 23.4553C51.0039 24.6894 49.97 26.0262 50.1287 27.7402L50.1158 27.753Z" fill="#FDE773"/>
<path d="M14.8563 24.7537C16.6666 24.2181 17.9794 25.315 19.0776 26.0391C24.8262 29.8269 30.4161 33.8504 35.8687 37.6597C35.4912 39.4936 34.0712 39.3736 33.3805 39.6264C30.3775 40.6891 27.2115 41.8588 24.0883 41.9145C19.7983 41.9959 16.1561 45.561 11.2183 43.6285C11.2183 40.6291 10.7636 37.2012 11.3513 33.9661C11.9348 30.8767 13.5735 28.0016 14.8563 24.7537Z" fill="#FDE773"/>
<path d="M17.0012 21.5485C21.0939 15.8882 26.4392 11.929 33.2089 9.28955C35.3152 13.0645 34.9249 17.3837 35.8258 21.39C36.7267 25.3963 38.1295 29.1885 37.7906 33.3534C36.8168 34.4031 35.5383 33.6276 34.5087 33.9104C29.3564 29.2784 23.1531 26.2619 17.0012 21.5485Z" fill="#FDE773"/>
<path d="M33.7409 50.2272C34.3801 50.1243 35.3668 50.5271 35.5856 49.7987C36.1562 47.8619 37.8679 46.7993 38.4384 45.0853C39.9099 45.3338 40.8151 46.118 40.858 47.0435C41.051 51.4783 42.9129 55.6132 43.003 60.0695C43.0545 62.8032 44.7876 65.4127 43.6422 68.4807C40.562 68.4807 37.3102 68.9092 34.2514 68.3521C31.3299 67.7994 28.61 66.1797 25.6714 64.9671V61.9934C28.1982 59.2211 30.9996 56.4016 31.7375 52.2967L33.6465 52.1553C33.698 51.4269 33.7366 50.8313 33.7795 50.24L33.7409 50.2272Z" fill="#FDE773"/>
<path d="M66.2035 54.1392C61.9821 51.2683 58.5801 49.0702 55.3026 46.6964C52.2052 44.4511 48.623 42.8615 45.5857 39.4721C49.94 39.1979 53.3077 36.4299 57.4947 36.9655C60.9267 34.8231 65.1267 35.6243 68.6488 33.8761C69.5411 34.0989 69.9358 34.8916 70.4119 35.3887C71.3343 38.7223 69.4767 41.6403 69.4381 44.8154C69.421 47.909 66.3493 50.0343 66.2035 54.1392Z" fill="#FDE773"/>
<path d="M46.0188 44.0912L63.8995 56.0889C60.4707 60.3215 56.1418 63.7392 51.2268 66.094C49.3864 66.9895 48.4126 66.5911 47.3229 65.2713C46.7095 61.4578 46.392 57.5585 44.9506 53.925C43.6636 50.6942 44.0454 47.3949 43.9639 44.0955L46.0188 44.0912Z" fill="#FDE773"/>
<path d="M35.8002 44.1041C33.4364 45.5823 33.741 47.9605 33.741 50.2271H31.6903L29.7727 50.36L29.6569 52.2796C27.8722 55.7675 25.9031 59.1353 22.6856 61.5863C20.1888 61.0764 18.0009 60.4722 17.0185 57.6614C16.5037 56.1874 15.0065 55.0905 14.3673 53.6165C13.342 51.2726 12.1022 48.7617 14.6719 46.2894H18.9619C24.2858 43.6542 29.6183 43.2214 34.7534 42.0559L35.8002 44.1041Z" fill="#FDE773"/>
<path d="M47.0228 34.8959C46.6711 32.4364 49.2193 31.8665 50.1074 30.0112V27.7531C50.9654 27.7959 51.8877 27.9159 52.351 27.0161C54.3888 23.0354 57.6449 19.9846 60.3262 16.4967C60.8324 16.5182 61.4973 16.3296 61.8148 16.5824C64.2858 18.5663 65.6029 21.4286 67.2331 24.0338C67.8287 24.9443 68.2382 25.9636 68.4377 27.0329C68.6372 28.1021 68.6229 29.2003 68.3957 30.264C66.6797 32.3464 64.0027 31.5495 61.7075 32.0851C57.9924 32.9849 54.3073 34.0261 50.575 34.8702C49.451 35.123 48.2241 34.9131 47.0443 34.9173L47.0228 34.8959Z" fill="#FDE773"/>
<path d="M60.3302 16.4967C57.649 19.9846 54.3929 23.0354 52.3551 27.016C51.8918 27.9158 50.9566 27.7959 50.1115 27.753C49.9527 26.0005 50.9694 24.6851 51.9175 23.4682C54.0625 20.6445 55.5211 17.3451 58.2238 14.9413C58.477 14.7142 58.2753 13.9772 58.2839 13.4802C59.794 13.9001 60.4975 14.9156 60.3302 16.4967Z" fill="#FCEFA8"/>
<path d="M39.8584 16.5524C40.3217 14.9027 40.7893 13.2531 41.2655 11.5563C41.8962 12.4432 42.4925 13.2702 43.0802 14.1272C44.7962 16.5953 44.0841 18.0392 40.858 18.5749C40.5281 18.5985 40.1969 18.5985 39.867 18.5749C39.8627 17.9021 39.8627 17.2251 39.8584 16.5524Z" fill="#FDCB44"/>
<path d="M35.8 44.1041L34.7747 42.0516H37.3015C38.5971 44.0355 37.2457 44.1126 35.8 44.1041Z" fill="#FCEFA8"/>
<path d="M29.6653 52.2753L29.7812 50.3557L31.6988 50.2229V52.2753H29.6567H29.6653Z" fill="#FCEFA8"/>
<path d="M46.019 44.0912H43.9641C43.9433 43.8539 44.0125 43.6175 44.1578 43.4287C44.3032 43.2398 44.5142 43.1124 44.7491 43.0714C44.9027 43.027 45.0646 43.0202 45.2213 43.0516C45.3781 43.083 45.5249 43.1516 45.6495 43.2516C45.774 43.3516 45.8726 43.4802 45.937 43.6263C46.0013 43.7724 46.0294 43.9319 46.019 44.0912V44.0912Z" fill="#FCEFA8"/>
<path d="M47.0484 34.9174C46.9111 35.2002 46.8468 35.5944 46.6194 35.7272C46.5625 35.784 46.4854 35.8159 46.4049 35.8159C46.3245 35.8159 46.2473 35.784 46.1904 35.7272C46.1335 35.6704 46.1016 35.5933 46.1016 35.513C46.1016 35.4326 46.1335 35.3555 46.1904 35.2987C46.3277 35.0759 46.7267 35.0116 47.0055 34.8702L47.0484 34.9174Z" fill="#FDE773"/>
<path d="M31.7075 52.2753V50.2229H33.7581C33.7152 50.8142 33.6766 51.4098 33.6252 52.1382L31.7075 52.2753Z" fill="#FBF2DD"/>
</g>
<g clip-path="url(#clip1_317_114)">
<path d="M90.2953 41.1358C93.011 40.6265 95.6947 39.9555 98.5145 40.2263C104.286 40.772 110.001 42.0695 114.753 45.2546C119.265 48.2781 122.412 52.8254 123.004 58.6863C123.204 60.6629 124.24 62.4737 123.948 64.5958C122.876 72.3727 121.148 79.7898 116.197 86.2368C112.921 90.5012 109.397 94.3937 104.998 97.3686C102.598 98.9854 99.8944 100.004 96.9107 99.9717C94.2149 99.9434 91.5111 100.069 88.8234 99.9474C80.9841 99.5998 73.8168 97.5222 68.0934 91.2732C66.6255 91.5602 65.0617 91.5521 63.3539 91.9644C59.7014 92.7884 55.8934 92.5602 52.3629 91.3056C49.0312 90.1697 46.4954 88.0356 44.1757 85.4163C41.2559 82.118 40.3 78.2053 40.0841 74.0056C39.9521 71.4511 40.0481 68.8803 40.0601 66.3258C40.0881 59.9191 41.8319 54.0541 44.7316 48.3185C48.2433 41.3541 54.4347 37.9466 60.7301 34.4543C63.3858 34.7615 65.7376 33.0436 68.4853 33.4276C70.9771 33.7752 73.5529 33.5004 76.4846 33.5004C79.8603 35.4204 83.2839 37.7688 85.8797 41.2288C87.4235 42.5465 88.0835 42.5343 90.2953 41.1358ZM81.0281 49.8666C80.7642 49.9919 80.3922 50.0525 80.2643 50.2708C80.2165 50.3249 80.1915 50.3956 80.1945 50.468C80.1975 50.5403 80.2282 50.6087 80.2801 50.6586C80.3321 50.7085 80.4012 50.736 80.4729 50.7353C80.5446 50.7346 80.6132 50.7057 80.6642 50.6548C80.8682 50.5214 80.9282 50.1495 81.0642 49.8828C81.194 49.8997 81.326 49.8865 81.45 49.8441C81.5741 49.8016 81.6869 49.7311 81.7799 49.6379C81.8729 49.5448 81.9435 49.4313 81.9866 49.3064C82.0296 49.1814 82.0437 49.0481 82.0281 48.9167C83.8479 49.0056 84.6918 48.1083 84.8718 46.2894C81.8401 46.3136 81.8401 46.3136 81.0562 48.9086L81.0281 49.8666ZM70.2292 85.5456L71.5051 85.4042C71.5051 83.5246 71.5611 81.6451 71.5051 79.7696C71.4491 77.8941 71.905 76.156 72.525 74.3654C73.9368 70.3921 75.1127 66.3298 76.2566 62.2635C76.7766 60.4163 78.6564 54.8787 79.5003 53.8844C80.0883 53.1932 80.3922 52.6111 79.6163 51.7583C78.9083 52.8092 77.8205 53.4155 77.1925 54.6241C75.6647 57.5667 73.1329 60.0566 73.3889 63.7591C70.9051 67.502 70.1092 71.8876 69.0413 76.1196C68.2134 79.333 67.9654 82.7324 70.2252 85.5456H70.2292ZM111.921 69.1309C110.745 68.9935 110.321 69.9676 109.813 70.4931V74.8262C110.733 74.8464 111.461 75.1455 112.261 74.6119C112.406 73.3091 112.815 72.0502 113.461 70.9135C113.303 70.6306 113.124 70.3603 112.925 70.1051C112.613 69.7494 112.249 69.4583 111.917 69.1309H111.921ZM113.293 57.8617C110.425 57.8617 109.549 58.4155 109.633 60.0727C109.717 61.73 110.597 62.215 113.293 61.9806V57.8617ZM115.745 65.198C118.293 63.9854 118.293 63.9854 117.745 60.5618C117.021 60.5335 116.265 60.194 115.345 61.0428C115.677 62.2554 114.841 63.755 115.737 65.198H115.745ZM116.197 55.4567C116.125 54.2724 116.781 52.9709 115.797 51.7946C114.285 51.9159 113.641 52.6718 113.397 53.9046C114.025 54.7777 114.421 55.9418 116.193 55.4567H116.197ZM116.937 74.6766C117.901 73.0315 116.997 72.021 115.517 70.966C115.421 72.312 114.977 73.4883 115.657 74.6766C115.843 74.8127 116.067 74.886 116.297 74.886C116.527 74.886 116.751 74.8127 116.937 74.6766V74.6766Z" fill="#FDB3A5"/>
<path d="M100.994 25.7801C107.106 25.0768 112.025 27.5586 116.641 31.35C119.197 33.4519 121.78 35.4688 123.976 38.0032C123.912 38.6014 123.848 39.2158 123.776 39.9191C121.736 40.1657 120.024 41.2004 117.945 41.249C109.242 41.4511 103.322 37.1261 99.2065 29.7979C98.8945 29.2441 98.7785 28.6701 98.1226 28.4519C98.9385 27.3969 99.7144 26.3177 100.994 25.7801Z" fill="#0B8790"/>
<path d="M100.994 25.7801C99.7142 26.3177 98.9303 27.3969 98.1224 28.4519C94.6218 32.0465 91.9492 36.3774 90.2951 41.1358C88.0833 42.5343 87.4234 42.5465 85.8516 41.2166C86.9755 38.7187 87.3714 35.9943 88.5993 33.4762C91.591 27.3282 95.9186 22.7648 102.046 20C102.357 20.1604 102.655 20.3441 102.938 20.5497C103.282 20.869 103.582 21.2369 103.898 21.5764C103.71 23.5732 101.422 24.0218 100.994 25.7801Z" fill="#191919"/>
<path d="M70.2251 85.5457C67.9653 82.7163 68.2253 79.3331 69.0252 76.1197C70.0931 71.8877 70.889 67.502 73.3728 63.7591C73.1168 60.0566 75.6486 57.5667 77.1764 54.6241C77.8044 53.4115 78.8923 52.8092 79.6002 51.7583C80.3761 52.6112 80.0722 53.1932 79.4842 53.8844C78.6363 54.8788 76.7605 60.4164 76.2405 62.2636C75.0966 66.3299 73.9208 70.3921 72.5089 74.3654C71.873 76.156 71.417 77.8739 71.489 79.7696C71.561 81.6653 71.489 83.5247 71.489 85.4042L70.2251 85.5457Z" fill="#FC755D"/>
<path d="M111.917 69.1309C112.249 69.4422 112.613 69.7494 112.933 70.097C113.132 70.3522 113.311 70.6225 113.469 70.9054C112.822 72.0421 112.414 73.301 112.269 74.6039C111.469 75.1374 110.741 74.8383 109.821 74.8181V70.4931C110.325 69.9676 110.741 68.9935 111.917 69.1309Z" fill="#FC755D"/>
<path d="M113.289 57.8618V61.9806C110.593 62.215 109.713 61.7542 109.629 60.0728C109.545 58.3913 110.421 57.8618 113.289 57.8618Z" fill="#FC755D"/>
<path d="M115.737 65.1981C114.837 63.7551 115.673 62.2555 115.309 61.0429C116.245 60.194 117.001 60.5336 117.709 60.5619C118.289 64.0016 118.289 64.0016 115.737 65.1981Z" fill="#FC947F"/>
<path d="M81.0281 48.9006C81.828 46.3056 81.828 46.3056 84.8437 46.2813C84.6637 48.1124 83.8198 48.9976 82 48.9086L81.0281 48.9006Z" fill="#FC947F"/>
<path d="M116.193 55.4568C114.421 55.9418 114.025 54.7777 113.425 53.9046C113.649 52.692 114.293 51.9159 115.825 51.7947C116.777 52.9709 116.137 54.2724 116.193 55.4568Z" fill="#FC947F"/>
<path d="M116.937 74.6767C116.75 74.8128 116.526 74.886 116.297 74.886C116.067 74.886 115.843 74.8128 115.657 74.6767C114.977 73.4883 115.421 72.3121 115.517 70.9661C116.993 72.021 117.896 73.0315 116.937 74.6767Z" fill="#FC947F"/>
<path d="M81.0362 49.8747C80.9122 50.1415 80.8522 50.5133 80.6362 50.6467C80.5852 50.6976 80.5167 50.7265 80.445 50.7272C80.3733 50.7279 80.3042 50.7004 80.2522 50.6505C80.2002 50.6006 80.1695 50.5323 80.1665 50.4599C80.1635 50.3875 80.1886 50.3168 80.2363 50.2627C80.3643 50.0525 80.7362 49.9919 81.0002 49.8585L81.0362 49.8747Z" fill="#FC755D"/>
<path d="M81.0281 48.9006H82C82.0157 49.032 82.0015 49.1652 81.9585 49.2902C81.9154 49.4152 81.8448 49.5286 81.7518 49.6218C81.6588 49.715 81.546 49.7855 81.422 49.8279C81.2979 49.8703 81.166 49.8836 81.0361 49.8666V49.8666L81.0281 48.9006Z" fill="#FC755D"/>
</g>
<defs>
<clipPath id="clip0_317_114">
<rect width="80" height="79" fill="white"/>
</clipPath>
<clipPath id="clip1_317_114">
<rect width="84" height="80" fill="white" transform="translate(40 20)"/>
</clipPath>
</defs>
</svg>
