<svg width="175" height="107" viewBox="0 0 175 107" fill="none" xmlns="http://www.w3.org/2000/svg">
<g clip-path="url(#clip0_358_147)">
<path d="M81.714 83.7003C79.3587 91.1382 75.2251 93.7577 68.8188 91.8785L57.4071 83.9914C58.1805 87.2057 60.1427 87.7878 61.4678 88.8824C63.3697 90.4896 66.2384 91.5621 64.4601 94.9567C63.6402 95.9122 62.8202 96.8697 62.0003 97.8294L59.7211 99.31C59.5029 99.3341 59.2934 99.4089 59.1093 99.5283C51.7108 101.711 46.0842 98.3229 40.9806 93.628C36.0514 89.0912 30.9732 84.6684 27.1915 79.0338C31.1793 88.2434 39.177 93.9823 45.9986 100.278C46.5787 103.486 43.4215 103.606 42.5403 105.419C33.4902 107.893 26.0757 104.562 20.6076 97.8262C10.6256 85.5163 4.44112 71.1625 0.637228 55.8565C-0.817759 49.9974 0.288544 44.2204 3.59476 39.0098L8.8473 34.9603C10.1501 34.685 11.9602 35.631 12.4673 33.4512L17.013 33.3911C18.0971 35.1438 15.7925 36.0834 15.9954 37.6241L15.3614 39.361C12.1915 47.6404 16.5026 54.4613 19.6377 61.5354C17.7769 54.2588 15.4122 47.0393 16.8069 39.3483C16.9263 39.1455 16.9927 38.9159 17.0003 38.6808C19.1748 37.4912 20.0529 35.2387 21.3716 33.3499C21.5349 33.2643 21.6603 33.1211 21.7235 32.9481C24.4686 31.6257 27.3184 30.8095 30.409 31.2144L34.8088 33.8625C35.5982 37.8329 33.7279 41.7306 37.6047 46.7008C37.6237 40.4461 36.0483 35.536 39.1199 31.4043C42.7621 26.4973 47.2602 26.9308 52.1165 28.9777L55.9394 34.5047L57.5054 32.9228C56.9855 30.4931 54.7476 29.5756 52.9629 28.2595C49.6377 24.1467 51.08 19.61 56.1328 18.3192C60.3139 17.253 64.2731 17.9142 68.0326 19.958C66.5428 23.2166 62.8752 19.8821 61.0588 22.103C63.4046 25.2667 67.3257 21.4955 69.5066 24.4599L72.6195 22.7832L72.6797 22.7642C72.7273 23.6564 72.7748 24.5485 72.8446 25.9279L74.8574 24.346L84.4971 35.0299C84.4369 33.7644 84.643 32.926 84.3386 32.3882C80.0878 24.9219 74.1537 19.417 65.8042 16.7785C64.2699 16.2912 62.1112 16.4621 62.1303 13.9311C66.4223 7.77456 71.0694 6.43949 77.9608 9.37857C94.2826 16.3387 110.589 43.1859 109.311 60.9058C109.042 64.6105 108.208 68.0463 105.621 70.862C102.841 72.4945 100.093 74.2155 96.6537 73.9181L96.5967 73.8675C96.5354 69.6092 96.4741 65.3519 96.4128 61.0956C95.7302 56.9849 95.0466 52.8721 94.3619 48.7572L93.0432 49.0261C93.7681 52.3121 94.495 55.6003 95.2241 58.8905C95.2495 66.534 95.5031 74.2092 92.1017 81.375C89.699 84.4185 86.8651 85.6998 83.188 83.5611C82.8171 80.9384 83.86 77.9993 81.2512 75.1362C81.4318 78.4707 81.5745 81.0934 81.714 83.7003ZM82.7505 20.2965C81.3558 19.7713 80.2938 19.7555 80.2716 21.3469C80.2716 21.8088 81.0419 22.6566 81.5016 22.6851C83.0928 22.7958 83.1658 21.7297 82.7505 20.3092V20.2965ZM7.96923 63.9271C5.80418 63.209 4.87856 63.4874 5.06875 65.316C5.08777 65.5122 5.33186 65.6893 5.64568 66.0974L7.96923 63.9271Z" fill="#FF7E60"/>
<path d="M30.596 22.8971C30.1713 19.8916 28.9477 17.2024 27.2455 14.7221C25.3435 11.9158 25.6352 9.619 29.2679 9.01157C32.3775 8.49273 34.3651 6.03453 37.348 5C42.8224 8.00235 39.0914 15.0954 43.3137 18.5691C44.1537 21.3627 47.013 20.9704 49.0734 21.9828C48.7565 23.2989 48.4395 24.46 48.0876 25.8583C42.3025 25.1496 38.8727 28.7278 35.725 32.5717L31.9908 30.4014C31.7372 28.8828 32.5265 27.1807 31.1666 25.8646L31.2015 25.9279C31.005 24.9187 30.7989 23.9063 30.596 22.8971Z" fill="#ACD8AA"/>
<path d="M31.9971 30.4014L35.7312 32.5717C38.8726 28.7278 42.3024 25.1496 48.0939 25.8583C48.4521 24.4599 48.7469 23.2989 49.0797 21.9828C47.0193 20.9704 44.16 21.35 43.32 18.5691C44.3724 17.5884 43.7701 14.9182 46.4075 15.5541C45.9193 16.6108 45.428 17.6643 44.9367 18.7178C47.8371 19.9833 57.8445 16.3798 59.0269 13.8805L62.1397 13.9343C62.1207 16.4652 64.2794 16.2944 65.8137 16.7816C74.1632 19.4296 80.0973 24.925 84.3481 32.3913C84.6651 32.9291 84.4464 33.7549 84.5066 35.033L74.8669 24.3492L72.6892 22.7673L72.629 22.7863L68.0548 19.9611C64.2953 17.9174 60.3361 17.2562 56.155 18.3223C51.0831 19.6131 49.644 24.1436 52.9851 28.2627L52.1387 28.9745C47.2697 26.9276 42.7716 26.4942 39.1421 31.4011C36.0704 35.5329 37.6459 40.443 37.6269 46.6976C33.7501 41.7274 35.6203 37.8392 34.831 33.8593L30.4312 31.2113L30.5072 30.3792L31.9971 30.4014Z" fill="#F3D9AF"/>
<path d="M42.5274 105.432C43.4087 103.619 46.5659 103.499 45.9858 100.291C39.1642 93.995 31.1665 88.2687 27.1787 79.0465C30.9604 84.6811 36.0545 89.1039 40.9678 93.6407C46.0714 98.3356 51.698 101.724 59.0965 99.541C58.9919 99.7624 58.8937 100.174 58.7795 100.174C52.8645 100.405 47.3996 101.999 42.5274 105.432Z" fill="#F3D9AF"/>
<path d="M59.0204 13.8868C57.8381 16.3862 47.8306 19.9991 44.9302 18.7241C45.4215 17.6643 45.9129 16.6108 46.401 15.5604V15.5415L47.2284 15.0321L47.3583 14.8802C50.319 12.4473 53.7362 11.9665 57.4006 12.5454L59.0204 13.8868Z" fill="#FF7E60"/>
<path d="M21.4158 31.6099C17.4407 27.4971 31.1094 19.9485 31.0016 27.2061C30.7512 32.0813 24.088 27.5414 21.4158 31.6099Z" fill="#FF7E60"/>
<path d="M96.4158 61.1051C96.4792 65.3634 96.5405 69.6207 96.5996 73.877C93.7689 75.5885 95.4934 80.0177 92.1047 81.3971C95.506 74.2313 95.2524 66.5562 95.2271 58.9127L96.4158 61.1051Z" fill="#F3D9AF"/>
<path d="M64.4346 94.9694C66.213 91.5747 63.3569 90.5022 61.4423 88.8951C60.1172 87.7846 58.155 87.2183 57.3816 84.004L68.7933 91.8911C66.0703 91.0907 66.942 95.406 64.4346 94.9694Z" fill="#F3D9AF"/>
<path d="M96.6567 73.9276C100.096 74.225 102.844 72.5039 105.624 70.8715C103.424 74.2092 100.733 76.0884 96.6567 73.9276Z" fill="#F3D9AF"/>
<path d="M81.7138 83.7003C81.5743 81.0807 81.4317 78.458 81.2542 75.1583C83.863 78.0056 82.8201 80.9605 83.191 83.5832L81.7138 83.7003Z" fill="#F3D9AF"/>
<path d="M16.7941 39.3515C15.3994 47.0425 17.7641 54.2462 19.6249 61.5386C16.4898 54.4645 12.1851 47.6436 15.3487 39.3642L16.7941 39.3515Z" fill="#F3D9AF"/>
<path d="M68.0485 19.9675L72.6227 22.7926L69.5098 24.4694C67.3289 21.505 63.4077 25.2888 61.062 22.1124C62.891 19.8915 66.5586 23.2261 68.0485 19.9675Z" fill="#FF7E60"/>
<path d="M96.416 61.1051L95.2273 58.9126C94.5003 55.6245 93.7734 52.3363 93.0464 49.0482L94.3651 48.7793C95.0498 52.89 95.7334 56.9986 96.416 61.1051Z" fill="#F3D9AF"/>
<path d="M17.0034 33.3974C18.4584 33.8878 19.9134 34.0997 21.3589 33.3563C20.0402 35.2545 19.1621 37.4975 16.9875 38.6871L15.9859 37.6304C15.783 36.0865 18.0875 35.1469 17.0034 33.3974Z" fill="#F3D9AF"/>
<path d="M21.416 31.6099C23.9741 28.9619 27.2455 29.5156 30.4154 29.6073L30.4724 30.3856L30.3964 31.2177C27.3057 30.8127 24.4559 31.6289 21.7108 32.9514L21.416 31.6099Z" fill="#F3D9AF"/>
<path d="M52.1165 28.9682L52.9628 28.2564C54.7475 29.5725 56.9854 30.49 57.5053 32.9197L55.9393 34.5016L52.1165 28.9682Z" fill="#F3D9AF"/>
<path d="M82.7505 20.3091C83.1657 21.7297 83.0928 22.7958 81.5015 22.6978C81.0419 22.6693 80.2621 21.8214 80.2716 21.3595C80.2843 19.7681 81.3557 19.7935 82.7505 20.3091Z" fill="#FF7E60"/>
<path d="M7.96915 63.9271L5.64561 66.0974C5.32862 65.6893 5.0877 65.5122 5.06868 65.316C4.87849 63.4874 5.79143 63.209 7.96915 63.9271Z" fill="#FF7E60"/>
<path d="M72.6765 22.7737L74.8542 24.3555L72.8414 25.9374C72.778 24.558 72.7304 23.6658 72.6765 22.7737Z" fill="#FF7E60"/>
<path d="M8.83765 34.9793C9.833 33.9732 10.99 33.3499 12.4577 33.4702C11.9505 35.6341 10.1405 34.6882 8.83765 34.9793Z" fill="#FF7E60"/>
<path d="M15.9858 37.6273L16.9875 38.6839C16.9799 38.9191 16.9134 39.1486 16.7941 39.3515H15.3486L15.9858 37.6273Z" fill="#F3F7F1"/>
<path d="M30.4723 30.3856L30.4153 29.6073L30.4565 29.5409C30.6403 28.7626 30.8221 27.9843 31.0017 27.2061L31.1729 25.8646C32.5327 27.1807 31.7435 28.8828 31.9971 30.4014L30.4723 30.3856Z" fill="#F8EDDA"/>
<path d="M31.0018 27.2061C30.8221 27.9843 30.6404 28.7626 30.4565 29.5409C30.6404 28.7626 30.8221 27.9843 31.0018 27.2061Z" fill="#ACD8AA"/>
</g>
<path d="M104.869 59.5447C99.1063 57.1836 96.0896 53.3931 97.7795 47.2779C84.0518 43.5969 83.5773 31.2936 95.5473 23.073C94.39 18.5974 91.843 13.5692 97.1694 9.90194C102.351 6.31232 107.721 8.2213 113.251 10.5687C114.601 5.38979 116.369 0.347872 123.158 0.0236184C131.065 -0.355439 135.907 3.85529 139.297 10.7012C147.195 6.43562 154.308 8.02492 160.269 14.0076C165.595 19.3373 164.946 25.4524 161.721 31.4717C178.156 42.679 179.129 49.5568 165.784 60.2435C168.089 64.4268 168.936 68.6832 164.68 72.3779C159.353 76.9996 153.828 75.52 148.313 72.6656C146.938 68.2265 141.98 69.4231 139.055 67.4227L133.389 62.8878C132.997 58.1518 129.114 60.1476 126.504 59.7229L120.78 56.9827C117.609 53.6762 116.02 57.9646 113.609 58.3117L110.103 59.4717L104.869 59.5447ZM153.586 38.7057C155.785 34.0885 156.656 29.6312 152.134 25.9183C149.059 23.3882 145.655 20.9403 141.35 23C138.382 24.4203 134.9 25.9228 135.128 30.4989C140.183 29.7454 142.541 21.7806 149.141 27.0098C155 31.6544 151.001 35.9108 149.194 40.4549C153.485 42.0076 158.937 41.3683 159.746 46.8486C160.501 51.9225 155.523 52.6349 151.272 54.9276C157.223 56.2017 160.356 54.2471 161.707 50.2145C163.91 43.5741 159.261 40.7472 153.586 38.7057ZM127.574 24.8359C130.963 23.1461 129.898 20.7941 128.818 18.8212C127.322 16.081 125.39 13.2724 121.686 13.2724C117.023 13.2724 115.875 17.2319 114.02 20.4836C110.519 19.1135 106.927 17.6338 104.094 21.123C101.566 24.2376 101.552 27.8592 102.98 31.3895C104.409 34.9197 106.568 36.1345 110.791 36.0797C106.723 31.7594 101.276 27.6765 107.474 22.1368C111.556 21.5522 113.004 24.5847 115.706 25.731C116.926 22.3332 116.911 18.4239 120.737 16.419C126.867 16.2409 125.739 21.5979 127.574 24.8359ZM140.343 58.0605C143.945 54.4754 144.89 50.2967 143.035 45.8713C140.798 40.5371 135.689 41.076 130.93 41.4642C127.85 35.7966 123.463 32.3668 117.095 35.9382C112.626 38.4408 111.943 42.9302 113.861 47.4971C115.231 43.0124 114.897 37.3311 121.812 37.2945C128.644 37.2626 127.191 43.2407 128.16 47.3921C131.811 45.8028 134.455 41.455 138.6 44.556C143.655 48.3374 140.934 53.2972 140.343 58.0605V58.0605Z" fill="#576849"/>
<path d="M126.504 59.7229C129.114 60.1796 132.997 58.1518 133.389 62.8878C133.68 65.7147 132.247 68.7654 134.479 71.4188C137.191 71.1037 138.561 69.6925 139.065 67.409C141.97 69.4094 146.948 68.2128 148.323 72.6519C137.912 82.7494 129.37 94.0801 123.458 107C116.732 106.543 111.406 104.26 104.869 100.885V59.5447L110.103 59.458C110.665 61.367 110.398 63.7189 113.217 64.6415C114.03 62.463 115.938 60.5312 113.609 58.298C116.03 57.9509 117.609 53.6625 120.78 56.969C121.047 61.6136 119.739 66.4865 123.158 73.0173L126.504 59.7229Z" fill="#AEC6AD"/>
<path d="M153.586 38.7058C159.261 40.7472 163.91 43.5742 161.697 50.1871C160.346 54.2198 157.213 56.1744 151.262 54.9002C155.514 52.6168 160.491 51.8952 159.736 46.8213C158.927 41.3409 153.475 41.9894 149.185 40.4276C150.991 35.8606 154.995 31.627 149.131 26.9824C142.531 21.7533 140.173 29.7226 135.118 30.4716C134.89 25.9046 138.372 24.393 141.34 22.9726C145.645 20.913 149.049 23.3608 152.124 25.8909C156.656 29.6313 155.785 34.0886 153.586 38.7058Z" fill="#A5BA9C"/>
<path d="M127.574 24.8359C125.739 21.598 126.867 16.2409 120.751 16.4008C116.926 18.4239 116.94 22.3378 115.72 25.7128C113.004 24.5665 111.556 21.534 107.488 22.1186C101.276 27.6583 106.723 31.7412 110.791 36.0798C106.568 36.1528 104.399 34.8878 102.985 31.4078C101.571 27.9278 101.566 24.2377 104.094 21.123C106.927 17.6338 110.52 19.1181 114.02 20.4836C115.851 17.2319 117.023 13.277 121.686 13.2724C125.39 13.2724 127.322 16.0902 128.818 18.8213C129.898 20.7942 130.968 23.1462 127.574 24.8359Z" fill="#A5BA9C"/>
<path d="M140.343 58.0605C140.934 53.2972 143.631 48.3375 138.6 44.556C134.464 41.4459 131.821 45.8028 128.16 47.3921C127.191 43.2408 128.644 37.2626 121.812 37.2946C114.897 37.3311 115.231 43.0124 113.861 47.4972C111.924 42.9302 112.626 38.4409 117.086 35.9382C123.453 32.3668 127.84 35.7966 130.92 41.4642C135.69 41.076 140.798 40.5508 143.026 45.8713C144.89 50.3013 143.946 54.4755 140.343 58.0605Z" fill="#A5BA9C"/>
<path d="M126.504 59.7229L123.158 73.0173C119.739 66.4865 121.046 61.5999 120.78 56.969L126.504 59.7229Z" fill="#EBF1E5"/>
<path d="M139.064 67.409C138.58 69.6925 137.191 71.1037 134.479 71.4188C132.247 68.7654 133.68 65.7147 133.389 62.8878L139.064 67.409Z" fill="#EBF1E5"/>
<path d="M113.633 58.2979C115.962 60.5312 114.054 62.463 113.241 64.6414C110.423 63.728 110.689 61.3669 110.127 59.4579L113.633 58.2979Z" fill="#EBF1E5"/>
<defs>
<clipPath id="clip0_358_147">
<rect width="109.384" height="101.248" fill="white" transform="translate(0 5)"/>
</clipPath>
</defs>
</svg>
