<svg xmlns="http://www.w3.org/2000/svg" viewBox="0 0 143.15 218.92"><defs><style>.cls-1{fill:#fde773;}.cls-1,.cls-2{opacity:0.5;}.cls-2{fill:#fdcb44;}</style></defs><g id="Calque_2" data-name="Calque 2"><g id="Calque_1-2" data-name="Calque 1"><path class="cls-1" d="M76.73,26.43C84.45,21.56,86.87,14,92.41,9c5.31-4.84,12-6.57,18.3-8.41C118.15-1.64,124,3.08,128.79,9c-.74,6.68.24,13.43-2,20.48C125,35,124.47,42.7,132.55,46c2.68,7.36,6.07,14.54,7.9,22.11,4.18,17.33,2.12,35.1,2.63,52.69.13,4.45-1.87,8.4-3.47,11.83-1.3,2.8.87,8.79-5.31,8.76.06,5.59-3.41,9.78-5.52,14.56-4.41,10-10,19.11-18.62,25.85-7.15,5.61-15,10.37-22.55,15.41a7.08,7.08,0,0,1-3.27.79c-8.76.69-16.62,4.58-24.76,7.34-5.25,1.77-8,7.33-11.23,9.92-3.62,3.3-6.92,1.43-10,2.59-9.34,3.57-18.33-2.34-19.26-12.34-1.22-13.28-5.11-25.7-10.18-38-5.2-12.6-10.4-25.88-8.56-39.59,1.93-14.49,2.1-29.37,8.55-43.34,2.9-6.29,6.78-11.65,10.15-17.46C27.61,52.44,40,41.51,54.85,33.89,61.66,30.4,68.68,25.85,76.73,26.43ZM112.5,66.68c-6.09,2.31-5.92,6.83-4.9,10.86A5.37,5.37,0,0,0,114,81.3c4.23-.86,5.47-3.74,5.08-8.77Zm3,33.79c-.68,3.88-5.92,6.63-2.48,11.36,4.11,1.68,7.22-.24,8.35-3.78.69-2.14,1.37-5.44-1.07-7.58Zm9.74-40.72c-1.32,2.57-2.66,5.18-3.94,7.65,1.68,2.06,2.72,4.3,5.46,4.35,4.34-4.49,5.64-9.11,3.09-11.76ZM109.89,101c-1.59-4.61-4.36-6.72-9.37-4.63-.52,2.93-1,5.58.28,8.08C105.06,106.87,107.35,104.05,109.89,101Z"/><path class="cls-2" d="M112.5,66.68l6.62,5.85c.39,5-.85,7.91-5.08,8.77a5.37,5.37,0,0,1-6.44-3.76C106.58,73.51,106.41,69,112.5,66.68Z"/><path class="cls-2" d="M115.49,100.47h4.8c2.44,2.14,1.76,5.44,1.07,7.58-1.13,3.54-4.24,5.46-8.35,3.78C109.57,107.1,114.81,104.35,115.49,100.47Z"/><path class="cls-2" d="M125.23,59.75l4.61.24c2.55,2.65,1.25,7.27-3.09,11.76-2.74,0-3.78-2.29-5.46-4.35C122.57,64.93,123.91,62.32,125.23,59.75Z"/><path class="cls-2" d="M109.89,101c-2.54,3.09-4.83,5.91-9.09,3.45-1.33-2.5-.8-5.15-.28-8.08C105.53,94.24,108.3,96.35,109.89,101Z"/></g></g></svg>