<svg width="64" height="85" viewBox="0 0 64 85" fill="none" xmlns="http://www.w3.org/2000/svg">
<path d="M29.2185 82.1494L29.2132 82.143C24.8861 76.8281 17.9178 67.7381 12.04 58.1858C9.10089 53.4094 6.4521 48.5457 4.54225 44.0005C2.62211 39.4309 1.5 35.301 1.5 31.9577C1.5 15.138 15.1532 1.5 32 1.5C48.8403 1.5 62.5 15.1382 62.5 31.9577C62.5 35.2989 61.3698 39.4274 59.4379 43.9976C57.5165 48.5429 54.8537 53.4068 51.9048 58.184C46.0081 67.7368 39.0393 76.828 34.7798 82.1516C33.3298 83.9502 30.6675 83.9495 29.2185 82.1494Z" fill="#90DBD0" stroke="white" stroke-width="3"/>
<path d="M33.3812 11.2322C34.2513 10.8121 34.9545 11.1928 35.6338 11.6975C36.2014 12.1606 36.7473 12.6577 37.3457 13.0776C37.9442 13.4975 38.1999 14.1922 38.7093 14.7005C39.1898 15.1784 39.8183 15.6755 40.0756 16.2741C40.713 17.7585 41.8871 18.9343 42.3619 20.5071C42.5075 20.9907 42.7561 21.5382 43.2945 21.8037C43.1876 21.9879 42.8896 22.1791 43.0414 22.3703C43.4783 22.9142 43.1771 23.8646 44.0424 24.1528C44.0106 24.1868 43.9865 24.2273 43.9717 24.2714C43.9569 24.3156 43.9518 24.3624 43.9568 24.4087C43.9618 24.455 43.9766 24.4997 44.0004 24.5397C44.0242 24.5797 44.0563 24.6142 44.0946 24.6406C43.9598 25.1333 43.9933 25.6568 44.1898 26.1282C44.8555 27.6849 44.4636 29.2675 44.46 30.8395C44.4597 33.1465 43.9222 35.347 43.2299 37.5209C42.668 39.2907 41.9915 41.0018 40.7893 42.4614C39.7424 43.7337 38.7134 45.0204 37.7023 46.3214C37.0856 47.113 36.2946 47.7304 35.5046 48.2752C31.5841 50.9877 27.2137 52.2959 22.4291 51.9257C20.8873 51.8086 19.3372 51.7363 17.839 51.0759C17.1022 50.7509 16.3233 50.5153 15.6416 50.0527C15.599 50.0186 15.4573 50.1293 15.3622 50.1725L13.627 48.7847C13.5263 47.6323 13.9764 46.6633 14.5505 45.7183C15.343 44.4175 16.112 43.0979 16.7013 41.6932C16.8058 41.4409 16.868 41.1749 17.0529 40.9667C18.0959 39.8002 18.4378 38.2344 19.3317 36.9835C19.2671 35.9443 20.5406 35.5201 20.4825 34.4843C21.7594 32.7614 22.424 30.7049 23.5449 28.881C24.2582 27.7206 24.7742 26.3364 25.4495 25.1455C26.257 23.7227 27.0233 22.2596 27.823 20.8305C28.6712 19.3246 29.5788 17.8387 30.3252 16.2605C30.8534 15.1411 31.3804 13.9198 32.3436 13.0253C32.8098 12.5043 32.747 11.6648 33.3812 11.2322ZM26.4194 41.0312C26.8689 40.8639 27.0508 40.5285 27.2023 40.1669C26.6768 39.486 26.4116 38.569 25.4664 38.2775C24.5058 38.5445 24.5058 38.5445 24.57 39.5521L26.4194 41.0312ZM31.4187 24.7323C31.1078 24.9718 30.8071 25.2674 30.7747 25.6637C31.3478 26.6249 32.2826 26.2088 33.0485 26.401C33.2309 26.0788 33.6703 25.8943 33.5856 25.4264C32.9912 24.85 32.3083 24.57 31.4187 24.7323ZM30.1298 34.9367C29.3356 34.1785 28.6399 33.5359 27.6383 33.425C27.5526 33.4152 27.4541 33.52 27.3596 33.5692C27.2034 33.8426 27.3519 34.1137 27.3795 34.3798C28.4676 35.296 28.4676 35.296 29.649 35.5378L30.1298 34.9367ZM36.5653 33.0223C38.0773 34.0902 38.5729 34.1085 39.3281 33.1871C38.8923 32.332 37.917 32.5303 37.3407 32.0528L36.5653 33.0223ZM27.3911 45.3564L28.702 46.4048L29.3423 46.2928L29.2996 45.0655C28.6398 44.7728 28.3305 44.1565 27.7393 44.0857C27.2213 44.4442 27.2209 44.8623 27.3911 45.3564ZM34.9136 40.9101C34.1864 40.3506 33.5874 39.4953 32.2485 39.7992C32.691 40.623 33.4392 40.9039 33.909 41.3952C34.303 41.3432 34.6809 41.4858 34.9101 40.9146L34.9136 40.9101ZM35.56 18.4317C34.8661 18.6568 34.2702 17.9399 33.6572 18.5619C33.5889 19.058 33.6801 19.465 34.1801 19.7143C34.6408 19.6844 35.1512 19.7806 35.6616 19.3628L35.56 18.4317ZM37.7542 37.0164C37.4471 37.3637 37.1776 37.5079 37.237 37.8582C37.8216 38.4836 38.457 38.9882 39.5546 38.7243C39.0848 37.9209 38.367 37.6112 37.7542 37.0164ZM30.846 31.0437C31.3081 30.9709 31.8369 31.1496 32.2485 30.6969C31.9536 29.7782 31.1342 29.8479 30.4263 29.7003C30.2781 29.9269 29.9948 30.0747 30.0917 30.4423L30.846 31.0437ZM19.9924 38.9803L20.6309 40.4381C21.0735 40.2542 21.5056 40.9211 21.8734 40.3396C21.6646 39.8662 21.5974 39.3076 21.1734 39.0713L19.9924 38.9803ZM37.7874 26.3969C38.3216 27.1197 38.7994 27.5551 39.6782 26.9657C39.2467 26.259 38.7813 25.8519 37.7874 26.3969ZM17.6294 44.5996C18.4555 44.526 18.4555 44.526 18.8642 43.9094C18.2953 43.4893 18.2953 43.4893 17.4186 43.7133L17.6294 44.5996ZM22.5815 45.2194C22.2569 45.3269 21.9889 45.3935 21.7349 45.5023C21.6552 45.5377 21.6212 45.6812 21.5133 45.8666C21.9138 46.2401 22.2714 46.6858 22.8891 46.82C23.3067 46.1555 22.5885 45.906 22.5824 45.2183L22.5815 45.2194ZM32.8457 34.4326C33.2791 34.625 33.4523 35.1636 34.2159 35.0328C34.0705 34.6339 34.278 34.2528 33.819 33.9224C33.5936 34.0689 33.2184 33.822 32.8466 34.4314L32.8457 34.4326ZM23.2711 33.2123C23.5673 33.5006 23.7371 34.1467 24.2969 33.4674C24.1161 33.1081 23.9323 32.8399 23.5191 32.9022L23.2711 33.2123ZM26.9004 28.626C27.0242 28.446 27.1805 28.3379 27.0978 28.1359C26.8076 27.847 26.5248 27.3858 26.1105 28.0806C26.3083 28.3176 26.4632 28.537 26.9013 28.6249L26.9004 28.626ZM29.9414 21.6106C29.812 21.5234 29.6569 21.4823 29.5013 21.4941C29.3457 21.5059 29.1986 21.5698 29.0837 21.6754C29.2609 21.975 29.4489 22.2447 29.8557 22.1699C30.0187 22.0028 30.1706 21.838 29.9367 21.605L29.9414 21.6106Z" fill="#FB7259"/>
<path d="M14.1973 52.7428C14.1117 52.6811 14.0349 52.608 13.9692 52.5255L14.9889 51.2504C15.5317 51.8478 16.3345 52.042 17.0106 52.3166C18.0662 52.7387 19.0838 53.4515 20.3225 53.3005L20.318 53.3061C20.8269 53.7461 21.5046 53.6034 22.0815 53.8115C24.1683 54.2152 26.3195 54.1401 28.3731 53.5919C28.6534 53.3608 29.0152 53.4776 29.3221 53.367C30.3581 52.9713 31.5934 53.0011 32.3345 51.9712L32.3215 51.9736C34.313 51.7419 35.7673 50.5683 37.1327 49.2375C37.2341 49.2598 37.4 49.3301 37.4305 49.292C38.0017 48.5503 38.8445 48.0863 39.4367 47.3962C40.8661 45.7329 42.1975 43.9856 43.5738 42.2762C43.7314 42.0792 43.7965 41.9036 43.6104 41.6979C44.0489 41.1107 44.6893 40.5784 44.8858 39.9242C45.3362 38.3627 46.0958 36.9309 46.5493 35.3609C47.279 32.7806 47.5845 30.0988 47.4537 27.4205C47.3492 25.078 46.832 22.7723 45.926 20.6095C45.5206 19.6245 45.278 18.4981 44.337 17.795C44.3562 17.6929 44.4303 17.5429 44.3915 17.4973C43.3759 16.3069 42.5145 14.9719 41.2401 14.0224C40.4341 13.4236 39.7623 12.657 38.8352 12.2257C37.7592 11.7213 36.6367 11.3026 35.7308 10.4937C35.495 10.2629 35.6116 9.95414 35.5596 9.69782C35.7264 9.24379 36.2975 9.46377 36.5146 9.10509C39.6444 10.0113 41.8895 12.2786 44.2348 14.3195C45.3053 15.2508 45.9836 16.6358 46.7078 17.9198C47.9967 20.2098 48.7177 22.7119 49.0745 25.2494C49.4633 28.1726 49.3651 31.1401 48.7838 34.0312C48.2558 36.8599 47.2959 39.5906 45.9376 42.1274C45.3969 43.1248 44.5105 43.9119 44.1627 44.9205C43.7816 46.0052 43.0598 46.7586 42.3766 47.5301C40.3989 49.8 38.0595 51.7271 35.4529 53.2336C33.8291 54.1669 32.2145 55.0084 30.4032 55.4578C28.9154 55.8263 27.4655 56.2507 25.8823 56.2473C24.4976 56.2413 23.1128 56.2974 21.7317 56.1584C20.5279 56.0363 19.4177 55.655 18.3066 55.183C16.9248 54.5974 15.5439 54.0473 14.4622 52.9601C14.3793 52.8813 14.2908 52.8087 14.1973 52.7428V52.7428Z" fill="#0B8790"/>
<path d="M43.6044 41.6954C43.7913 41.9 43.7264 42.0775 43.5677 42.2736C42.197 43.9876 40.8601 45.7304 39.4307 47.3937C38.8384 48.0838 37.9956 48.5477 37.4244 49.2895C37.3976 49.3231 37.2317 49.2528 37.1267 49.2349C35.9919 49.3387 35.1765 50.1311 34.2708 50.6715C33.6126 51.0629 32.6545 51.0859 32.3143 51.9702L32.3273 51.9677C31.9422 51.7607 31.6519 51.947 31.2832 52.1073C30.4046 52.4876 29.5029 52.8439 28.5409 52.9887C28.4598 53.0007 28.3849 53.0389 28.3277 53.0976C28.2705 53.1563 28.2341 53.2322 28.2242 53.3136C28.2721 53.4051 28.318 53.4969 28.3693 53.5911C26.3157 54.1394 24.1645 54.2145 22.0777 53.8108C22.2413 53.5855 22.1208 53.2634 21.9585 53.308C21.4083 53.4589 21.1301 52.829 20.6314 52.9018L20.3109 53.3026L20.3153 53.297C19.9508 53.0643 19.7141 52.6327 19.24 52.56C17.6285 52.3303 16.3273 51.497 15.1359 50.4506L15.3508 50.1819C15.4459 50.1387 15.5849 50.0315 15.6302 50.0621C16.3128 50.5236 17.0917 50.7593 17.8276 51.0853C19.3213 51.7422 20.8759 51.8181 22.4177 51.9351C27.2059 52.3009 31.5694 50.9944 35.4992 48.2748C36.2892 47.73 37.082 47.1104 37.6969 46.3209C38.7087 45.0206 39.7378 43.7339 40.7839 42.461C41.9861 41.0014 42.6626 39.2903 43.2245 37.5205C43.9169 35.3466 44.4543 33.1461 44.4546 30.8391C44.4526 29.2626 44.8446 27.6801 44.1844 26.1278C43.9879 25.6564 43.9544 25.1329 44.0892 24.6402C44.2426 24.46 44.2385 24.2952 44.037 24.1524C44.1417 23.73 44.1273 23.2868 43.9953 22.8721C43.8632 22.4574 43.6188 22.0874 43.2892 21.8033V21.8033C43.4841 21.4746 43.3717 21.1699 43.2234 20.8641C42.8481 20.0941 42.4348 19.3395 42.108 18.5477C41.2426 16.4226 39.8261 14.5668 38.0046 13.1716C37.5505 12.8213 37.1466 12.4083 36.6643 12.1254C36.2692 11.892 36.3027 11.4599 36.0495 11.1821C35.8721 10.9816 35.466 10.8881 35.7281 10.4846C36.634 11.2935 37.7566 11.7122 38.8326 12.2167C39.7556 12.6484 40.4392 13.4209 41.2374 14.0133C42.5118 14.9628 43.3732 16.2978 44.3889 17.4882C44.4321 17.5375 44.358 17.6875 44.3343 17.786L43.9094 17.7068C44.4531 19.0925 45.0792 20.3751 45.5129 21.7425C46.1991 23.868 46.3834 26.0382 46.5203 28.2034C46.6217 29.8117 46.4093 31.4682 46.1207 33.0637C45.8047 34.9167 45.3374 36.7407 44.7235 38.5174C44.3522 39.5622 43.9861 40.681 43.2314 41.5696C43.2126 41.588 43.1992 41.6113 43.1927 41.6368C43.1862 41.6623 43.1869 41.6891 43.1946 41.7143C43.2024 41.7394 43.2169 41.762 43.2366 41.7794C43.2564 41.7969 43.2805 41.8085 43.3064 41.8132L43.6044 41.6954Z" fill="#90DBD0"/>
<path d="M36.0458 11.1867C36.2991 11.4645 36.2655 11.8965 36.6607 12.13C37.1452 12.4147 37.5513 12.8294 38.0009 13.1762C39.8245 14.5677 41.2442 16.4203 42.1135 18.5431C42.4403 19.3348 42.8537 20.0894 43.229 20.8595C43.379 21.1631 43.4896 21.47 43.2947 21.7986C42.7536 21.5366 42.5077 20.9856 42.3621 20.5021C41.8873 18.9293 40.7086 17.7499 40.0758 16.2691C39.8196 15.6714 39.19 15.1733 38.7095 14.6955C38.199 14.1862 37.9486 13.4941 37.3459 13.0726C36.7432 12.6511 36.2006 12.1567 35.634 11.6925L36.0458 11.1867Z" fill="#FBF2DD"/>
<path d="M15.1462 50.4494C16.3375 51.4959 17.6388 52.3291 19.2502 52.5588C19.728 52.627 19.96 53.0622 20.3256 53.2959C19.0869 53.4469 18.0693 52.7341 17.0137 52.312C16.334 52.0419 15.5312 51.8477 14.992 51.2458L14.718 50.9917L15.1462 50.4494Z" fill="#EBF3F6"/>
<path d="M14.7144 50.9961L14.9884 51.2502L13.9687 52.5252C13.6249 51.5069 13.6482 51.4594 14.7144 50.9961Z" fill="#90DBD0"/>
<path d="M14.1968 52.7426C14.2862 52.8084 14.3709 52.8804 14.4502 52.9582C14.3627 53.0056 14.2443 53.1147 14.1935 53.0887C14.0088 52.9961 14.1162 52.8617 14.1968 52.7426Z" fill="#90DBD0"/>
<path d="M26.4188 41.0312L24.5739 39.5557C24.5097 38.5481 24.5097 38.5481 25.4703 38.2811C26.4155 38.5726 26.6807 39.4896 27.2063 40.1705C27.0503 40.5285 26.8683 40.8639 26.4188 41.0312Z" fill="#191919"/>
<path d="M31.4187 24.7323C32.3084 24.5701 32.9912 24.8501 33.5857 25.4264C33.6704 25.8943 33.2309 26.0789 33.0485 26.401C32.2838 26.2097 31.3478 26.6249 30.7748 25.6637C30.8038 25.2648 31.1078 24.9719 31.4187 24.7323Z" fill="#191919"/>
<path d="M30.13 34.9366L29.6457 35.5422C28.4643 35.3004 28.4643 35.3004 27.3761 34.3843C27.3503 34.1159 27.2001 33.847 27.3563 33.5736C27.4544 33.5199 27.5528 33.4151 27.635 33.4294C28.6402 33.5358 29.3359 34.1785 30.13 34.9366Z" fill="#191919"/>
<path d="M36.5654 33.0222L37.3408 32.0527C37.9171 32.5302 38.8925 32.3319 39.3282 33.187C38.573 34.1084 38.0774 34.0901 36.5654 33.0222Z" fill="#191919"/>
<path d="M27.3908 45.3563C27.2206 44.8623 27.221 44.4441 27.7367 44.0838C28.3279 44.1547 28.6372 44.7709 29.297 45.0637L29.3397 46.2909L28.6995 46.4029L27.3908 45.3563Z" fill="#191919"/>
<path d="M34.91 40.9146C34.6808 41.4857 34.3011 41.3454 33.9093 41.3992C33.4373 40.9061 32.6914 40.627 32.2489 39.8032C33.5838 39.4997 34.1827 40.355 34.91 40.9146Z" fill="#191919"/>
<path d="M35.5563 18.4361L35.6561 19.3694C35.1412 19.7837 34.6353 19.6911 34.1745 19.7209C33.6746 19.4716 33.5834 19.0646 33.6516 18.5685C34.2665 17.9443 34.8612 18.6603 35.5563 18.4361Z" fill="#191919"/>
<path d="M37.7536 37.0164C38.3709 37.6055 39.0887 37.9153 39.554 38.7243C38.4564 38.9881 37.821 38.4836 37.2364 37.8582C37.1692 37.5108 37.442 37.3693 37.7536 37.0164Z" fill="#191919"/>
<path d="M30.8411 31.0493L30.0876 30.4467C29.9907 30.0792 30.2741 29.9314 30.4222 29.7048C31.1301 29.8524 31.9495 29.7827 32.2444 30.7014C31.8319 31.1553 31.3031 30.9765 30.8411 31.0493Z" fill="#191919"/>
<path d="M19.9874 38.9859L21.1683 39.0769C21.5879 39.3096 21.6596 39.8718 21.8683 40.3452C21.5006 40.9267 21.0702 40.2576 20.6258 40.4437L19.9874 38.9859Z" fill="#191919"/>
<path d="M37.7877 26.397C38.7744 25.8517 39.2399 26.2588 39.6786 26.9658C38.8024 27.5518 38.3246 27.1164 37.7877 26.397Z" fill="#191919"/>
<path d="M17.6291 44.5995L17.4194 43.7141C18.2925 43.4946 18.2925 43.4946 18.865 43.9103C18.4596 44.5204 18.4596 44.5204 17.6291 44.5995Z" fill="#191919"/>
<path d="M43.2961 21.7974C43.6258 22.0816 43.8702 22.4516 44.0022 22.8663C44.1342 23.281 44.1487 23.7242 44.044 24.1466C43.1753 23.8557 43.4799 22.908 43.043 22.3641C42.8912 22.1729 43.1891 21.9817 43.2961 21.7974Z" fill="#FCDFD9"/>
<path d="M22.5824 45.2183C22.5852 45.9034 23.2989 46.1585 22.89 46.8189C22.2632 46.6847 21.9147 46.239 21.5142 45.8655C21.6221 45.6801 21.6561 45.5366 21.7358 45.5012C21.9898 45.3924 22.2605 45.3225 22.5824 45.2183Z" fill="#191919"/>
<path d="M32.8463 34.4314C33.218 33.822 33.5933 34.0689 33.82 33.9253C34.2768 34.2539 34.0693 34.635 34.2169 35.0357C33.4528 35.1625 33.2797 34.6239 32.8463 34.4314Z" fill="#191919"/>
<path d="M23.2716 33.2111L23.5196 32.901C23.9351 32.8405 24.1167 33.1069 24.2974 33.4661C23.7376 34.1454 23.5679 33.4994 23.2716 33.2111Z" fill="#191919"/>
<path d="M26.9013 28.6248C26.4659 28.5335 26.3082 28.3175 26.1105 28.0805C26.5257 27.3846 26.8085 27.8457 27.0978 28.1358C27.1813 28.3366 27.0295 28.4392 26.9013 28.6248Z" fill="#191919"/>
<path d="M29.9365 21.6051C30.1671 21.8354 30.0151 22.0002 29.8551 22.1659C29.4474 22.2418 29.2593 21.9721 29.0822 21.6726C29.1965 21.5673 29.3428 21.5034 29.4977 21.4912C29.6526 21.4789 29.8071 21.519 29.9365 21.6051V21.6051Z" fill="#191919"/>
<path d="M44.0425 24.1457C44.244 24.2885 44.2481 24.4533 44.0948 24.6335C44.0565 24.607 44.0243 24.5726 44.0006 24.5326C43.9768 24.4925 43.9619 24.4478 43.9569 24.4015C43.952 24.3553 43.9571 24.3084 43.9718 24.2643C43.9866 24.2201 44.0107 24.1797 44.0425 24.1457V24.1457Z" fill="#FCDFD9"/>
<path d="M43.6048 41.6955L43.321 41.8209C43.2951 41.8162 43.2709 41.8046 43.2512 41.7871C43.2315 41.7697 43.217 41.7471 43.2092 41.722C43.2015 41.6968 43.2008 41.67 43.2073 41.6445C43.2138 41.619 43.2272 41.5957 43.246 41.5773C44.0025 40.6864 44.3668 39.5699 44.7381 38.5251C45.352 36.7484 45.8193 34.9244 46.1353 33.0714C46.4205 31.4732 46.633 29.8167 46.5349 28.2111C46.398 26.0459 46.2126 23.8748 45.5274 21.7502C45.0869 20.3846 44.463 19.1037 43.9239 17.7145L44.3489 17.7937C45.2899 18.4967 45.5325 19.6232 45.9378 20.6082C46.8439 22.7709 47.3611 25.0766 47.4656 27.4192C47.5964 30.0975 47.291 32.7792 46.5612 35.3595C46.1077 36.9296 45.3481 38.3613 44.8977 39.9229C44.6846 40.5748 44.0431 41.1062 43.6048 41.6955Z" fill="#EBF3F6"/>
<path d="M28.3705 53.5828C28.3226 53.4913 28.2767 53.3995 28.2254 53.3053C28.2353 53.2239 28.2717 53.148 28.3289 53.0893C28.3861 53.0306 28.4611 52.9924 28.5422 52.9804C29.5059 52.8334 30.4092 52.482 31.2844 52.099C31.6531 51.9387 31.9412 51.7506 32.3285 51.9594C31.5875 52.9893 30.3521 52.9595 29.3161 53.3552C29.0182 53.473 28.6508 53.3518 28.3705 53.5828Z" fill="#EBF3F6"/>
<path d="M20.316 53.297L20.6365 52.8963C21.1292 52.8241 21.4101 53.4507 21.9637 53.3024C22.126 53.2578 22.2465 53.5799 22.0828 53.8052C21.5025 53.5944 20.8249 53.7371 20.316 53.297Z" fill="#EBF3F6"/>
</svg>
