<svg width="313" height="266" viewBox="0 0 313 266" fill="none" xmlns="http://www.w3.org/2000/svg">
<path d="M250.459 95.5686C250.153 95.3954 249.912 95.0924 249.732 94.7875C249.545 94.4709 249.39 94.098 249.278 93.7215C249.165 93.3448 249.09 92.948 249.072 92.5801C249.054 92.2247 249.085 91.8409 249.237 91.5283L249.24 91.522C249.609 90.7866 250.034 90.2442 250.531 89.9099C251.042 89.5658 251.597 89.4648 252.159 89.5598C252.705 89.652 253.238 89.9242 253.747 90.2875C254.259 90.6529 254.773 91.1304 255.285 91.6687L255.523 91.9196L255.392 92.1892C255.271 92.8898 255.114 93.5447 254.899 94.1118C254.678 94.6947 254.386 95.2158 253.982 95.5942C253.565 95.9842 253.046 96.2061 252.429 96.2013C251.829 96.1966 251.174 95.9789 250.459 95.5686ZM250.459 95.5686C250.458 95.5684 250.458 95.5681 250.457 95.5679L250.706 95.1342L250.461 95.5698C250.46 95.5694 250.459 95.569 250.459 95.5686ZM110.829 105.626C113.302 92.9751 115.752 80.4426 123.556 69.7208C123.894 69.4821 124.181 69.1815 124.405 68.8356C126.807 68.6636 128.87 67.7903 130.786 66.7095C131.76 66.1601 132.704 65.5521 133.634 64.9535L133.686 64.9201C134.605 64.3286 135.51 63.7472 136.439 63.2234C136.801 63.1875 137.146 63.0503 137.434 62.8283C143.211 62.8644 148.693 63.8492 153.579 67.0306L158.862 75.1295C158.376 76.9045 157.636 78.5596 156.816 80.2353C156.595 80.6882 156.366 81.1439 156.136 81.604C155.486 82.902 154.818 84.235 154.232 85.6368C152.629 89.4705 151.603 93.883 152.917 100.001L153.22 101.415L153.855 100.115C155.199 97.3639 156.294 94.6778 157.316 92.1362C157.392 91.9467 157.468 91.7581 157.544 91.5704C158.482 89.2338 159.367 87.0318 160.345 84.9991C162.453 80.6162 164.966 77.0861 169.274 74.8445L169.274 74.8444C174.442 72.1506 178.813 71.9464 182.709 73.3158C186.594 74.6815 190.068 77.6336 193.404 81.4128L195.389 94.1927L195.482 94.7876L196.05 94.5876L200.136 93.1481L200.391 93.0582L200.456 92.7956C201.067 90.3005 200.53 88.1299 199.609 86.1277C199.15 85.131 198.593 84.1681 198.033 83.2275C197.939 83.0702 197.846 82.9137 197.753 82.7577C197.295 81.9932 196.846 81.2417 196.441 80.4774C195.324 75.6128 196.328 71.6369 198.719 69.1206C201.119 66.5955 205.011 65.4415 209.859 66.4317C217.795 68.056 223.979 72.356 228.73 78.8197C227.637 79.6025 226.662 79.7684 225.746 79.629C224.687 79.468 223.654 78.8932 222.551 78.1973C222.37 78.0834 222.187 77.966 222.002 77.8472C221.09 77.2615 220.127 76.6431 219.136 76.2583C217.913 75.7832 216.591 75.639 215.17 76.2971L214.816 76.4609L214.888 76.8438C215.269 78.8578 216.24 80.173 217.5 81.1058C218.735 82.0202 220.241 82.5591 221.66 83.0571L221.77 83.0959C223.177 83.5896 224.49 84.0502 225.545 84.7854C226.599 85.5197 227.39 86.5263 227.69 88.1443L227.769 88.5711L228.203 88.5527L234.424 88.2888C233.842 89.6733 233.22 91.1503 232.324 93.2635L231.948 94.1524L232.891 93.9471L237.305 92.9865L244.998 119.432L245.388 120.775L245.938 119.489C246.277 118.696 246.622 118.037 246.935 117.44C247.063 117.197 247.185 116.964 247.299 116.737C247.677 115.984 247.989 115.25 247.941 114.501L247.941 114.499C246.823 97.7148 241.056 82.9096 228.558 71.0962C228.083 70.6468 227.538 70.2214 227.011 69.8107C226.882 69.7101 226.754 69.6103 226.629 69.5113C225.977 68.9967 225.378 68.493 224.918 67.9352C224.463 67.3838 224.16 66.7973 224.077 66.1189C223.998 65.4701 224.116 64.6878 224.574 63.7129C230.834 60.2339 236.178 58.9314 241.096 59.7838C246.049 60.6425 250.669 63.7045 255.419 69.1573C266.669 82.0718 273.769 103.68 275.887 125.841C278.006 148.001 275.13 170.581 266.564 185.424C262.984 191.619 258.697 196.799 251.967 199.48C251.742 199.498 251.517 199.516 251.292 199.534C245.37 200.01 239.632 200.472 234.325 197.448L244.687 175.263L244.703 175.228L244.714 175.192C247.007 167.415 249.3 159.634 251.592 151.847L251.739 151.35L251.237 151.222L248.698 150.572L248.205 150.447L248.087 150.941C246.573 157.293 245.06 163.65 243.549 170.012C243.182 170.777 242.816 171.542 242.45 172.306C236.403 184.942 230.413 197.457 219.2 206.47C215.87 208.074 212.785 208.801 210.001 208.338C207.28 207.886 204.767 206.285 202.547 203.074C202.923 201.966 203.441 200.882 203.996 199.757C204.063 199.62 204.132 199.482 204.201 199.343C204.729 198.277 205.277 197.171 205.732 196.006C206.771 193.351 207.341 190.362 206.23 186.613L205.832 185.269L205.29 186.562C204.812 187.702 204.353 188.796 203.91 189.852C202.039 194.313 200.45 198.101 198.868 201.865C193.708 207.294 188.854 210.203 184.165 210.737C179.497 211.268 174.879 209.458 170.152 205.192L156.89 181.76L156.245 180.622L155.966 181.9C154.843 187.04 156.542 189.949 157.958 192.373C158.332 193.013 158.686 193.62 158.963 194.225C159.321 195.031 159.754 195.842 160.175 196.631C160.341 196.943 160.505 197.25 160.662 197.554C161.229 198.645 161.716 199.693 161.964 200.723C162.209 201.743 162.215 202.729 161.834 203.709C161.455 204.683 160.673 205.702 159.255 206.76C157.046 207.72 154.836 208.683 152.624 209.649L147.558 210.282C147.14 210.152 146.7 210.107 146.264 210.15C131.762 207.711 124.889 197.23 119.958 184.742C119.505 183.597 119.05 182.452 118.596 181.309C114.227 170.319 109.873 159.37 108.212 147.591L107.218 147.64C106.799 157.481 108.897 166.635 111.917 175.419C113.815 180.94 116.09 186.348 118.336 191.686C119.631 194.763 120.916 197.817 122.113 200.856C121.709 202.209 121.107 203.06 120.41 203.628C119.68 204.223 118.805 204.54 117.836 204.757C117.352 204.865 116.854 204.947 116.342 205.028L116.224 205.047C115.755 205.121 115.274 205.197 114.806 205.294C113.862 205.49 112.915 205.78 112.095 206.363C94.4996 202.994 84.53 191.072 80.7175 174.857C73.6952 144.914 75.0335 114.606 81.3478 84.629C83.7346 73.3081 90.4589 64.2613 100.527 58.0135L112.966 55.4269C113.492 55.5743 114.028 55.8461 114.61 56.1605C114.684 56.2008 114.76 56.2419 114.836 56.2834C115.374 56.5765 115.952 56.8912 116.538 57.1036C117.218 57.3503 117.958 57.4798 118.736 57.2788C119.424 57.101 120.088 56.6792 120.737 55.9604L128.142 59.4302C128.17 60.1681 127.979 60.695 127.68 61.1145C127.332 61.6042 126.81 61.9855 126.183 62.3686C126.012 62.4733 125.829 62.5799 125.64 62.6896C125.174 62.9616 124.675 63.252 124.243 63.5766C123.647 64.0248 123.106 64.5855 122.812 65.3715L120.314 67.7895C113.925 73.7852 111.184 80.748 109.976 88.0815C109.101 93.3923 109.028 98.9346 108.956 104.438C108.929 106.499 108.902 108.555 108.833 110.591L109.822 110.708C110.167 109.014 110.498 107.319 110.829 105.626ZM87.0038 105.362L87.809 105.113L87.2048 104.526C86.3973 103.74 85.6569 103.116 84.9758 102.679C84.2994 102.245 83.6424 101.972 83.009 101.946C82.3495 101.919 81.7709 102.163 81.2857 102.65C80.8171 103.12 80.4416 103.809 80.1256 104.68C79.9979 105.027 80.0853 105.395 80.1592 105.675C80.1848 105.773 80.2124 105.87 80.2412 105.972C80.3094 106.214 80.384 106.478 80.4533 106.812L80.565 107.35L81.0904 107.188L87.0038 105.362Z" fill="#FF7E60" stroke="white"/>
<path d="M159.848 62.7031C160.504 61.331 160.941 59.8091 160.356 58.0006C160.735 56.5662 161.106 55.1246 161.477 53.6865C161.587 53.259 161.698 52.8318 161.808 52.4052C163.639 46.6967 163.774 40.8734 162.889 35.0335C162.42 31.8086 162.823 29.4293 164.024 28.0946C165.19 26.7999 167.278 26.317 170.644 27.3062C173.694 28.2037 176.648 27.9694 179.545 27.6217C179.914 27.5775 180.281 27.5314 180.648 27.4855C183.115 27.1768 185.545 26.8725 188.068 27.1379C191.269 31.8001 189.999 36.301 188.319 40.9994C188.193 41.3513 188.064 41.7046 187.935 42.0594C186.361 46.388 184.71 50.9305 186.768 55.5622C186.565 56.9845 186.742 58.1907 187.181 59.2499C187.633 60.339 188.351 61.2455 189.159 62.0588C189.794 62.6972 190.505 63.2966 191.199 63.8819C191.382 64.0368 191.565 64.1906 191.744 64.344C192.506 64.9946 193.227 65.6443 193.834 66.3583C192.924 67.459 192.051 68.4845 191.144 69.5502C190.57 70.2249 189.982 70.9158 189.362 71.652C179.86 65.7521 170.829 69.0039 162.28 72.9294L157.951 66.5098C158.148 65.9203 158.432 65.3438 158.752 64.7506C158.858 64.5547 158.969 64.3546 159.082 64.1516C159.344 63.6796 159.614 63.1917 159.848 62.7031Z" fill="#ACD8AA" stroke="white"/>
<path d="M192.693 52.2241C193.157 52.2066 193.73 52.3589 194.456 52.8557C192.87 54.154 191.281 55.4462 189.691 56.739L189.687 56.7418L189.289 57.0655L189.623 57.455C190.723 58.7395 192.882 59.7874 195.452 60.6014C198.05 61.424 201.163 62.0367 204.274 62.395C207.384 62.7534 210.509 62.8595 213.131 62.661C214.442 62.5617 215.637 62.3856 216.647 62.1221C217.51 61.897 218.267 61.6009 218.845 61.2131L223.552 63.5957C223.136 64.5786 223.001 65.4553 223.098 66.2532C223.21 67.1717 223.621 67.9314 224.16 68.585C224.694 69.2323 225.367 69.7924 226.023 70.31C226.16 70.4178 226.295 70.5234 226.429 70.6277C226.952 71.0355 227.448 71.4228 227.884 71.8357L227.884 71.8358C240.16 83.4629 245.852 97.9985 246.957 114.58L246.957 114.58L246.958 114.587C246.995 115.038 246.814 115.541 246.432 116.296C246.332 116.494 246.219 116.708 246.097 116.937C245.942 117.229 245.774 117.547 245.601 117.891L238.149 92.2727L238.134 92.2225L238.109 92.1764L235.636 87.557L235.517 87.3352L235.373 87.3139L229.878 78.675L229.871 78.6633L229.863 78.6521C224.945 71.7899 218.464 67.1893 210.096 65.4764C204.979 64.4267 200.701 65.6088 198.01 68.4408C195.404 71.1824 194.375 75.3761 195.411 80.3121L194.09 80.6458C190.731 76.8687 187.147 73.8124 183.065 72.3776C178.874 70.9044 174.221 71.1618 168.853 73.9711C164.273 76.3546 161.637 80.1045 159.485 84.5789C158.492 86.6431 157.595 88.8754 156.66 91.2041C156.584 91.3942 156.507 91.585 156.43 91.7764C155.582 93.8843 154.692 96.0714 153.656 98.3061C152.849 93.1996 153.786 89.4073 155.193 86.0421C155.765 84.6754 156.409 83.3878 157.055 82.0989C157.289 81.6325 157.522 81.1659 157.753 80.6953C158.613 78.9366 159.416 77.142 159.928 75.1828L159.984 74.9686L159.863 74.7833L154.572 66.6725L155.01 65.9456L157.072 66.9829L161.7 73.8462L161.938 74.1995L162.325 74.0204C171.094 69.9575 179.903 66.7324 189.203 72.7336L189.573 72.9717L189.856 72.6365C191.671 70.4919 193.174 68.7091 194.874 66.6872L195.135 66.377L194.885 66.0576C194.165 65.135 193.283 64.3371 192.407 63.5863C192.217 63.4239 192.029 63.264 191.841 63.1056C191.152 62.5219 190.485 61.9572 189.884 61.3512C189.126 60.5865 188.504 59.7856 188.12 58.8623C187.768 58.0143 187.606 57.0403 187.75 55.8621C188.405 55.5841 188.96 55.1024 189.449 54.6172C189.668 54.3994 189.87 54.1858 190.066 53.979C190.405 53.6215 190.724 53.2845 191.078 52.9819C191.615 52.5234 192.127 52.2454 192.693 52.2241Z" fill="#F3D9AF" stroke="white"/>
<path d="M118.994 185.121C122.722 194.56 127.629 203.061 136.196 207.787C130.229 206.14 124.132 205.415 117.882 205.775C117.928 205.765 117.975 205.755 118.022 205.744C119.06 205.512 120.107 205.15 121.009 204.414C121.918 203.673 122.64 202.587 123.09 200.977L123.135 200.816L123.074 200.66C121.835 197.509 120.514 194.372 119.188 191.225C116.957 185.927 114.712 180.598 112.825 175.114C110.439 168.176 108.647 161.045 108.225 153.541C110.292 163.161 113.914 172.295 117.503 181.348C118.002 182.607 118.501 183.864 118.994 185.12L118.994 185.121Z" fill="#F3D9AF" stroke="white"/>
<path d="M216.684 57.2425L218.154 60.4638C217.718 60.7306 217.123 60.9663 216.378 61.1609C215.443 61.405 214.31 61.5749 213.038 61.6718C210.493 61.8658 207.432 61.7654 204.369 61.4135C201.305 61.0616 198.256 60.4603 195.735 59.6607C193.483 58.9468 191.725 58.0969 190.724 57.1787C191.699 56.3827 192.672 55.5901 193.643 54.799C194.26 54.2962 194.877 53.794 195.492 53.292L197.197 53.1208L197.275 53.1129L197.347 53.0816L197.663 52.9437C204.675 51.2708 210.877 53.2319 216.684 57.2425Z" fill="#FF7E60" stroke="white"/>
<path d="M143.959 58.4272C142.097 57.9844 140.141 57.9927 138.164 58.9799C137.965 58.0154 138.088 57.1591 138.444 56.4004C138.878 55.4792 139.675 54.6627 140.751 53.976C142.91 52.5985 146.083 51.8138 149.203 51.7418C152.334 51.6696 155.29 52.317 157.058 53.6747C157.929 54.3438 158.499 55.1736 158.688 56.1735C158.877 57.1772 158.695 58.4165 157.939 59.9222C157.395 60.9082 156.825 61.532 156.246 61.9078C155.672 62.2808 155.06 62.4295 154.396 62.4165C153.024 62.3896 151.465 61.6809 149.67 60.7922C149.515 60.7152 149.358 60.637 149.199 60.5581C147.574 59.7485 145.798 58.8641 143.959 58.4272Z" fill="#FF7E60" stroke="white"/>
<path d="M243.601 172.231L243.727 174.97C240.281 182.358 236.832 189.742 233.38 197.123C230.314 197.531 228.484 199.815 226.804 201.912C226.687 202.057 226.572 202.201 226.457 202.344C224.868 204.311 223.326 206.031 220.908 206.386C231.606 197.304 237.488 185.009 243.316 172.826C243.411 172.628 243.506 172.429 243.601 172.231Z" fill="#F3D9AF" stroke="white"/>
<path d="M158.688 191.696C157.448 189.551 156.153 187.311 156.651 183.466L168.354 204.143C167.831 203.997 167.32 204.002 166.818 204.128C165.855 204.369 164.996 205.045 164.237 205.656C164.192 205.692 164.148 205.728 164.103 205.764C163.358 206.366 162.694 206.902 161.998 207.164C161.644 207.297 161.298 207.352 160.942 207.307C160.753 207.283 160.553 207.229 160.34 207.137C161.544 206.138 162.304 205.12 162.713 204.074C163.188 202.861 163.168 201.66 162.889 200.495C162.613 199.339 162.077 198.201 161.504 197.098C161.33 196.763 161.154 196.433 160.979 196.106C160.567 195.336 160.163 194.582 159.82 193.815L159.82 193.815C159.491 193.084 159.093 192.395 158.688 191.696Z" fill="#F3D9AF" stroke="white"/>
<path d="M242.434 202.567C240.105 202.447 237.853 201.48 235.715 199.271C240.275 201.205 245.076 201.036 249.796 200.675C247.222 201.963 244.76 202.686 242.434 202.567Z" fill="#F3D9AF" stroke="white"/>
<path d="M201.676 202.537L199.953 201.864C201.159 198.997 202.37 196.111 203.703 192.935C204.31 191.488 204.943 189.981 205.612 188.388C206.137 191.19 205.635 193.521 204.793 195.673C204.354 196.795 203.825 197.863 203.294 198.935C203.225 199.074 203.156 199.213 203.087 199.352C202.572 200.396 202.067 201.45 201.676 202.537Z" fill="#F3D9AF" stroke="white"/>
<path d="M120.73 68.745L122.421 69.5467C114.823 80.2169 112.335 92.5982 109.926 104.91C109.928 104.737 109.931 104.565 109.933 104.393C110.006 98.9105 110.078 93.4774 110.942 88.2411C112.11 81.1573 114.721 74.5016 120.73 68.745Z" fill="#F3D9AF" stroke="white"/>
<path d="M225.615 80.6476C226.804 80.8286 228.03 80.5878 229.311 79.678L234.17 87.3179L228.579 87.5551C228.169 85.892 227.264 84.7871 226.112 83.987C224.944 83.1752 223.517 82.6767 222.158 82.2017C222.1 82.1815 222.042 82.1613 221.984 82.1411C220.543 81.6368 219.182 81.142 218.088 80.3309C217.102 79.5998 216.327 78.6051 215.954 77.0762C216.933 76.7371 217.853 76.8542 218.785 77.216C219.676 77.5623 220.538 78.1151 221.452 78.7004C221.643 78.8234 221.837 78.9477 222.034 79.0719C223.137 79.7668 224.328 80.4517 225.615 80.6476Z" fill="#FF7E60" stroke="white"/>
<path d="M246.772 160.776L248.929 151.709L250.473 152.104C248.514 158.762 246.554 165.417 244.595 172.069L244.512 170.269L246.772 160.776Z" fill="#F3D9AF" stroke="white"/>
<path d="M128.475 61.6944C128.772 61.2772 128.98 60.7969 129.072 60.2335C130.665 61.6488 132.453 62.7743 134.629 63.1228C134.118 63.44 133.613 63.7648 133.113 64.0869L133.104 64.0927C132.156 64.704 131.223 65.3052 130.264 65.8451C128.452 66.8658 126.579 67.6494 124.438 67.8284L123.751 65.6637C123.96 65.1479 124.334 64.745 124.824 64.3759C125.208 64.0871 125.624 63.8444 126.069 63.5854C126.269 63.4691 126.474 63.3496 126.684 63.2211C127.333 62.8249 128.003 62.3572 128.475 61.6944Z" fill="#F3D9AF" stroke="white"/>
<path d="M137.857 61.8279L138.27 60.1037C141.399 59.0264 144.198 59.3379 146.887 60.271C148.97 60.9934 150.955 62.0736 152.982 63.1769C153.545 63.4835 154.112 63.7918 154.685 64.0948L154.306 65.0494L153.753 65.9658C148.865 62.899 143.451 61.9098 137.857 61.8279Z" fill="#F3D9AF" stroke="white"/>
<path d="M196.288 93.4387L194.448 81.5485L195.715 81.2283C196.092 81.9194 196.499 82.6008 196.901 83.2721C196.993 83.4265 197.085 83.5803 197.177 83.7336C197.735 84.6718 198.269 85.5955 198.703 86.5401C199.534 88.3457 199.989 90.198 199.547 92.2909L196.288 93.4387Z" fill="#F3D9AF" stroke="white"/>
<path d="M250.122 91.996L250.122 91.996L250.124 91.9903C250.446 91.3406 250.77 90.9628 251.07 90.7606C251.356 90.5685 251.648 90.5153 251.971 90.5711C252.312 90.6298 252.705 90.8132 253.15 91.13C253.539 91.4067 253.948 91.7702 254.374 92.2008C254.265 92.7914 254.131 93.3163 253.964 93.7581C253.772 94.2643 253.548 94.6313 253.296 94.8675C253.057 95.0922 252.78 95.2113 252.429 95.2108C252.06 95.2103 251.574 95.0775 250.941 94.7209C250.857 94.6735 250.725 94.5438 250.579 94.2982C250.439 94.0638 250.313 93.7681 250.218 93.4536C250.124 93.1391 250.066 92.8227 250.053 92.5499C250.039 92.2643 250.077 92.0826 250.122 91.996Z" fill="#FF7E60" stroke="white"/>
<path d="M233.613 92.7778C234.266 91.2511 234.765 90.0676 235.225 88.9608L236.887 92.0651L233.613 92.7778Z" fill="#FF7E60" stroke="white"/>
<path d="M115.058 55.2891C114.878 55.1932 114.693 55.0963 114.505 55.0031C116.317 54.5891 118.071 54.6727 119.775 55.5095C119.3 55.9814 118.863 56.2182 118.463 56.3196C117.95 56.4497 117.427 56.3751 116.856 56.168C116.355 55.9863 115.858 55.7189 115.321 55.4304C115.234 55.3838 115.147 55.3366 115.058 55.2891Z" fill="#FF7E60" stroke="white"/>
<path d="M123.121 68.7688L121.509 67.9876L122.992 66.5638L123.54 68.288C123.424 68.4675 123.283 68.6294 123.121 68.7688Z" fill="#F3F7F1" stroke="white"/>
<path d="M158.8 60.4285L159.61 59.1879C159.742 60.2894 159.434 61.2787 158.957 62.2774C158.737 62.7377 158.49 63.1814 158.236 63.6403C158.119 63.8498 158.002 64.0624 157.883 64.2811C157.606 64.795 157.336 65.3304 157.123 65.8923L155.389 65.0295L155.72 64.197L155.78 64.159L155.832 64.0957C156.815 62.8886 157.795 61.6796 158.77 60.4689L158.786 60.4494L158.8 60.4285Z" fill="#F8EDDA" stroke="white"/>
<mask id="path-22-inside-1_245_94" fill="white">
<path d="M158.381 60.155C157.406 61.3651 156.427 62.5733 155.444 63.7798C156.427 62.5733 157.406 61.3651 158.381 60.155Z"/>
</mask>
<path d="M158.381 60.155C157.406 61.3651 156.427 62.5733 155.444 63.7798C156.427 62.5733 157.406 61.3651 158.381 60.155Z" fill="#ACD8AA"/>
<path d="M157.603 59.5275C156.628 60.7362 155.65 61.9431 154.669 63.1483L156.22 64.4113C157.203 63.2035 158.183 61.9939 159.16 60.7825L157.603 59.5275ZM156.22 64.4113C157.203 63.2035 158.183 61.9939 159.16 60.7825L157.603 59.5275C156.628 60.7362 155.65 61.9431 154.669 63.1483L156.22 64.4113Z" fill="white" mask="url(#path-22-inside-1_245_94)"/>
<path d="M54.0547 107.493L53.8704 107.765C52.0307 110.479 51.1769 113.561 50.7482 116.836C50.4426 119.17 50.3583 121.532 50.2734 123.912C50.2379 124.905 50.2024 125.901 50.1506 126.9C49.4398 141.164 52.2424 154.974 59.4561 167.534C60.4744 169.302 61.4075 171.059 62.332 172.799C64.1087 176.143 65.8536 179.428 68.1097 182.619L68.11 182.619C73.989 190.944 81.8546 196.671 89.8353 202.482C92.1254 204.149 94.4251 205.823 96.69 207.568L54.0547 107.493ZM54.0547 107.493L54.0419 107.165M54.0547 107.493L54.0419 107.165M54.0419 107.165C53.8795 103.025 52.5818 99.6393 51.1968 96.5535C50.9243 95.9463 50.6507 95.3548 50.3819 94.7736C49.265 92.3586 48.2302 90.1212 47.6942 87.6742C46.5023 82.2046 47.7862 76.985 49.08 71.725C49.1576 71.4097 49.2352 71.0943 49.3123 70.7787L49.3125 70.7778M54.0419 107.165L49.3125 70.7778M49.3125 70.7778C50.7088 65.0392 55.9466 62.7822 62.2524 61.7045C63.8111 62.8213 65.4654 63.8247 67.0917 64.8111C67.8565 65.275 68.6152 65.7351 69.3548 66.2016C71.8209 67.7567 74.1756 69.4371 76.2319 71.7193L76.2327 71.7202M49.3125 70.7778L76.2327 71.7202M76.2327 71.7202C77.9568 73.6294 80.3318 75.6281 83.1345 76.5204C85.8982 77.4003 89.0047 77.1767 92.1427 74.911C94.1441 75.2559 96.1345 75.5472 98.1099 75.8362C102.705 76.5087 107.218 77.1692 111.597 78.464L111.598 78.4643M76.2327 71.7202L111.598 78.4643M111.598 78.4643C118.893 80.6115 125.624 83.9649 132.231 87.7056C134.952 89.2463 137.678 90.8684 140.416 92.4973C144.265 94.7882 148.137 97.0925 152.05 99.2018L152.05 99.2019M111.598 78.4643L152.05 99.2019M152.05 99.2019C155.003 100.793 156.908 103.525 158.722 106.125C158.838 106.291 158.953 106.456 159.068 106.621L159.069 106.622M152.05 99.2019L159.069 106.622M159.069 106.622C159.57 107.335 160.344 107.895 161.016 108.357C161.157 108.454 161.296 108.548 161.431 108.639C161.994 109.021 162.505 109.366 162.942 109.76C163.47 110.235 163.77 110.677 163.864 111.153C163.956 111.616 163.888 112.293 163.293 113.312L162.78 114.191M159.069 106.622L162.78 114.191M162.78 114.191L163.667 114.688M162.78 114.191L163.667 114.688M163.667 114.688C165.587 115.764 166.947 117.318 168.178 119.114C168.72 119.905 169.226 120.726 169.748 121.573C169.822 121.692 169.896 121.812 169.97 121.933C170.566 122.898 171.187 123.887 171.88 124.834L171.88 124.834M163.667 114.688L171.88 124.834M171.88 124.834C177.421 132.401 181.728 140.374 183.017 149.519L183.017 149.521M171.88 124.834L183.017 149.521M183.017 149.521C183.825 155.181 184.131 160.906 184.438 166.665C184.55 168.755 184.662 170.85 184.798 172.948C184.748 173.753 184.513 174.537 184.11 175.237L184.091 175.27M183.017 149.521L184.091 175.27M184.091 175.27L184.074 175.305M184.091 175.27L184.074 175.305M184.074 175.305C182.382 178.849 181.422 182.554 180.701 186.252C180.355 188.028 180.062 189.814 179.773 191.581L179.737 191.798C179.435 193.641 179.135 195.463 178.774 197.264L178.774 197.264M184.074 175.305L178.774 197.264M178.774 197.264C178.254 199.874 178.83 202.367 179.54 204.559C179.759 205.237 180.005 205.923 180.237 206.574C180.375 206.957 180.508 207.328 180.628 207.678C180.965 208.657 181.228 209.53 181.35 210.322L181.355 210.354M178.774 197.264L181.355 210.354M181.355 210.354L181.362 210.385M181.355 210.354L181.362 210.385M181.362 210.385C181.75 212.158 181.354 213.368 180.767 214.524C180.615 214.824 180.451 215.118 180.278 215.427L180.254 215.469C180.091 215.759 179.919 216.066 179.758 216.378C179.42 217.037 179.105 217.773 178.965 218.622L178.964 218.626M181.362 210.385L178.964 218.626M178.964 218.626C178.329 222.596 176.096 225.498 173.152 227.006C170.204 228.516 166.472 228.664 162.782 226.969C152.17 222.089 141.072 219.604 129.602 218.075L129.601 218.075M178.964 218.626L129.601 218.075M129.601 218.075C117.864 216.523 105.933 214.683 96.6902 207.568L129.601 218.075ZM98.3776 96.8737L97.8064 97.0656L97.709 97.6599C97.2129 100.684 97.8993 102.861 99.3364 104.402C100.718 105.884 102.677 106.645 104.449 107.146L104.461 107.149L104.473 107.153C105.892 107.515 107.396 107.313 108.668 106.587C109.934 105.865 110.87 104.681 111.282 103.283C111.938 101.311 111.848 99.5673 110.909 98.0404C110.006 96.5723 108.405 95.4537 106.385 94.4831L106.018 94.3071L105.633 94.4366L98.3776 96.8737ZM124.453 109.688L124.032 110.417L124.679 110.956C125.19 111.381 125.597 111.977 126.007 112.724C126.143 112.971 126.292 113.259 126.447 113.563C126.713 114.08 127.001 114.64 127.287 115.111C127.777 115.916 128.407 116.729 129.332 117.288C130.278 117.859 131.433 118.105 132.867 117.955L133.149 117.925L133.374 117.751C135.081 116.433 136.002 114.804 136.109 113.081C136.216 111.374 135.514 109.734 134.295 108.393L134.293 108.391C133.615 107.648 132.651 106.701 131.457 106.066C130.238 105.419 128.739 105.078 127.082 105.636L126.724 105.756L126.535 106.083L124.453 109.688ZM98.1803 84.7254L97.828 85.268L98.1786 85.8115C99.5335 87.9117 100.902 90.0396 102.199 92.066L102.552 92.6176L103.199 92.5144C103.602 92.4502 103.992 92.405 104.396 92.3581C104.538 92.3416 104.683 92.3248 104.83 92.307C105.375 92.2409 105.948 92.1607 106.501 92.0171C107.648 91.7193 108.741 91.1381 109.524 89.8482L109.751 89.475L109.631 89.0553C108.861 86.354 107.697 84.1364 106.239 82.6785C104.765 81.2031 102.923 80.4578 100.953 80.9489L100.57 81.0443L100.356 81.3748L98.1803 84.7254ZM124.373 114.691L124.842 113.878L123.465 113.611C121.298 113.191 119.269 113.236 117.668 114.196C116.024 115.182 115.079 116.978 114.756 119.483L114.686 120.022L115.101 120.374L115.189 120.448C117.08 122.048 119.09 123.75 121.874 123.895L122.169 123.91L122.425 123.763C123.451 123.172 124.207 122.488 124.708 121.694C125.212 120.894 125.419 120.044 125.436 119.187C125.465 117.704 124.913 116.134 124.373 114.691Z" fill="#FDE773" stroke="white" stroke-width="2"/>
<path d="M98.696 97.8216L105.951 95.3844C109.864 97.2628 111.514 99.4434 110.327 102.985C109.991 104.141 109.218 105.122 108.172 105.719C107.126 106.316 105.888 106.483 104.721 106.184C101.258 105.205 97.793 103.365 98.696 97.8216Z" fill="#FDCB44"/>
<path d="M125.315 110.195L127.397 106.591C130.065 105.692 132.24 107.637 133.55 109.072C135.707 111.446 135.808 114.612 132.762 116.96C127.735 117.496 127.934 112.375 125.315 110.195Z" fill="#FDCB44"/>
<path d="M99.0149 85.2769L101.19 81.9264C104.273 81.1577 107.182 84.1349 108.665 89.3369C107.438 91.3566 105.316 91.1711 103.037 91.5345C101.739 89.5068 100.385 87.3865 99.0149 85.2769Z" fill="#FDCB44"/>
<path d="M123.27 114.6C124.487 117.84 125.61 120.776 121.922 122.904C119.465 122.815 117.711 121.283 115.743 119.618C116.345 114.96 119.118 113.793 123.27 114.6Z" fill="#FDCB44"/>
</svg>
