<svg width="225" height="113" viewBox="0 0 225 113" fill="none" xmlns="http://www.w3.org/2000/svg">
<g clip-path="url(#clip0_125_183)">
<path d="M82.4139 78.7003C80.0587 86.1382 75.9251 88.7577 69.5187 86.8785L58.107 78.9914C58.8805 82.2057 60.8427 82.7878 62.1677 83.8824C64.0697 85.4896 66.9384 86.5621 65.1601 89.9567C64.3401 90.9122 63.5202 91.8697 62.7002 92.8294L60.4211 94.31C60.2029 94.3341 59.9934 94.4089 59.8093 94.5283C52.4107 96.7113 46.7841 93.3229 41.6806 88.628C36.7514 84.0912 31.6732 79.6684 27.8915 74.0338C31.8792 83.2434 39.8769 88.9823 46.6985 95.2781C47.2786 98.4861 44.1214 98.6063 43.2402 100.419C34.1901 102.893 26.7757 99.5618 21.3076 92.8262C11.3256 80.5163 5.14107 66.1625 1.33718 50.8565C-0.117808 44.9974 0.988495 39.2204 4.29471 34.0098L9.54725 29.9603C10.8501 29.685 12.6601 30.631 13.1673 28.4512L17.7129 28.3911C18.797 30.1438 16.4925 31.0834 16.6954 32.6241L16.0614 34.361C12.8915 42.6404 17.2026 49.4613 20.3376 56.5354C18.4769 49.2588 16.1121 42.0393 17.5069 34.3483C17.6262 34.1455 17.6927 33.9159 17.7002 33.6808C19.8748 32.4912 20.7529 30.2387 22.0716 28.3499C22.2348 28.2643 22.3602 28.1211 22.4234 27.9481C25.1685 26.6257 28.0183 25.8095 31.109 26.2144L35.5088 28.8625C36.2981 32.8329 34.4278 36.7306 38.3046 41.7008C38.3237 35.4461 36.7482 30.536 39.8199 26.4043C43.4621 21.4973 47.9602 21.9308 52.8165 23.9777L56.6394 29.5047L58.2053 27.9228C57.6855 25.4931 55.4475 24.5756 53.6629 23.2595C50.3376 19.1467 51.7799 14.61 56.8328 13.3192C61.0139 12.253 64.9731 12.9142 68.7326 14.958C67.2427 18.2166 63.5751 14.8821 61.7588 17.103C64.1045 20.2667 68.0257 16.4955 70.2066 19.4599L73.3194 17.7832L73.3797 17.7642C73.4272 18.6564 73.4748 19.5485 73.5445 20.9279L75.5574 19.346L85.1971 30.0299C85.1369 28.7644 85.3429 27.926 85.0386 27.3882C80.7878 19.9219 74.8537 14.417 66.5041 11.7785C64.9699 11.2912 62.8112 11.4621 62.8302 8.93112C67.1223 2.77456 71.7694 1.43949 78.6607 4.37857C94.9826 11.3387 111.289 38.1859 110.011 55.9058C109.742 59.6105 108.908 63.0463 106.321 65.862C103.541 67.4945 100.793 69.2155 97.3537 68.9181L97.2966 68.8675C97.2353 64.6092 97.174 60.3519 97.1128 56.0956C96.4302 51.9849 95.7465 47.8721 95.0618 43.7572L93.7432 44.0261C94.468 47.3121 95.195 50.6003 95.924 53.8905C95.9494 61.534 96.203 69.2092 92.8017 76.375C90.3989 79.4185 87.565 80.6998 83.8879 78.5611C83.517 75.9384 84.5599 72.9993 81.9511 70.1362C82.1318 73.4707 82.2744 76.0934 82.4139 78.7003ZM83.4505 15.2965C82.0557 14.7713 80.9938 14.7555 80.9716 16.3469C80.9716 16.8088 81.7419 17.6566 82.2015 17.6851C83.7928 17.7958 83.8657 16.7297 83.4505 15.3092V15.2965ZM8.66918 58.9271C6.50413 58.209 5.57851 58.4874 5.7687 60.316C5.78772 60.5122 6.03181 60.6893 6.34563 61.0974L8.66918 58.9271Z" fill="#FF7E60"/>
<path d="M31.296 17.8971C30.8712 14.8916 29.6477 12.2024 27.9454 9.72205C26.0435 6.91585 26.3351 4.619 29.9678 4.01157C33.0775 3.49273 35.065 1.03453 38.0479 0C43.5223 3.00235 39.7913 10.0954 44.0137 13.5691C44.8537 16.3627 47.713 15.9704 49.7734 16.9828C49.4564 18.2989 49.1394 19.46 48.7876 20.8583C43.0025 20.1496 39.5726 23.7278 36.4249 27.5717L32.6908 25.4014C32.4372 23.8828 33.2265 22.1807 31.8666 20.8646L31.9015 20.9279C31.7049 19.9187 31.4989 18.9063 31.296 17.8971Z" fill="#ACD8AA"/>
<path d="M32.6971 25.4014L36.4312 27.5717C39.5726 23.7278 43.0024 20.1496 48.7938 20.8583C49.152 19.46 49.4469 18.2989 49.7797 16.9828C47.7193 15.9704 44.86 16.35 44.02 13.5691C45.0724 12.5884 44.4701 9.91821 47.1074 10.5541C46.6193 11.6108 46.1279 12.6643 45.6366 13.7178C48.5371 14.9833 58.5445 11.3798 59.7268 8.88052L62.8397 8.9343C62.8207 11.4653 64.9794 11.2944 66.5136 11.7816C74.8631 14.4297 80.7972 19.925 85.0481 27.3913C85.365 27.9292 85.1463 28.7549 85.2065 30.0331L75.5669 19.3492L73.3892 17.7674L73.3289 17.7863L68.7548 14.9612C64.9952 12.9174 61.036 12.2562 56.8549 13.3224C51.7831 14.6131 50.3439 19.1436 53.685 23.2627L52.8386 23.9746C47.9696 21.9276 43.4715 21.4942 39.842 26.4011C36.7704 30.5329 38.3458 35.443 38.3268 41.6976C34.45 36.7275 36.3202 32.8392 35.5309 28.8593L31.1311 26.2113L31.2072 25.3792L32.6971 25.4014Z" fill="#F3D9AF"/>
<path d="M43.2274 100.432C44.1086 98.6189 47.2658 98.4987 46.6858 95.2907C39.8641 88.9949 31.8664 83.2687 27.8787 74.0465C31.6604 79.681 36.7544 84.1039 41.6678 88.6406C46.7713 93.3356 52.3979 96.7239 59.7965 94.5409C59.6919 94.7624 59.5936 95.1737 59.4795 95.1737C53.5644 95.4046 48.0995 96.9991 43.2274 100.432Z" fill="#F3D9AF"/>
<path d="M59.7204 8.88685C58.538 11.3862 48.5306 14.9991 45.6301 13.7241C46.1215 12.6643 46.6128 11.6108 47.101 10.5604V10.5415L47.9283 10.0321L48.0583 9.88024C51.019 7.44735 54.4362 6.96648 58.1006 7.54544L59.7204 8.88685Z" fill="#FF7E60"/>
<path d="M22.1158 26.6099C18.1407 22.4971 31.8093 14.9485 31.7016 22.2061C31.4511 27.0813 24.788 22.5414 22.1158 26.6099Z" fill="#FF7E60"/>
<path d="M97.1158 56.1051C97.1792 60.3634 97.2404 64.6207 97.2996 68.877C94.4689 70.5885 96.1933 75.0177 92.8047 76.3971C96.206 69.2313 95.9524 61.5562 95.927 53.9127L97.1158 56.1051Z" fill="#F3D9AF"/>
<path d="M65.1346 89.9694C66.9129 86.5748 64.0568 85.5023 62.1422 83.8951C60.8172 82.7846 58.855 82.2183 58.0815 79.004L69.4932 86.8911C66.7703 86.0907 67.642 90.406 65.1346 89.9694Z" fill="#F3D9AF"/>
<path d="M97.3567 68.9276C100.796 69.225 103.544 67.5039 106.324 65.8715C104.124 69.2092 101.433 71.0884 97.3567 68.9276Z" fill="#F3D9AF"/>
<path d="M82.4137 78.7003C82.2742 76.0807 82.1316 73.458 81.9541 70.1583C84.5629 73.0056 83.52 75.9605 83.8909 78.5832L82.4137 78.7003Z" fill="#F3D9AF"/>
<path d="M17.4941 34.3515C16.0993 42.0424 18.4641 49.2462 20.3248 56.5385C17.1898 49.4645 12.8851 42.6435 16.0486 34.3641L17.4941 34.3515Z" fill="#F3D9AF"/>
<path d="M68.7485 14.9675L73.3226 17.7927L70.2098 19.4694C68.0289 16.5051 64.1077 20.2888 61.762 17.1125C63.591 14.8915 67.2586 18.2261 68.7485 14.9675Z" fill="#FF7E60"/>
<path d="M97.116 56.1051L95.9272 53.9127C95.2003 50.6245 94.4733 47.3364 93.7463 44.0482L95.065 43.7793C95.7497 47.89 96.4334 51.9986 97.116 56.1051Z" fill="#F3D9AF"/>
<path d="M17.7034 28.3974C19.1583 28.8878 20.6133 29.0997 22.0588 28.3563C20.7401 30.2545 19.862 32.4975 17.6875 33.6871L16.6858 32.6304C16.483 31.0865 18.7875 30.1469 17.7034 28.3974Z" fill="#F3D9AF"/>
<path d="M22.116 26.6099C24.6741 23.9619 27.9454 24.5156 31.1153 24.6073L31.1724 25.3856L31.0963 26.2176C28.0056 25.8127 25.1559 26.6289 22.4107 27.9513L22.116 26.6099Z" fill="#F3D9AF"/>
<path d="M52.8164 23.9682L53.6628 23.2564C55.4474 24.5725 57.6854 25.4899 58.2052 27.9197L56.6393 29.5015L52.8164 23.9682Z" fill="#F3D9AF"/>
<path d="M83.4504 15.3091C83.8657 16.7297 83.7927 17.7958 82.2014 17.6978C81.7418 17.6693 80.962 16.8214 80.9715 16.3595C80.9842 14.7681 82.0557 14.7935 83.4504 15.3091Z" fill="#FF7E60"/>
<path d="M8.66911 58.9271L6.34556 61.0974C6.02857 60.6893 5.78765 60.5122 5.76863 60.316C5.57844 58.4874 6.49138 58.209 8.66911 58.9271Z" fill="#FF7E60"/>
<path d="M73.3765 17.7737L75.5542 19.3556L73.5413 20.9374C73.4779 19.558 73.4304 18.6659 73.3765 17.7737Z" fill="#FF7E60"/>
<path d="M9.5376 29.9793C10.5329 28.9732 11.69 28.3499 13.1576 28.4702C12.6505 30.6341 10.8404 29.6882 9.5376 29.9793Z" fill="#FF7E60"/>
<path d="M16.6857 32.6273L17.6874 33.6839C17.6798 33.9191 17.6134 34.1486 17.494 34.3515H16.0486L16.6857 32.6273Z" fill="#F3F7F1"/>
<path d="M31.1723 25.3855L31.1152 24.6073L31.1564 24.5409C31.3403 23.7626 31.522 22.9843 31.7017 22.206L31.8728 20.8646C33.2327 22.1807 32.4434 23.8828 32.697 25.4014L31.1723 25.3855Z" fill="#F8EDDA"/>
<path d="M31.7017 22.2061C31.5221 22.9843 31.3403 23.7626 31.1565 24.5409C31.3403 23.7626 31.5221 22.9843 31.7017 22.2061Z" fill="#ACD8AA"/>
</g>
<g clip-path="url(#clip1_125_183)">
<path d="M135.191 40.2832C135.191 44.3717 135.402 48.4774 135.126 52.5531C134.888 56.13 136.585 59.3931 136.261 62.983C135.959 66.3664 136.576 69.8617 136.119 73.1936C135.057 80.9322 134.327 88.7352 130.304 95.8719C125.392 104.574 117.821 109.199 108.601 111.779C106.011 112.51 103.391 112.686 100.715 112.897C92.777 113.524 86.5785 110.012 80.8592 105.24C78.7701 103.494 76.9485 101.427 75.032 99.479C72.5932 96.9983 71.6651 93.8255 71.4493 90.5237C71.2205 86.9597 71.0436 83.3225 71.4925 79.7972C72.2177 74.1179 74.3802 68.817 77.0305 63.7439C80.2549 57.5746 84.839 52.3338 89.0001 46.8265C91.0445 44.0408 92.7241 41.0069 93.9986 37.7982C96.0489 32.8627 97.7582 27.7853 99.6574 22.7854C101.179 18.9556 103.371 15.4255 106.132 12.3598C108.992 9.10806 112.928 6.98613 117.225 6.37959C120.605 5.87228 123.67 7.45008 126.424 9.36323C127.257 9.93932 127.853 10.8422 128.651 11.4741C133.688 15.4466 134.936 21.0227 135.16 26.9513C135.324 31.3795 135.191 35.8163 135.191 40.2488V40.2832ZM127.986 42.652C127.986 37.5403 127.922 32.4242 128.017 27.3124C128.068 24.5824 127.153 22.1878 125.936 19.8576C123.113 14.5137 117.696 12.6822 113.686 15.9883C110.306 18.6925 107.762 22.2932 106.348 26.3752C104.647 31.3924 102.545 36.2634 100.629 41.2247C97.7539 48.6537 92.9022 54.8489 87.9469 60.9237C81.5628 68.7568 78.5888 77.639 78.5672 87.669C78.5672 91.0525 79.9657 93.7395 81.9858 96.1299C84.9037 99.5693 88.6547 101.934 92.7122 103.985C96.0097 105.645 99.7678 106.167 103.395 105.468C105.688 105.038 108.169 104.608 110.41 103.611C115.758 101.237 120.933 98.503 123.519 92.9786C124.602 90.6656 125.565 88.2494 126.618 85.9107C128.453 81.8092 127.209 77.1016 128.996 72.9357C129.303 72.2177 129.027 71.2504 129.022 70.3991C129.016 66.0658 128.728 61.7374 128.159 57.4413C127.468 52.6133 127.986 47.5918 127.986 42.6606V42.652Z" fill="#0B8790"/>
<path d="M127.986 42.6606C127.986 47.6047 127.477 52.6133 128.137 57.4671C128.706 61.7632 128.995 66.0916 129.001 70.4249C129.001 71.2848 129.281 72.2435 128.975 72.9615C127.188 77.1274 128.431 81.835 126.596 85.9365C125.543 88.2882 124.581 90.6914 123.497 93.0044C120.907 98.5289 115.728 101.263 110.388 103.636C108.148 104.629 105.666 105.077 103.374 105.494C99.7462 106.193 95.988 105.671 92.6906 104.01C88.6202 101.96 84.8864 99.6123 81.9685 96.1729C79.9484 93.7825 78.5412 91.0955 78.5498 87.7121C78.5714 77.682 81.5455 68.7955 87.9295 60.9667C92.8848 54.8919 97.7366 48.6967 100.611 41.2677C102.528 36.3193 104.63 31.4354 106.331 26.4182C107.745 22.3362 110.289 18.7355 113.669 16.0313C117.679 12.708 123.096 14.5395 125.919 19.9006C127.149 22.2308 128.051 24.6297 127.999 27.3554C127.904 32.4672 127.969 37.5833 127.969 42.695L127.986 42.6606ZM107.41 88.2581H109.641C119.94 80.5195 122.504 69.9907 121.727 58.069C119.906 55.5368 117.096 54.0578 114.579 52.3854H106.205C102.092 54.9392 99.4027 58.7053 97.3351 62.983C96.4287 64.866 95.7725 66.9125 94.6028 68.615C93.3078 70.5238 95.0819 73.1033 92.9884 74.694C93.0877 78.9675 92.5999 83.2581 95.9538 86.9253C96.8948 87.9571 98.7898 88.4429 98.6732 90.0465H107.41V88.2581Z" fill="#90DBD0"/>
<path d="M107.41 88.258V90.0465H98.6733C98.7898 88.4429 96.8949 87.9571 95.9539 86.9253C92.6 83.2752 93.0878 78.976 92.9885 74.6768C95.082 73.0861 93.295 70.5066 94.6029 68.5977C95.7726 66.8781 96.4288 64.8488 97.3352 62.9658C99.4028 58.6881 102.083 54.922 106.206 52.3682H114.567C117.083 54.0406 119.893 55.5196 121.715 58.0518C122.505 69.9735 119.941 80.5238 109.628 88.2408H107.397C107.224 87.2821 107.772 86.2202 106.965 85.3561C106.158 85.1239 105.364 84.9563 104.604 85.4636C104.22 86.4137 103.901 87.3509 104.928 88.2408L107.41 88.258ZM101.665 62.9228C102.476 61.4009 104.254 60.9968 104.315 59.2126C101.695 58.6623 101.337 59.118 101.665 62.9228V62.9228ZM105.118 65.627C105.217 64.8016 105.718 63.9331 105.083 63.0475C104.608 62.3725 104 62.5659 103.201 63.271C103.754 64.0105 102.342 65.8377 105.131 65.6485L105.118 65.627Z" fill="#E39E93"/>
<path d="M107.41 88.2581H104.954C103.926 87.3681 104.246 86.4309 104.63 85.4808C105.39 84.9734 106.184 85.1411 106.991 85.3733C107.785 86.2331 107.237 87.2993 107.423 88.2581H107.41Z" fill="#FC755D"/>
<path d="M101.665 62.9228C101.337 59.118 101.695 58.6623 104.315 59.2126C104.263 60.9968 102.476 61.4009 101.665 62.9228Z" fill="#FB7259"/>
<path d="M105.131 65.6485C102.342 65.8592 103.754 64.032 103.214 63.2796C104.013 62.5746 104.621 62.3811 105.096 63.0561C105.731 63.9288 105.23 64.7887 105.131 65.6485Z" fill="#FC755D"/>
</g>
<g clip-path="url(#clip2_125_183)">
<path d="M151.703 85.3157C148.108 85.3157 144.504 85.0201 140.978 85.3757C132.231 86.2584 125.075 82.3292 118.155 77.9843C112.063 74.1537 107.095 69.0718 104.316 62.246C102.986 58.9767 101.579 55.7673 101.222 52.108C101.038 50.2313 100.201 48.3502 100.364 46.3449C100.978 38.1608 102.99 30.4138 107.657 23.5323C108.944 21.6213 111.287 20.5329 112.003 18.1248C114.041 17.8292 114.719 15.6225 116.353 14.9197C118.786 13.8785 120.48 11.8432 122.835 10.6349C124.663 9.69649 127.035 10.6906 128.305 8.87378C129.888 6.6028 132.445 8.47529 134.337 7.15984C136.053 5.97293 138.28 6.79134 140.274 6.73135C143.5 6.62851 146.735 6.73136 149.97 6.6928C152.664 6.66281 154.903 7.97827 157.349 8.7881C160.841 9.91931 163.213 12.4902 165.71 14.6069C169.18 17.5378 171.763 21.5527 174.569 25.2205C178.001 29.7111 178.618 35.2942 180.021 40.5303C180.416 42.0043 180.682 43.9582 179.592 45.4065C178.872 46.3749 178.962 47.3733 179.116 48.2902C179.94 53.0507 177.915 57.3741 176.898 61.7961C176.31 64.337 174.144 66.4752 172.977 68.9347C170.425 74.2822 165.135 76.9174 161.33 81.0137C159.099 81.0352 157.507 83.0233 155.508 83.1562C153.612 83.2804 152.99 84.733 151.703 85.3157ZM149.451 80.2082C151.969 78.777 154.427 78.0657 156.113 76.1847C160.51 76.0304 162.672 72.5211 165.302 69.8688C168.415 66.7498 170.659 62.8725 171.81 58.621C173.5 52.2195 174.461 45.6593 173.955 38.9578C173.646 34.8101 171.853 31.1979 169.867 27.7529C167.597 23.8151 164.007 20.8971 160.888 17.6063C156.559 13.0515 150.866 11.886 145.088 10.7506C143.243 10.3863 142.038 11.9503 140.33 11.8175C137.349 11.5315 134.341 11.8806 131.506 12.8416C128.189 14.0113 124.298 13.9385 121.935 17.2336C121.596 17.5875 121.158 17.8298 120.678 17.9277C117.873 18.6884 115.465 20.4931 113.951 22.971C112.273 25.5633 110.781 28.2842 109.073 30.7866C106.409 34.6987 105.508 38.7736 105.427 43.247C105.367 46.4777 105.427 49.7128 105.427 52.2452C107.597 57.9997 110.433 62.6831 113.372 67.3279C114.283 68.8394 115.559 70.0989 117.083 70.9914C120.008 72.6711 122.861 74.4193 125.993 75.8119C132.527 78.6828 139.18 80.581 146.375 80.2082C147.383 80.1653 148.408 80.2082 149.429 80.2082H149.451Z" fill="#FDE773"/>
<path d="M149.429 80.2082C148.408 80.2082 147.383 80.1654 146.362 80.2082C139.168 80.581 132.514 78.6828 125.98 75.8119C122.848 74.4408 119.996 72.6711 117.07 70.9915C115.546 70.0989 114.27 68.8394 113.359 67.3279C110.42 62.6831 107.585 57.9998 105.414 52.2452C105.414 49.7171 105.367 46.4821 105.414 43.247C105.495 38.7736 106.396 34.6773 109.06 30.7866C110.776 28.2842 112.261 25.5634 113.938 22.971C115.443 20.4853 117.844 18.6697 120.648 17.8977C121.128 17.7998 121.566 17.5576 121.905 17.2036C124.268 13.9085 128.159 13.9814 131.476 12.8116C134.311 11.8506 137.319 11.5016 140.3 11.7875C142.016 11.9204 143.213 10.3564 145.058 10.7206C150.836 11.8732 156.529 13.0387 160.858 17.5764C163.977 20.8586 167.567 23.7852 169.837 27.7229C171.823 31.1508 173.616 34.7801 173.925 38.9278C174.427 45.6294 173.466 52.2109 171.78 58.5911C170.629 62.8425 168.385 66.7198 165.272 69.8388C162.642 72.4912 160.48 76.0005 156.083 76.1547C154.406 78.0872 151.947 78.7771 149.429 80.2082ZM160.63 22.9967C160.798 21.4156 160.094 20.4258 158.584 19.963C158.451 19.6759 158.387 19.2132 158.177 19.1318C151.862 16.6894 145.658 13.6814 138.443 15.0954C135.036 17.7135 138.7 20.3144 138.258 22.9496L140.15 23.0524V25.0792C139.682 26.2361 138.644 27.2216 139.271 28.687C140.489 31.5193 140.871 34.5573 141.137 37.5781C141.278 39.1464 141.93 39.9819 143.565 40.5432C144.852 38.9664 146.808 38.0023 147.529 35.7442C147.723 35.1766 148.129 34.7054 148.661 34.4278C149.194 34.1503 149.813 34.0878 150.39 34.2531V36.5112C149.502 38.3665 146.958 38.9364 147.306 41.3959C147.027 41.533 146.628 41.5973 146.491 41.8244C146.434 41.8812 146.402 41.9583 146.402 42.0387C146.402 42.119 146.434 42.1961 146.491 42.2529C146.547 42.3097 146.625 42.3416 146.705 42.3416C146.786 42.3416 146.863 42.3097 146.92 42.2529C147.143 42.1201 147.207 41.7259 147.349 41.4431C148.528 41.4431 149.755 41.6487 150.879 41.3959C154.612 40.539 158.297 39.5106 162.012 38.6108C164.307 38.058 166.988 38.8721 168.7 36.7897C168.927 35.726 168.942 34.6278 168.742 33.5586C168.542 32.4893 168.133 31.47 167.537 30.5595C165.907 27.9543 164.59 25.092 162.119 23.1081C161.802 22.8296 161.141 23.0181 160.63 22.9967V22.9967ZM129.965 58.7753H132.012C131.274 62.8802 128.473 65.6997 125.946 68.472V71.4457C128.897 72.6583 131.617 74.278 134.526 74.8307C137.585 75.4092 140.836 74.9593 143.917 74.9593C145.062 71.8913 143.329 69.2818 143.277 66.5481C143.2 62.0918 141.338 57.9569 141.132 53.5221C141.089 52.5966 140.184 51.8081 138.713 51.5639C138.142 53.2778 136.431 54.3576 135.86 56.2772C135.641 57.01 134.654 56.6072 134.015 56.7057C134.015 54.4348 133.711 52.0609 136.074 50.5827C137.529 50.5827 138.872 50.5141 137.576 48.5302H135.049C129.901 49.6957 124.582 50.1285 119.258 52.7637H114.968C112.394 55.236 113.638 57.747 114.663 60.0908C115.302 61.5476 116.808 62.6617 117.314 64.1357C118.297 66.9466 120.485 67.5636 122.981 68.0606C126.212 65.6097 128.181 62.2632 129.965 58.7753V58.7753ZM146.319 50.5912C146.331 50.4297 146.304 50.2676 146.239 50.1191C146.174 49.9706 146.074 49.8402 145.947 49.7392C145.82 49.6383 145.67 49.5698 145.511 49.5398C145.351 49.5098 145.187 49.5192 145.032 49.5672C144.797 49.6081 144.586 49.7356 144.441 49.9244C144.295 50.1132 144.226 50.3497 144.247 50.587C144.328 53.8863 143.947 57.1856 145.234 60.4164C146.675 64.0371 146.993 67.9492 147.606 71.7627C148.696 73.0825 149.669 73.4767 151.51 72.5854C156.425 70.2306 160.754 66.813 164.183 62.5803L146.319 50.5912ZM115.156 31.2537C113.869 34.5016 112.231 37.3767 111.673 40.4447C111.085 43.6755 111.54 47.0905 111.54 50.1071C116.456 52.061 120.094 48.496 124.41 48.3931C127.533 48.3374 130.695 47.1676 133.702 46.105C134.393 45.8607 135.813 45.9722 136.19 44.1382C130.738 40.329 125.148 36.3055 119.399 32.5177C118.28 31.815 116.954 30.7181 115.156 31.2537V31.2537ZM117.301 28.0486C123.453 32.7619 129.657 35.7613 134.809 40.4104C135.839 40.1276 137.117 40.9032 138.091 39.8534C138.43 35.6885 137.035 31.8407 136.126 27.89C135.216 23.9394 135.615 19.5645 133.509 15.7896C126.722 18.4291 121.394 22.3883 117.301 28.0486V28.0486ZM166.503 60.6392C166.649 56.5343 169.708 54.4091 169.747 51.3111C169.785 48.1403 171.643 45.2223 170.721 41.8844C170.253 41.3874 169.863 40.5989 168.957 40.3718C165.427 42.1201 161.21 41.3274 157.803 43.4612C153.599 42.9256 150.249 45.6936 145.894 45.9679C148.932 49.3572 152.514 50.9469 155.611 53.1922C158.88 55.5703 162.282 57.7684 166.503 60.6392Z" fill="#FBF2DD"/>
<path d="M150.416 34.253C149.838 34.0877 149.22 34.1503 148.687 34.4278C148.154 34.7053 147.749 35.1766 147.554 35.7442C146.834 38.0023 144.89 38.9664 143.59 40.5432C141.956 39.9819 141.304 39.1464 141.162 37.5781C140.896 34.5573 140.515 31.5193 139.296 28.687C138.67 27.2302 139.725 26.2361 140.176 25.0791C140.506 25.1028 140.837 25.1028 141.167 25.0791C144.393 24.5435 145.113 23.0995 143.389 20.6315C142.801 19.7745 142.205 18.9604 141.574 18.0605C141.098 19.7745 140.63 21.407 140.167 23.0567L138.275 22.9539C138.704 20.3187 135.053 17.7178 138.46 15.0997C145.667 13.6857 151.87 16.6937 158.194 19.136C158.404 19.2175 158.468 19.6802 158.601 19.9673C158.601 20.4643 158.794 21.2014 158.541 21.4285C155.838 23.8323 154.358 27.1316 152.235 29.9553C151.304 31.1894 150.27 32.5262 150.429 34.2402L150.416 34.253Z" fill="#FDE773"/>
<path d="M115.156 31.2536C116.967 30.718 118.279 31.815 119.378 32.5391C125.126 36.3269 130.716 40.3504 136.169 44.1596C135.791 45.9936 134.371 45.8736 133.681 46.1264C130.678 47.189 127.512 48.3588 124.388 48.4145C120.098 48.4959 116.456 52.0609 111.518 50.1285C111.518 47.129 111.064 43.7012 111.651 40.4661C112.235 37.3767 113.874 34.5016 115.156 31.2536Z" fill="#FDE773"/>
<path d="M117.301 28.0486C121.394 22.3883 126.739 18.4291 133.509 15.7896C135.615 19.5645 135.225 23.8837 136.126 27.89C137.027 31.8964 138.43 35.6885 138.091 39.8534C137.117 40.9032 135.838 40.1276 134.809 40.4104C129.656 35.7785 123.453 32.7619 117.301 28.0486Z" fill="#FDE773"/>
<path d="M134.041 56.7272C134.68 56.6243 135.667 57.0271 135.886 56.2987C136.456 54.3619 138.168 53.2993 138.738 51.5853C140.21 51.8338 141.115 52.618 141.158 53.5435C141.351 57.9783 143.213 62.1132 143.303 66.5695C143.355 69.3032 145.088 71.9127 143.942 74.9807C140.862 74.9807 137.61 75.4092 134.551 74.8521C131.63 74.2994 128.91 72.6797 125.971 71.4671V68.4934C128.498 65.7211 131.3 62.9016 132.038 58.7967L133.947 58.6553C133.998 57.9269 134.037 57.3313 134.08 56.74L134.041 56.7272Z" fill="#FDE773"/>
<path d="M166.504 60.6392C162.282 57.7684 158.88 55.5702 155.603 53.1964C152.505 50.9512 148.923 49.3615 145.886 45.9722C150.24 45.6979 153.608 42.9299 157.795 43.4655C161.227 41.3231 165.427 42.1244 168.949 40.3761C169.841 40.5989 170.236 41.3917 170.712 41.8887C171.634 45.2223 169.777 48.1403 169.738 51.3154C169.721 54.4091 166.649 56.5343 166.504 60.6392Z" fill="#FDE773"/>
<path d="M146.319 50.5912L164.2 62.5889C160.771 66.8215 156.442 70.2392 151.527 72.594C149.686 73.4895 148.713 73.0911 147.623 71.7713C147.01 67.9578 146.692 64.0585 145.251 60.425C143.964 57.1942 144.345 53.8949 144.264 50.5955L146.319 50.5912Z" fill="#FDE773"/>
<path d="M136.1 50.6041C133.736 52.0824 134.041 54.4605 134.041 56.7272H131.99L130.073 56.86L129.957 58.7796C128.172 62.2675 126.203 65.6354 122.986 68.0863C120.489 67.5764 118.301 66.9723 117.319 64.1614C116.804 62.6874 115.307 61.5905 114.667 60.1165C113.642 57.7727 112.402 55.2617 114.972 52.7894H119.262C124.586 50.1542 129.918 49.7214 135.053 48.5559L136.1 50.6041Z" fill="#FDE773"/>
<path d="M147.323 41.3959C146.971 38.9364 149.519 38.3665 150.407 36.5112V34.2531C151.265 34.2959 152.188 34.4159 152.651 33.5161C154.689 29.5354 157.945 26.4846 160.626 22.9967C161.132 23.0182 161.797 22.8296 162.115 23.0824C164.586 25.0663 165.903 27.9286 167.533 30.5338C168.129 31.4443 168.538 32.4636 168.738 33.5329C168.937 34.6021 168.923 35.7003 168.696 36.764C166.98 38.8464 164.303 38.0495 162.008 38.5851C158.292 39.4849 154.607 40.5261 150.875 41.3702C149.751 41.623 148.524 41.4131 147.344 41.4173L147.323 41.3959Z" fill="#FDE773"/>
<path d="M160.63 22.9967C157.949 26.4846 154.693 29.5354 152.655 33.5161C152.192 34.4159 151.257 34.2959 150.412 34.2531C150.253 32.5006 151.269 31.1851 152.218 29.9682C154.363 27.1445 155.821 23.8451 158.524 21.4413C158.777 21.2142 158.575 20.4772 158.584 19.9802C160.094 20.4001 160.798 21.4156 160.63 22.9967Z" fill="#FCEFA8"/>
<path d="M140.158 23.0524C140.622 21.4027 141.089 19.7531 141.566 18.0563C142.196 18.9432 142.793 19.7702 143.38 20.6272C145.096 23.0953 144.384 24.5392 141.158 25.0749C140.828 25.0985 140.497 25.0985 140.167 25.0749C140.163 24.4021 140.163 23.7251 140.158 23.0524Z" fill="#FDCB44"/>
<path d="M136.1 50.6041L135.075 48.5516H137.602C138.897 50.5355 137.546 50.6126 136.1 50.6041Z" fill="#FCEFA8"/>
<path d="M129.965 58.7753L130.081 56.8557L131.999 56.7229V58.7753H129.957H129.965Z" fill="#FCEFA8"/>
<path d="M146.319 50.5912H144.264C144.243 50.3539 144.313 50.1175 144.458 49.9287C144.603 49.7398 144.814 49.6124 145.049 49.5714C145.203 49.527 145.365 49.5202 145.521 49.5516C145.678 49.583 145.825 49.6516 145.95 49.7516C146.074 49.8516 146.173 49.9802 146.237 50.1263C146.301 50.2724 146.329 50.4319 146.319 50.5912V50.5912Z" fill="#FCEFA8"/>
<path d="M147.348 41.4173C147.211 41.7001 147.147 42.0944 146.919 42.2272C146.863 42.284 146.785 42.3159 146.705 42.3159C146.625 42.3159 146.547 42.284 146.49 42.2272C146.434 42.1704 146.402 42.0933 146.402 42.0129C146.402 41.9326 146.434 41.8555 146.49 41.7987C146.628 41.5759 147.027 41.5116 147.306 41.3702L147.348 41.4173Z" fill="#FDE773"/>
<path d="M132.008 58.7753V56.7229H134.058C134.015 57.3142 133.977 57.9098 133.925 58.6382L132.008 58.7753Z" fill="#FBF2DD"/>
</g>
<g clip-path="url(#clip3_125_183)">
<path d="M190.595 47.6358C193.311 47.1265 195.995 46.4555 198.815 46.7264C204.586 47.272 210.301 48.5695 215.053 51.7547C219.565 54.7781 222.712 59.3254 223.304 65.1863C223.504 67.1629 224.54 68.9737 224.248 71.0958C223.176 78.8727 221.448 86.2898 216.497 92.7369C213.221 97.0012 209.698 100.894 205.298 103.869C202.898 105.485 200.194 106.504 197.211 106.472C194.515 106.443 191.811 106.569 189.123 106.447C181.284 106.1 174.117 104.022 168.393 97.7733C166.926 98.0602 165.362 98.0521 163.654 98.4644C160.001 99.2885 156.193 99.0602 152.663 97.8056C149.331 96.6698 146.795 94.5356 144.476 91.9163C141.556 88.618 140.6 84.7053 140.384 80.5057C140.252 77.9511 140.348 75.3804 140.36 72.8258C140.388 66.4192 142.132 60.5542 145.032 54.8185C148.543 47.8541 154.735 44.4466 161.03 40.9543C163.686 41.2615 166.038 39.5437 168.785 39.9276C171.277 40.2753 173.853 40.0004 176.785 40.0004C180.16 41.9204 183.584 44.2688 186.18 47.7288C187.724 49.0465 188.384 49.0344 190.595 47.6358ZM181.328 56.3666C181.064 56.4919 180.692 56.5526 180.564 56.7708C180.517 56.8249 180.492 56.8956 180.495 56.968C180.498 57.0404 180.528 57.1087 180.58 57.1586C180.632 57.2085 180.701 57.236 180.773 57.2353C180.845 57.2346 180.913 57.2057 180.964 57.1548C181.168 57.0214 181.228 56.6496 181.364 56.3828C181.494 56.3997 181.626 56.3865 181.75 56.3441C181.874 56.3017 181.987 56.2312 182.08 56.138C182.173 56.0448 182.244 55.9314 182.287 55.8064C182.33 55.6814 182.344 55.5481 182.328 55.4167C184.148 55.5057 184.992 54.6083 185.172 52.7894C182.14 52.8137 182.14 52.8137 181.356 55.4087L181.328 56.3666ZM170.529 92.0457L171.805 91.9042C171.805 90.0247 171.861 88.1451 171.805 86.2696C171.749 84.3941 172.205 82.656 172.825 80.8654C174.237 76.8921 175.413 72.8298 176.557 68.7636C177.077 66.9163 178.956 61.3787 179.8 60.3844C180.388 59.6932 180.692 59.1112 179.916 58.2583C179.208 59.3092 178.121 59.9155 177.493 61.1241C175.965 64.0667 173.433 66.5566 173.689 70.2591C171.205 74.002 170.409 78.3876 169.341 82.6197C168.513 85.8331 168.265 89.2324 170.525 92.0457H170.529ZM212.221 75.631C211.045 75.4935 210.621 76.4677 210.113 76.9931V81.3262C211.033 81.3464 211.761 81.6455 212.561 81.112C212.706 79.8091 213.115 78.5502 213.761 77.4135C213.603 77.1306 213.424 76.8603 213.225 76.6051C212.913 76.2494 212.549 75.9584 212.217 75.631H212.221ZM213.593 64.3618C210.725 64.3618 209.849 64.9155 209.933 66.5728C210.017 68.23 210.897 68.715 213.593 68.4806V64.3618ZM216.045 71.6981C218.593 70.4855 218.593 70.4855 218.045 67.0618C217.321 67.0336 216.565 66.694 215.645 67.5429C215.977 68.7555 215.141 70.2551 216.037 71.6981H216.045ZM216.497 61.9568C216.425 60.7724 217.081 59.4709 216.097 58.2947C214.585 58.4159 213.941 59.1718 213.697 60.4046C214.325 61.2777 214.721 62.4418 216.493 61.9568H216.497ZM217.237 81.1766C218.201 79.5315 217.297 78.521 215.817 77.4661C215.721 78.8121 215.277 79.9883 215.957 81.1766C216.143 81.3128 216.367 81.386 216.597 81.386C216.827 81.386 217.051 81.3128 217.237 81.1766V81.1766Z" fill="#FDB3A5"/>
<path d="M201.294 32.2801C207.406 31.5768 212.325 34.0586 216.941 37.85C219.497 39.9519 222.08 41.9689 224.276 44.5032C224.212 45.1014 224.148 45.7158 224.076 46.4192C222.036 46.6657 220.325 47.7005 218.245 47.749C209.542 47.9511 203.622 43.6261 199.507 36.2979C199.195 35.7441 199.079 35.1702 198.423 34.9519C199.239 33.8969 200.014 32.8177 201.294 32.2801Z" fill="#0B8790"/>
<path d="M201.294 32.2801C200.014 32.8177 199.23 33.8969 198.422 34.9519C194.922 38.5465 192.249 42.8774 190.595 47.6358C188.383 49.0343 187.723 49.0465 186.152 47.7166C187.276 45.2187 187.671 42.4943 188.899 39.9762C191.891 33.8282 196.219 29.2648 202.346 26.5C202.657 26.6604 202.955 26.8441 203.238 27.0497C203.582 27.369 203.882 27.7369 204.198 28.0764C204.01 30.0732 201.722 30.5218 201.294 32.2801Z" fill="#191919"/>
<path d="M170.525 92.0457C168.265 89.2162 168.525 85.8331 169.325 82.6196C170.393 78.3876 171.189 74.002 173.673 70.2591C173.417 66.5566 175.949 64.0667 177.476 61.1241C178.104 59.9115 179.192 59.3092 179.9 58.2583C180.676 59.1111 180.372 59.6932 179.784 60.3844C178.936 61.3787 177.061 66.9163 176.541 68.7635C175.397 72.8298 174.221 76.8921 172.809 80.8654C172.173 82.656 171.717 84.3739 171.789 86.2696C171.861 88.1653 171.789 90.0246 171.789 91.9042L170.525 92.0457Z" fill="#FC755D"/>
<path d="M212.217 75.631C212.549 75.9422 212.913 76.2494 213.233 76.597C213.432 76.8522 213.611 77.1225 213.769 77.4054C213.122 78.5421 212.714 79.801 212.569 81.1039C211.769 81.6374 211.041 81.3383 210.121 81.3181V76.9931C210.625 76.4677 211.041 75.4935 212.217 75.631Z" fill="#FC755D"/>
<path d="M213.589 64.3618V68.4806C210.893 68.715 210.013 68.2542 209.93 66.5728C209.846 64.8913 210.721 64.3618 213.589 64.3618Z" fill="#FC755D"/>
<path d="M216.037 71.698C215.137 70.255 215.973 68.7554 215.609 67.5428C216.545 66.694 217.301 67.0335 218.009 67.0618C218.589 70.5016 218.589 70.5016 216.037 71.698Z" fill="#FC947F"/>
<path d="M181.328 55.4006C182.128 52.8056 182.128 52.8056 185.144 52.7813C184.964 54.6124 184.12 55.4976 182.3 55.4087L181.328 55.4006Z" fill="#FC947F"/>
<path d="M216.493 61.9568C214.721 62.4418 214.325 61.2777 213.725 60.4046C213.949 59.192 214.593 58.4159 216.125 58.2947C217.077 59.4709 216.437 60.7724 216.493 61.9568Z" fill="#FC947F"/>
<path d="M217.237 81.1767C217.05 81.3128 216.826 81.386 216.597 81.386C216.367 81.386 216.143 81.3128 215.957 81.1767C215.277 79.9883 215.721 78.8121 215.817 77.4661C217.293 78.521 218.197 79.5315 217.237 81.1767Z" fill="#FC947F"/>
<path d="M181.336 56.3747C181.212 56.6415 181.152 57.0133 180.936 57.1467C180.885 57.1976 180.817 57.2265 180.745 57.2272C180.673 57.2279 180.604 57.2004 180.552 57.1505C180.5 57.1006 180.47 57.0323 180.467 56.9599C180.464 56.8875 180.489 56.8168 180.536 56.7627C180.664 56.5525 181.036 56.4919 181.3 56.3585L181.336 56.3747Z" fill="#FC755D"/>
<path d="M181.328 55.4006H182.3C182.316 55.532 182.302 55.6652 182.259 55.7902C182.215 55.9152 182.145 56.0286 182.052 56.1218C181.959 56.215 181.846 56.2855 181.722 56.3279C181.598 56.3703 181.466 56.3836 181.336 56.3666V56.3666L181.328 55.4006Z" fill="#FC755D"/>
</g>
<defs>
<clipPath id="clip0_125_183">
<rect width="109.384" height="101.248" fill="white" transform="translate(0.699951)"/>
</clipPath>
<clipPath id="clip1_125_183">
<rect width="65.088" height="106.672" fill="white" transform="translate(71.2119 6.328)"/>
</clipPath>
<clipPath id="clip2_125_183">
<rect width="80" height="79" fill="white" transform="translate(100.3 6.5)"/>
</clipPath>
<clipPath id="clip3_125_183">
<rect width="84" height="80" fill="white" transform="translate(140.3 26.5)"/>
</clipPath>
</defs>
</svg>
