<svg width="836" height="1104" viewBox="0 0 836 1104" fill="none" xmlns="http://www.w3.org/2000/svg">
<path d="M635.946 480.914C715.022 407.071 729.448 532.069 691.812 662.477C644.582 751.747 532.498 945.614 462.004 1006.91C373.887 1083.54 323.954 1043.03 185.736 956.825C47.5188 870.625 270.546 690.247 321.258 632.204C371.971 574.162 556.87 554.757 635.946 480.914Z" fill="#ACD8AA"/>
<path d="M391.273 70.7366C390.915 61.6159 385.57 55.735 383.966 48.4123C382.438 41.3987 384.285 34.74 385.842 28.364C387.674 20.8308 394.671 18.1505 402.199 16.9313C407.623 20.9171 413.959 23.4434 418.919 28.9516C422.772 33.2195 429.233 37.5275 436.148 32.19C443.862 33.5491 451.775 34.2032 459.241 36.4121C476.344 41.4484 490.695 52.1124 506.192 60.4708C510.111 62.5832 512.527 66.2989 514.697 69.3995C516.472 71.9254 522.75 73.0324 519.629 78.3781C524.505 81.1125 526.398 86.2126 529.483 90.4299C535.938 99.2491 541.033 108.645 542.56 119.48C543.843 128.477 544.04 137.656 544.63 146.714C544.572 147.85 544.246 148.955 543.679 149.941C539.892 157.881 539.331 166.633 537.647 175.049C536.564 180.486 540.004 185.647 540.632 189.739C541.68 194.524 538.41 196.447 537.875 199.695C536.297 209.568 526.683 214.399 517.558 210.204C505.442 204.629 492.746 201.78 479.559 200.02C466.042 198.232 451.946 196.087 440.988 187.647C429.401 178.717 416.608 171.135 407.735 158.564C403.737 152.908 401.035 146.867 397.68 141.039C389.223 126.307 385.948 110.12 386.778 93.4412C387.176 85.7726 386.746 77.4181 391.273 70.7366ZM444.011 59.8925C442.957 66.3166 446.97 68.4257 450.971 69.5574C452.319 69.9025 453.748 69.7096 454.957 69.0196C456.166 68.3296 457.059 67.1966 457.447 65.8602C458.817 61.7669 456.929 59.2566 452.392 57.0757L444.011 59.8925ZM474.765 74.1844C477.799 76.7096 477.56 82.6226 483.363 82.0121C486.886 79.2891 486.77 75.6308 484.278 72.8872C482.765 71.2283 480.252 68.9807 477.17 70.0188L474.765 74.1844ZM444.384 45.3856C445.95 47.8138 447.531 50.2743 449.03 52.6178C451.663 52.1979 454.114 52.4122 455.531 50.0779C453.818 44.0657 450.458 40.6249 446.897 41.5133L444.384 45.3856ZM472.403 79.2755C467.615 78.3475 464.403 79.6914 463.708 85.0751C465.981 86.9991 468.032 88.7262 470.846 88.8727C475.101 86.4221 473.804 83.0288 472.398 79.2841L472.403 79.2755Z" fill="#FDE773"/>
<path d="M444.01 59.8925L452.392 57.0758C456.912 59.2467 458.817 61.7669 457.447 65.8602C457.058 67.1967 456.166 68.3297 454.957 69.0197C453.748 69.7097 452.319 69.9025 450.97 69.5574C446.97 68.4258 442.967 66.2993 444.01 59.8925Z" fill="#FDCB44"/>
<path d="M474.76 74.1931L477.165 70.0275C480.247 68.9894 482.76 71.237 484.273 72.8959C486.765 75.6395 486.882 79.2978 483.363 82.0122C477.555 82.6313 477.785 76.7133 474.76 74.1931Z" fill="#FDCB44"/>
<path d="M444.379 45.3943L446.892 41.522C450.453 40.6336 453.813 44.0744 455.526 50.0866C454.109 52.4209 451.658 52.2065 449.025 52.6265C447.526 50.283 445.962 47.8325 444.379 45.3943Z" fill="#FDCB44"/>
<path d="M472.398 79.2842C473.804 83.0289 475.101 86.4221 470.841 88.8813C468.002 88.7782 465.976 87.0078 463.703 85.0838C464.398 79.7 467.602 78.3511 472.398 79.2842Z" fill="#FDCB44"/>
<g clip-path="url(#clip0_175_15)">
<path d="M125.893 214.562C129.804 208.87 133.374 202.952 138.833 198.44C149.991 189.192 162.366 181.357 176.338 178.528C189.604 175.841 203.123 178.231 214.423 187.438C218.234 190.542 223.234 191.878 226.43 196.107C238.139 211.607 248.06 227.637 250.584 247.669C252.253 260.92 252.833 273.959 250.259 286.942C248.845 294.013 245.847 300.575 240.515 305.793C235.7 310.51 231.139 315.509 226.175 320.049C211.708 333.3 195.402 342.337 174.351 341.523C172.258 344.621 169.479 347.371 167.181 351.112C162.165 359.011 155.034 365.344 146.597 369.391C138.72 373.294 130.504 374.043 121.82 373.563C110.888 372.954 102.354 367.8 94.625 360.835C89.9227 356.599 85.5953 351.932 81.1476 347.442C69.9894 336.185 62.8122 322.842 57.9049 307.681C51.9299 289.29 56.915 272.383 61.9354 255.143C67.168 250.986 68.3206 243.823 73.8502 239.636C78.8636 235.839 82.9365 230.805 88.1196 225.622C97.4463 223.012 107.607 221.068 118.249 222.532C123.284 222.107 124.43 220.919 125.893 214.562ZM124.783 246.22C124.536 246.906 123.984 247.669 124.14 248.277C124.15 248.456 124.229 248.624 124.361 248.746C124.493 248.867 124.667 248.932 124.846 248.928C125.025 248.923 125.196 248.849 125.321 248.721C125.447 248.593 125.517 248.421 125.519 248.242C125.646 247.648 125.101 246.891 124.875 246.184C125.134 245.984 125.344 245.728 125.49 245.434C125.635 245.141 125.711 244.818 125.712 244.491C125.713 244.163 125.64 243.84 125.497 243.545C125.355 243.25 125.147 242.992 124.889 242.79C128.262 239.728 128.184 236.667 125.32 233.166C120.003 238.569 120.003 238.569 123.157 244.494L124.783 246.22ZM168.107 327.728L170.116 325.225C166.828 321.937 163.639 318.55 160.259 315.368C156.879 312.186 154.644 308.339 152.608 304.111C148.153 294.664 143.125 285.478 138.034 276.342C135.722 272.192 129.358 259.181 129.111 255.949C128.941 253.701 128.46 252.145 125.596 252.025C126.183 255.115 125.32 258.099 126.325 261.323C128.771 269.172 128.651 278.004 135.581 284.029C137.737 294.968 144.002 304.047 149.518 313.338C153.675 320.423 159.184 326.809 168.1 327.735L168.107 327.728ZM213.101 225.303C210.781 227.142 211.736 229.596 211.757 231.413L219.337 238.993C220.999 237.402 222.809 236.638 223.29 234.291C221.267 231.755 219.787 228.831 218.941 225.699C218.167 225.484 217.378 225.328 216.58 225.233C215.406 225.162 214.253 225.296 213.094 225.311L213.101 225.303ZM195.812 203.164C190.742 208.234 190.162 210.751 193.21 213.502C196.257 216.252 198.662 215.545 203.017 210.369L195.812 203.164ZM212.981 211.663C215.363 205.038 215.363 205.038 208.406 200.017C207.076 201.248 205.146 201.99 205.004 205.101C207.713 206.636 208.858 210.737 212.966 211.677L212.981 211.663ZM196.738 193.823C194.539 191.878 193.422 188.442 189.625 188.124C187.164 191.009 187.348 193.469 189.073 196.057C191.711 196.475 194.447 197.811 196.731 193.83L196.738 193.823ZM231.669 226.138C230.496 221.556 227.13 221.386 222.668 222.157C224.853 224.681 226.126 227.524 229.407 228.401C229.974 228.309 230.498 228.042 230.904 227.635C231.311 227.229 231.578 226.705 231.669 226.138Z" fill="#FDB3A5"/>
<path d="M117.945 168.784C127.52 156.749 140.559 152.394 155.351 150.866C163.547 150.025 171.643 148.985 179.959 149.537C180.892 150.697 181.854 151.885 182.957 153.242C179.782 157.28 178.566 162.116 174.974 165.878C159.94 181.618 141.909 184.517 121.813 178.974C120.293 178.557 119.084 177.758 117.542 178.535C117.139 175.247 116.623 171.988 117.945 168.784Z" fill="#0B8790"/>
<path d="M117.945 168.784C116.623 171.988 117.125 175.262 117.542 178.535C117.642 191.013 120.493 203.314 125.893 214.562C124.43 220.919 123.284 222.107 118.179 222.56C115.796 216.203 111.73 210.737 109.496 204.161C104.03 188.117 103.697 172.483 109.693 156.813C110.523 156.545 111.372 156.339 112.232 156.198C113.399 156.148 114.573 156.262 115.725 156.297C118.886 160.122 115.626 164.952 117.945 168.784Z" fill="#191919"/>
<path d="M168.101 327.735C159.156 326.78 153.697 320.402 149.489 313.367C143.974 304.075 137.709 294.996 135.552 284.057C128.623 278.032 128.743 269.201 126.296 261.352C125.285 258.12 126.155 255.143 125.568 252.053C128.432 252.173 128.913 253.729 129.082 255.978C129.323 259.216 135.694 272.22 138.006 276.371C143.097 285.507 148.125 294.692 152.58 304.139C154.588 308.396 156.787 312.207 160.23 315.396C163.674 318.585 166.799 321.965 170.088 325.253L168.101 327.735Z" fill="#FC755D"/>
<path d="M213.094 225.311C214.225 225.268 215.406 225.162 216.58 225.204C217.378 225.299 218.167 225.455 218.941 225.671C219.787 228.803 221.267 231.727 223.29 234.263C222.809 236.61 220.999 237.374 219.337 238.965L211.771 231.399C211.743 229.589 210.774 227.149 213.094 225.311Z" fill="#FC755D"/>
<path d="M195.805 203.171L203.01 210.376C198.654 215.552 196.293 216.302 193.203 213.509C190.113 210.716 190.735 208.241 195.805 203.171Z" fill="#FC755D"/>
<path d="M212.966 211.678C208.851 210.744 207.706 206.643 204.941 205.165C205.111 202.025 207.041 201.283 208.342 200.081C215.385 205.073 215.385 205.073 212.966 211.678Z" fill="#FC947F"/>
<path d="M123.093 244.53C119.968 238.576 119.968 238.576 125.257 233.202C128.142 236.723 128.198 239.764 124.825 242.826L123.093 244.53Z" fill="#FC947F"/>
<path d="M196.731 193.83C194.447 197.811 191.711 196.475 189.123 196.008C187.397 193.491 187.178 190.995 189.674 188.074C193.415 188.449 194.56 191.857 196.731 193.83Z" fill="#FC947F"/>
<path d="M231.669 226.138C231.578 226.705 231.311 227.229 230.904 227.636C230.498 228.042 229.974 228.309 229.407 228.401C226.126 227.524 224.853 224.681 222.668 222.157C227.123 221.393 230.489 221.563 231.669 226.138Z" fill="#FC947F"/>
<path d="M124.811 246.22C125.059 246.906 125.603 247.662 125.455 248.277C125.454 248.457 125.383 248.628 125.258 248.756C125.132 248.884 124.962 248.958 124.783 248.963C124.603 248.968 124.429 248.902 124.298 248.781C124.166 248.66 124.086 248.492 124.076 248.313C123.935 247.719 124.486 246.955 124.719 246.255L124.811 246.22Z" fill="#FC755D"/>
<path d="M123.093 244.53L124.811 242.811C125.069 243.013 125.277 243.272 125.419 243.566C125.562 243.861 125.636 244.185 125.634 244.512C125.633 244.839 125.557 245.162 125.412 245.456C125.267 245.749 125.056 246.006 124.797 246.206L123.093 244.53Z" fill="#FC755D"/>
</g>
<path d="M228.719 484.912C220.339 484.912 211.939 484.222 203.719 485.052C183.329 487.112 166.649 477.942 150.519 467.802C136.319 458.862 124.739 447.002 118.259 431.072C115.159 423.442 111.879 415.952 111.049 407.412C110.619 403.032 108.669 398.642 109.049 393.962C110.479 374.862 115.169 356.782 126.049 340.722C129.049 336.262 134.509 333.722 136.179 328.102C140.929 327.412 142.509 322.262 146.319 320.622C151.989 318.192 155.939 313.442 161.429 310.622C165.689 308.432 171.219 310.752 174.179 306.512C177.869 301.212 183.829 305.582 188.239 302.512C192.239 299.742 197.429 301.652 202.079 301.512C209.599 301.272 217.139 301.512 224.679 301.422C230.959 301.352 236.179 304.422 241.879 306.312C250.019 308.952 255.549 314.952 261.369 319.892C269.459 326.732 275.479 336.102 282.019 344.662C290.019 355.142 291.459 368.172 294.729 380.392C295.649 383.832 296.269 388.392 293.729 391.772C292.049 394.032 292.259 396.362 292.619 398.502C294.539 409.612 289.819 419.702 287.449 430.022C286.079 435.952 281.029 440.942 278.309 446.682C272.359 459.162 260.029 465.312 251.159 474.872C245.959 474.922 242.249 479.562 237.589 479.872C233.169 480.162 231.719 483.552 228.719 484.912ZM223.469 472.992C229.339 469.652 235.069 467.992 238.999 463.602C249.249 463.242 254.289 455.052 260.419 448.862C267.676 441.583 272.905 432.534 275.589 422.612C279.529 407.672 281.769 392.362 280.589 376.722C279.869 367.042 275.689 358.612 271.059 350.572C265.769 341.382 257.399 334.572 250.129 326.892C240.039 316.262 226.769 313.542 213.299 310.892C208.999 310.042 206.189 313.692 202.209 313.382C195.26 312.715 188.249 313.53 181.639 315.772C173.909 318.502 164.839 318.332 159.329 326.022C158.54 326.849 157.518 327.414 156.399 327.642C149.86 329.418 144.249 333.63 140.719 339.412C136.809 345.462 133.329 351.812 129.349 357.652C123.139 366.782 121.039 376.292 120.849 386.732C120.709 394.272 120.849 401.822 120.849 407.732C125.909 421.162 132.519 432.092 139.369 442.932C141.493 446.46 144.467 449.399 148.019 451.482C154.839 455.402 161.489 459.482 168.789 462.732C184.019 469.432 199.529 473.862 216.299 472.992C218.649 472.892 221.039 472.992 223.419 472.992H223.469Z" fill="#FDE773"/>
<path d="M223.419 472.992C221.039 472.992 218.649 472.892 216.269 472.992C199.499 473.862 183.989 469.432 168.759 462.732C161.459 459.532 154.809 455.402 147.989 451.482C144.437 449.399 141.463 446.46 139.339 442.932C132.489 432.092 125.879 421.162 120.819 407.732C120.819 401.832 120.709 394.282 120.819 386.732C121.009 376.292 123.109 366.732 129.319 357.652C133.319 351.812 136.779 345.462 140.689 339.412C144.197 333.611 149.793 329.374 156.329 327.572C157.448 327.344 158.47 326.779 159.259 325.952C164.769 318.262 173.839 318.432 181.569 315.702C188.179 313.46 195.19 312.645 202.139 313.312C206.139 313.622 208.929 309.972 213.229 310.822C226.699 313.512 239.969 316.232 250.059 326.822C257.329 334.482 265.699 341.312 270.989 350.502C275.619 358.502 279.799 366.972 280.519 376.652C281.689 392.292 279.449 407.652 275.519 422.542C272.835 432.464 267.606 441.513 260.349 448.792C254.219 454.982 249.179 463.172 238.929 463.532C235.019 468.042 229.289 469.652 223.419 472.992ZM249.529 339.472C249.919 335.782 248.279 333.472 244.759 332.392C244.449 331.722 244.299 330.642 243.809 330.452C229.089 324.752 214.629 317.732 197.809 321.032C189.869 327.142 198.409 333.212 197.379 339.362L201.789 339.602V344.332C200.699 347.032 198.279 349.332 199.739 352.752C202.579 359.362 203.469 366.452 204.089 373.502C204.419 377.162 205.939 379.112 209.749 380.422C212.749 376.742 217.309 374.492 218.989 369.222C219.442 367.898 220.388 366.798 221.629 366.15C222.87 365.503 224.313 365.357 225.659 365.742V371.012C223.589 375.342 217.659 376.672 218.469 382.412C217.819 382.732 216.889 382.882 216.569 383.412C216.436 383.545 216.362 383.725 216.362 383.912C216.362 384.1 216.436 384.28 216.569 384.412C216.702 384.545 216.881 384.62 217.069 384.62C217.256 384.62 217.436 384.545 217.569 384.412C218.089 384.102 218.239 383.182 218.569 382.522C221.319 382.522 224.179 383.002 226.799 382.412C235.499 380.412 244.089 378.012 252.749 375.912C258.099 374.622 264.349 376.522 268.339 371.662C268.869 369.18 268.902 366.617 268.437 364.122C267.972 361.626 267.017 359.247 265.629 357.122C261.829 351.042 258.759 344.362 252.999 339.732C252.259 339.082 250.719 339.522 249.529 339.472ZM178.049 422.972H182.819C181.099 432.552 174.569 439.132 168.679 445.602V452.542C175.559 455.372 181.899 459.152 188.679 460.442C195.809 461.792 203.389 460.742 210.569 460.742C213.239 453.582 209.199 447.492 209.079 441.112C208.899 430.712 204.559 421.062 204.079 410.712C203.979 408.552 201.869 406.712 198.439 406.142C197.109 410.142 193.119 412.662 191.789 417.142C191.279 418.852 188.979 417.912 187.489 418.142C187.489 412.842 186.779 407.302 192.289 403.852C195.679 403.852 198.809 403.692 195.789 399.062H189.899C177.899 401.782 165.499 402.792 153.089 408.942H143.089C137.089 414.712 139.989 420.572 142.379 426.042C143.869 429.442 147.379 432.042 148.559 435.482C150.849 442.042 155.949 443.482 161.769 444.642C169.299 438.922 173.889 431.112 178.049 422.972ZM216.169 403.872C216.197 403.495 216.133 403.117 215.982 402.771C215.83 402.424 215.597 402.12 215.301 401.884C215.005 401.648 214.656 401.489 214.285 401.419C213.913 401.349 213.53 401.371 213.169 401.482C212.621 401.578 212.129 401.876 211.791 402.316C211.452 402.757 211.291 403.309 211.339 403.862C211.529 411.562 210.639 419.262 213.639 426.802C216.999 435.252 217.739 444.382 219.169 453.282C221.709 456.362 223.979 457.282 228.269 455.202C239.726 449.707 249.816 441.731 257.809 431.852L216.169 403.872ZM143.529 358.742C140.529 366.322 136.709 373.032 135.409 380.192C134.039 387.732 135.099 395.702 135.099 402.742C146.559 407.302 155.039 398.982 165.099 398.742C172.379 398.612 179.749 395.882 186.759 393.402C188.369 392.832 191.679 393.092 192.559 388.812C179.849 379.922 166.819 370.532 153.419 361.692C150.809 360.052 147.719 357.492 143.529 358.742ZM148.529 351.262C162.869 362.262 177.329 369.262 189.339 380.112C191.739 379.452 194.719 381.262 196.989 378.812C197.779 369.092 194.529 360.112 192.409 350.892C190.289 341.672 191.219 331.462 186.309 322.652C170.489 328.812 158.069 338.052 148.529 351.262ZM263.219 427.322C263.559 417.742 270.689 412.782 270.779 405.552C270.869 398.152 275.199 391.342 273.049 383.552C271.959 382.392 271.049 380.552 268.939 380.022C260.709 384.102 250.879 382.252 242.939 387.232C233.139 385.982 225.329 392.442 215.179 393.082C222.259 400.992 230.609 404.702 237.829 409.942C245.449 415.492 253.379 420.622 263.219 427.322Z" fill="#FBF2DD"/>
<path d="M225.719 365.742C224.373 365.357 222.93 365.503 221.689 366.15C220.447 366.798 219.502 367.898 219.049 369.222C217.369 374.492 212.839 376.742 209.809 380.422C205.999 379.112 204.479 377.162 204.149 373.502C203.529 366.452 202.639 359.362 199.799 352.752C198.339 349.352 200.799 347.032 201.849 344.332C202.618 344.388 203.39 344.388 204.159 344.332C211.679 343.082 213.359 339.712 209.339 333.952C207.969 331.952 206.579 330.052 205.109 327.952C203.999 331.952 202.909 335.762 201.829 339.612L197.419 339.372C198.419 333.222 189.909 327.152 197.849 321.042C214.649 317.742 229.109 324.762 243.849 330.462C244.339 330.652 244.489 331.732 244.799 332.402C244.799 333.562 245.249 335.282 244.659 335.812C238.359 341.422 234.909 349.122 229.959 355.712C227.789 358.592 225.379 361.712 225.749 365.712L225.719 365.742Z" fill="#FDE773"/>
<path d="M143.529 358.742C147.749 357.492 150.809 360.052 153.369 361.742C166.769 370.582 179.799 379.972 192.509 388.862C191.629 393.142 188.319 392.862 186.709 393.452C179.709 395.932 172.329 398.662 165.049 398.792C155.049 398.982 146.559 407.302 135.049 402.792C135.049 395.792 133.989 387.792 135.359 380.242C136.719 373.032 140.539 366.322 143.529 358.742Z" fill="#FDE773"/>
<path d="M148.529 351.262C158.069 338.052 170.529 328.812 186.309 322.652C191.219 331.462 190.309 341.542 192.409 350.892C194.509 360.242 197.779 369.092 196.989 378.812C194.719 381.263 191.739 379.452 189.339 380.112C177.329 369.302 162.869 362.262 148.529 351.262Z" fill="#FDE773"/>
<path d="M187.549 418.193C189.039 417.953 191.339 418.893 191.849 417.193C193.179 412.673 197.169 410.193 198.499 406.193C201.929 406.773 204.039 408.602 204.139 410.762C204.589 421.112 208.929 430.762 209.139 441.162C209.259 447.542 213.299 453.632 210.629 460.792C203.449 460.792 195.869 461.792 188.739 460.492C181.929 459.202 175.589 455.422 168.739 452.592V445.652C174.629 439.182 181.159 432.602 182.879 423.022L187.329 422.693C187.449 420.993 187.539 419.602 187.639 418.222L187.549 418.193Z" fill="#FDE773"/>
<path d="M263.219 427.322C253.379 420.622 245.449 415.492 237.809 409.952C230.589 404.712 222.239 401.002 215.159 393.092C225.309 392.452 233.159 385.992 242.919 387.242C250.919 382.242 260.709 384.112 268.919 380.032C270.999 380.552 271.919 382.403 273.029 383.562C275.179 391.343 270.849 398.153 270.759 405.562C270.719 412.783 263.559 417.742 263.219 427.322Z" fill="#FDE773"/>
<path d="M216.169 403.872L257.849 431.872C249.856 441.751 239.766 449.727 228.309 455.222C224.019 457.312 221.749 456.382 219.209 453.302C217.779 444.402 217.039 435.302 213.679 426.822C210.679 419.282 211.569 411.582 211.379 403.882L216.169 403.872Z" fill="#FDE773"/>
<path d="M192.349 403.902C186.839 407.352 187.549 412.903 187.549 418.193H182.769L178.299 418.503L178.029 422.982C173.869 431.122 169.279 438.982 161.779 444.702C155.959 443.512 150.859 442.102 148.569 435.542C147.369 432.102 143.879 429.542 142.389 426.102C139.999 420.632 137.109 414.773 143.099 409.003H153.099C165.509 402.853 177.939 401.842 189.909 399.122L192.349 403.902Z" fill="#FDE773"/>
<path d="M218.509 382.412C217.689 376.672 223.629 375.342 225.699 371.012V365.742C227.699 365.842 229.849 366.122 230.929 364.022C235.679 354.732 243.269 347.612 249.519 339.472C250.699 339.522 252.249 339.082 252.989 339.672C258.749 344.302 261.819 350.983 265.619 357.063C267.007 359.187 267.962 361.566 268.427 364.062C268.892 366.557 268.859 369.12 268.329 371.602C264.329 376.462 258.089 374.602 252.739 375.852C244.079 377.952 235.489 380.382 226.789 382.352C224.169 382.942 221.309 382.452 218.559 382.462L218.509 382.412Z" fill="#FDE773"/>
<path d="M249.529 339.472C243.279 347.612 235.689 354.732 230.939 364.022C229.859 366.122 227.679 365.842 225.709 365.742C225.339 361.652 227.709 358.582 229.919 355.742C234.919 349.152 238.319 341.452 244.619 335.842C245.209 335.312 244.739 333.592 244.759 332.432C248.279 333.412 249.919 335.782 249.529 339.472Z" fill="#FCEFA8"/>
<path d="M201.809 339.602C202.889 335.752 203.979 331.903 205.089 327.943C206.559 330.013 207.949 331.943 209.319 333.943C213.319 339.703 211.659 343.072 204.139 344.322C203.37 344.378 202.598 344.378 201.829 344.322C201.819 342.752 201.819 341.172 201.809 339.602Z" fill="#FDCB44"/>
<path d="M192.349 403.902L189.959 399.112H195.849C198.869 403.742 195.719 403.922 192.349 403.902Z" fill="#FCEFA8"/>
<path d="M178.049 422.972L178.319 418.492L182.789 418.182V422.972H178.029H178.049Z" fill="#FCEFA8"/>
<path d="M216.169 403.872H211.379C211.33 403.319 211.492 402.767 211.83 402.326C212.169 401.886 212.661 401.588 213.209 401.492C213.567 401.389 213.944 401.373 214.31 401.446C214.675 401.519 215.017 401.679 215.307 401.913C215.598 402.146 215.828 402.446 215.978 402.787C216.128 403.129 216.193 403.501 216.169 403.872Z" fill="#FCEFA8"/>
<path d="M218.569 382.462C218.249 383.122 218.099 384.042 217.569 384.352C217.436 384.485 217.256 384.56 217.069 384.56C216.881 384.56 216.702 384.485 216.569 384.352C216.436 384.22 216.362 384.04 216.362 383.852C216.362 383.665 216.436 383.485 216.569 383.352C216.889 382.832 217.819 382.682 218.469 382.352L218.569 382.462Z" fill="#FDE773"/>
<path d="M182.809 422.972V418.182H187.589C187.489 419.562 187.399 420.952 187.279 422.652L182.809 422.972Z" fill="#FBF2DD"/>
<path d="M528.388 643.326C534.839 645.281 536.649 650.558 537.751 656.358C538.475 661.417 538.928 666.548 540.015 671.53C541.102 676.513 539.132 681.287 539.345 686.302C539.553 691.025 540.429 696.546 538.921 700.834C535.178 711.464 535.648 723.046 530.653 733.362C529.115 736.531 527.804 740.516 529.313 744.423C527.893 744.863 525.46 744.436 525.336 746.135C525.008 750.99 518.972 754.445 522.051 760.012C521.727 760.037 521.412 760.13 521.127 760.287C520.843 760.444 520.596 760.66 520.402 760.921C520.209 761.182 520.074 761.482 520.007 761.8C519.94 762.117 519.942 762.446 520.014 762.763C516.994 764.654 514.692 767.499 513.473 770.847C509.534 781.982 500.044 788.252 492.598 796.303C481.695 808.141 468.539 816.895 454.714 824.78C443.468 831.207 431.911 836.793 418.844 838.603C407.459 840.185 396.098 841.926 384.762 843.826C377.856 844.975 370.88 844.405 364.251 843.468C331.314 838.865 302.703 824.928 279.897 800.419C272.537 792.533 264.924 784.838 260.355 774.369C258.11 769.22 255.226 764.33 253.913 758.734C253.855 758.359 252.605 758.257 251.913 758.029L249.565 742.708C254.494 736.318 261.382 733.471 268.794 731.334C279.008 728.403 289.19 725.264 298.851 720.84C300.58 720.039 302.156 718.968 304.089 718.773C314.954 717.715 324.107 711.294 334.605 709.098C339.184 703.46 347.724 707.301 352.321 701.71C367.015 698.902 380.143 691.487 394.513 687.424C403.657 684.839 412.847 680.173 421.939 677.252C432.806 673.766 443.653 669.878 454.509 666.322C465.978 662.602 477.657 659.264 488.945 654.692C496.945 651.443 505.421 647.665 514.59 647.626C519.445 647.155 523.09 642.55 528.388 643.326ZM351.854 763.362C354.951 764.627 357.47 763.766 359.956 762.626C360.476 756.648 363.448 750.689 359.975 744.727C353.783 741.558 353.783 741.558 349.352 747.032L351.854 763.362ZM454.526 703.337C451.799 703.097 448.859 703.194 446.821 705.074C445.219 712.715 451.983 714.997 455.006 719.602C457.464 718.81 460.591 719.94 462.367 717.138C462.04 711.371 459.859 706.708 454.526 703.337ZM399.694 749.617C399.2 741.973 398.667 735.388 394.05 730.086C393.657 729.631 392.656 729.703 391.939 729.509C389.845 730.174 389.326 732.267 388.21 733.763C389.466 743.607 389.466 743.607 394.386 750.43L399.694 749.617ZM441.767 770.201C444.481 782.826 446.938 785.262 455.168 784.102C456.972 777.654 451.029 774.063 450.328 768.889L441.767 770.201ZM336.404 790.151L338.177 801.726L341.993 804.177L347.572 797.676C345.569 793.056 346.894 788.432 344.195 785.275C339.843 784.667 337.865 786.812 336.404 790.151ZM396.019 802.878C394.931 796.57 395.899 789.35 387.591 784.583C385.969 790.902 388.482 795.879 388.571 800.62C390.839 802.215 392.105 804.732 395.98 802.884L396.019 802.878ZM505.551 690.571C500.926 688.447 501.256 681.952 495.171 682.247C492.476 684.471 491.021 686.99 492.409 690.632C494.914 692.656 497.08 695.561 501.673 695.829L505.551 690.571ZM428.996 796.317C425.779 796.648 423.714 796.115 422.364 798.193C422.409 804.165 423.286 809.757 430.166 813.589C431.551 807.246 429.331 802.265 428.996 796.317ZM421.765 733.022C424.48 734.831 426.349 738.248 430.601 737.869C433.428 731.761 428.894 728.247 425.958 724.144C424.127 724.607 421.975 724.026 420.736 726.371L421.765 733.022ZM328.561 722.468L324.949 732.967C328.089 734.114 327.156 739.579 331.791 738.332C332.957 734.916 335.251 731.732 334.192 728.515L328.561 722.468ZM479.345 741.973C478.672 748.207 479.067 752.699 486.362 753.827C487.487 748.161 487.021 743.872 479.345 741.973ZM289.881 740.141C294.468 743.667 294.468 743.667 299.48 742.434C298.545 737.59 298.545 737.59 292.987 734.597L289.881 740.141ZM312.367 766.722C310.193 765.74 308.504 764.815 306.686 764.173C306.109 763.978 305.257 764.554 303.827 764.996C304.118 768.806 303.847 772.782 306.383 776.39C311.666 774.953 309.159 770.279 312.377 766.72L312.367 766.722ZM416.014 759.863C417.329 762.899 415.673 766.481 420.21 769.417C421.349 766.683 424.214 765.708 423.42 761.844C421.571 761.53 420.812 758.49 416.024 759.861L416.014 759.863ZM372.642 708.358C372.8 711.238 370.619 715.355 376.701 714.514C377.472 711.817 377.795 709.572 375.38 707.939L372.642 708.358ZM412.94 701.971C414.425 701.632 415.738 701.815 416.268 700.388C416.144 697.534 416.872 693.831 411.463 695.439C411.358 697.59 411.116 699.448 412.949 701.969L412.94 701.971ZM461.695 680.336C461.443 679.276 460.841 678.333 459.987 677.658C459.133 676.983 458.076 676.616 456.987 676.616C456.481 678.99 456.172 681.263 458.613 682.801C460.238 682.714 461.797 682.586 461.697 680.285L461.695 680.336Z" fill="#FB7259"/>
<path d="M233.788 765.713C233.64 764.992 233.591 764.254 233.644 763.52L244.902 761.794C244.865 767.425 248.067 772.215 250.24 776.819C253.663 783.973 255.517 792.44 262.588 797.518L262.538 797.525C263.071 802.189 267.223 804.658 269.2 808.452C278.003 820.385 289.398 830.164 302.527 837.054C305.058 837.192 306.362 839.501 308.46 840.384C315.647 843.248 321.846 849.238 330.516 847.455L330.437 847.406C341.753 855.627 354.762 856.476 368.058 856.097C368.473 856.691 368.992 857.836 369.328 857.785C375.765 856.677 382.283 858.278 388.583 857.535C403.778 855.753 418.867 853.076 434.008 850.807C435.747 850.54 436.911 849.947 436.928 848.012C441.953 847.07 447.755 847.365 451.854 844.936C461.545 839.05 472.208 835.291 481.955 829.376C497.892 819.582 512.131 807.262 524.116 792.899C534.648 780.383 542.889 766.106 548.458 750.725C551.032 743.755 555.11 736.827 553.602 728.773C554.184 728.34 555.273 727.92 555.29 727.503C555.702 716.594 557.589 705.672 555.535 694.778C554.228 687.896 554.403 680.788 551.683 674.194C548.544 666.521 544.762 659.068 543.935 650.636C543.815 648.337 545.873 647.304 546.817 645.742C549.818 644.2 551.71 648.028 554.519 647.213C566.299 666.653 567.108 688.897 569.501 710.453C570.594 720.291 567.531 730.604 565.18 740.616C560.974 758.459 552.852 774.707 542.692 789.415C530.876 806.255 516.35 821.02 499.705 833.111C483.629 845.133 465.8 854.611 446.842 861.213C439.354 863.776 431.086 863.627 424.536 867.16C417.454 870.926 410.19 871.382 403.038 872.114C382.163 874.418 361.05 873.254 340.555 868.669C327.811 865.786 315.548 862.475 304.129 856.223C294.753 851.084 285.306 846.411 277.197 838.913C270.119 832.339 262.747 826.083 256.316 818.844C250.715 812.53 246.819 805.327 243.346 797.654C239.022 788.119 234.534 778.771 234.12 768.08C234.067 767.284 233.956 766.493 233.788 765.713Z" fill="#0B8790"/>
<path d="M436.912 847.974C436.905 849.907 435.733 850.512 433.992 850.769C418.858 853.088 403.762 855.715 388.567 857.497C382.267 858.24 375.749 856.639 369.312 857.747C369.016 857.792 368.497 856.647 368.042 856.06C361.728 851.23 353.799 851.444 346.597 849.937C341.37 848.836 336.344 844.427 330.42 847.358L330.498 847.407C329.5 844.524 327.13 844.109 324.48 843.19C318.174 840.989 311.863 838.557 306.242 834.755C305.769 834.433 305.204 834.276 304.633 834.306C304.062 834.337 303.517 834.555 303.081 834.926C302.895 835.622 302.697 836.31 302.515 837.036C289.385 830.146 277.99 820.366 269.187 808.434C271.091 808.051 271.995 805.829 270.952 805.291C267.414 803.465 268.963 798.918 266.06 796.935L262.521 797.477L262.57 797.47C261.8 794.553 262.624 791.22 260.534 788.606C253.349 779.813 250.608 769.388 249.439 758.388L251.811 758.025C252.504 758.252 253.724 758.359 253.811 758.73C255.134 764.324 258.018 769.213 260.254 774.364C264.816 784.793 272.436 792.528 279.795 800.415C302.64 824.917 331.207 838.83 364.227 843.442C370.855 844.379 377.852 844.945 384.738 843.799C396.075 841.906 407.436 840.165 418.82 838.576C431.886 836.766 443.444 831.181 454.69 824.753C468.515 816.868 481.671 808.114 492.573 796.276C500.012 788.176 509.502 781.906 513.448 770.82C514.668 767.472 516.97 764.627 519.989 762.736C521.628 762.536 522.386 761.671 522.026 759.986C524.56 758.313 526.58 755.97 527.862 753.218C529.144 750.466 529.638 747.412 529.289 744.396C531.842 743.63 532.705 741.536 533.389 739.266C535.101 733.54 536.545 727.714 538.61 722.107C544.21 707.112 545.709 690.894 542.954 675.127C542.278 671.183 542.157 667.155 541.019 663.425C540.094 660.36 542.307 658.3 542.32 655.678C542.358 653.811 540.716 651.412 543.967 650.58C544.794 659.012 548.576 666.465 551.715 674.138C554.412 680.716 554.271 687.91 555.567 694.722C557.621 705.617 555.734 716.539 555.322 727.447C555.311 727.904 554.222 728.324 553.635 728.717L551.828 726.303C548.071 735.984 545.223 745.525 540.988 754.591C534.466 768.743 525.158 780.751 515.629 792.51C508.55 801.243 499.633 808.741 490.613 815.566C480.235 823.582 469.218 830.735 457.672 836.952C450.83 840.56 443.665 844.572 435.592 845.566C435.409 845.572 435.23 845.628 435.076 845.728C434.923 845.828 434.799 845.969 434.72 846.135C434.641 846.301 434.609 846.485 434.628 846.668C434.647 846.85 434.715 847.024 434.826 847.171L436.912 847.974Z" fill="#90DBD0"/>
<path d="M542.281 655.684C542.268 658.307 540.054 660.366 540.979 663.431C542.12 667.181 542.245 671.229 542.914 675.133C545.698 690.891 544.23 707.107 538.661 722.109C536.596 727.717 535.152 733.543 533.44 739.268C532.775 741.535 531.893 743.633 529.339 744.398C527.801 740.496 529.142 736.507 530.68 733.338C535.675 723.022 535.199 711.4 538.948 700.81C540.457 696.532 539.579 691.001 539.371 686.278C539.158 681.252 541.143 676.517 540.042 671.506C538.94 666.495 538.492 661.394 537.777 656.334L542.281 655.684Z" fill="#FBF2DD"/>
<path d="M249.496 758.43C250.666 769.43 253.406 779.855 260.591 788.648C262.721 791.255 261.855 794.585 262.627 797.512C255.557 792.434 253.703 783.967 250.28 776.813C248.068 772.215 244.865 767.425 244.942 761.788L244.736 759.19L249.496 758.43Z" fill="#EBF3F6"/>
<path d="M244.696 759.196L244.902 761.794L233.644 763.52C236.691 756.669 237.035 756.535 244.696 759.196Z" fill="#90DBD0"/>
<path d="M233.788 765.713C233.936 766.474 234.031 767.243 234.07 768.017C233.396 767.847 232.273 767.847 232.135 767.474C231.625 766.126 232.811 765.944 233.788 765.713Z" fill="#90DBD0"/>
<path d="M351.854 763.362L349.358 747.072C353.789 741.598 353.789 741.598 359.981 744.766C363.454 750.729 360.483 756.688 359.962 762.666C357.47 763.766 354.951 764.627 351.854 763.362Z" fill="#191919"/>
<path d="M454.526 703.337C459.859 706.708 462.04 711.371 462.367 717.138C460.591 719.94 457.464 718.81 455.006 719.602C451.985 715.006 445.22 712.715 446.821 705.074C448.855 703.164 451.799 703.097 454.526 703.337Z" fill="#191919"/>
<path d="M399.694 749.617L394.346 750.436C389.426 743.613 389.426 743.613 388.171 733.769C389.307 732.27 389.806 730.18 391.899 729.515C392.656 729.703 393.657 729.631 394.011 730.092C398.667 735.388 399.2 741.973 399.694 749.617Z" fill="#191919"/>
<path d="M441.767 770.201L450.327 768.889C451.029 774.063 456.972 777.654 455.168 784.102C446.938 785.262 444.481 782.826 441.767 770.201Z" fill="#191919"/>
<path d="M336.404 790.151C337.864 786.812 339.842 784.667 344.192 785.255C346.891 788.413 345.566 793.037 347.569 797.657L341.989 804.157L338.174 801.707L336.404 790.151Z" fill="#191919"/>
<path d="M395.98 802.884C392.105 804.732 390.819 802.218 388.554 800.643C388.462 795.882 385.952 790.925 387.574 784.606C395.859 789.356 394.892 796.576 395.98 802.884Z" fill="#191919"/>
<path d="M505.512 690.577L501.614 695.838C497.014 695.531 494.855 692.665 492.35 690.641C490.962 686.999 492.417 684.48 495.111 682.256C501.217 681.958 500.885 688.443 505.512 690.577Z" fill="#191919"/>
<path d="M428.996 796.317C429.38 802.257 431.6 807.238 430.166 813.589C423.286 809.757 422.409 804.165 422.364 798.193C423.66 796.093 425.73 796.656 428.996 796.317Z" fill="#191919"/>
<path d="M421.715 733.029L420.696 726.377C421.935 724.032 424.088 724.613 425.919 724.15C428.854 728.253 433.389 731.767 430.562 737.875C426.3 738.255 424.431 734.839 421.715 733.029Z" fill="#191919"/>
<path d="M328.511 722.476L334.142 728.523C335.196 731.7 332.908 734.924 331.742 738.34C327.107 739.586 328.06 734.119 324.9 732.974L328.511 722.476Z" fill="#191919"/>
<path d="M479.345 741.973C486.986 743.837 487.451 748.126 486.362 753.827C479.096 752.695 478.701 748.203 479.345 741.973Z" fill="#191919"/>
<path d="M289.881 740.141L292.989 734.607C298.507 737.606 298.507 737.606 299.481 742.444C294.518 743.66 294.518 743.66 289.881 740.141Z" fill="#191919"/>
<path d="M529.349 744.397C529.698 747.413 529.205 750.466 527.923 753.219C526.641 755.971 524.621 758.314 522.087 759.987C519.004 754.389 525.045 750.965 525.373 746.109C525.497 744.41 527.93 744.837 529.349 744.397Z" fill="#FCDFD9"/>
<path d="M312.377 766.72C309.155 770.249 311.612 774.931 306.393 776.389C303.81 772.738 304.128 768.804 303.837 764.994C305.267 764.553 306.119 763.977 306.696 764.172C308.514 764.814 310.233 765.734 312.377 766.72Z" fill="#191919"/>
<path d="M416.024 759.861C420.812 758.49 421.571 761.53 423.413 761.865C424.204 765.71 421.339 766.685 420.203 769.439C415.683 766.479 417.339 762.897 416.024 759.861Z" fill="#191919"/>
<path d="M372.652 708.357L375.39 707.937C377.808 709.59 377.482 711.815 376.711 714.513C370.629 715.354 372.81 711.236 372.652 708.357Z" fill="#191919"/>
<path d="M412.949 701.969C411.146 699.443 411.358 697.59 411.463 695.439C416.882 693.829 416.154 697.532 416.268 700.388C415.748 701.813 414.485 701.623 412.949 701.969Z" fill="#191919"/>
<path d="M461.697 680.285C461.792 682.556 460.234 682.684 458.63 682.778C456.178 681.242 456.488 678.969 456.994 676.595C458.078 676.594 459.131 676.958 459.983 677.627C460.836 678.296 461.44 679.232 461.697 680.285Z" fill="#191919"/>
<path d="M522.085 759.977C522.445 761.662 521.687 762.527 520.048 762.727C519.977 762.41 519.975 762.082 520.042 761.764C520.109 761.446 520.244 761.146 520.437 760.885C520.63 760.624 520.878 760.408 521.162 760.251C521.447 760.095 521.761 760.001 522.085 759.977Z" fill="#FCDFD9"/>
<path d="M436.912 847.974L434.863 847.276C434.752 847.13 434.683 846.956 434.664 846.773C434.645 846.591 434.677 846.406 434.756 846.241C434.836 846.075 434.959 845.934 435.113 845.834C435.266 845.733 435.445 845.677 435.628 845.672C443.721 844.675 450.866 840.666 457.708 837.058C469.254 830.841 480.271 823.688 490.649 815.671C499.665 808.817 508.582 801.319 515.665 792.616C525.194 780.857 534.501 768.838 541.024 754.697C545.216 745.607 548.066 736.086 551.864 726.409L553.671 728.823C555.178 736.878 551.101 743.805 548.527 750.775C542.957 766.156 534.717 780.433 524.184 792.949C512.2 807.313 497.96 819.632 482.023 829.427C472.277 835.341 461.613 839.1 451.923 844.986C447.749 847.325 441.946 847.021 436.912 847.974Z" fill="#EBF3F6"/>
<path d="M302.559 836.999C302.746 836.302 302.944 835.614 303.126 834.888C303.561 834.518 304.107 834.3 304.678 834.269C305.249 834.238 305.814 834.396 306.287 834.718C311.927 838.517 318.223 840.982 324.525 843.152C327.175 844.071 329.542 844.468 330.543 847.369C321.873 849.153 315.674 843.163 308.488 840.299C306.402 839.495 305.089 837.137 302.559 836.999Z" fill="#EBF3F6"/>
<path d="M262.57 797.47L266.109 796.928C268.979 798.886 267.459 803.428 271.001 805.283C272.045 805.821 271.141 808.044 269.237 808.426C267.255 804.603 263.103 802.133 262.57 797.47Z" fill="#EBF3F6"/>
<defs>
<clipPath id="clip0_175_15">
<rect width="210.02" height="197.92" fill="white" transform="translate(0 266.507) rotate(-45)"/>
</clipPath>
</defs>
</svg>
