<svg width="728" height="997" viewBox="0 0 728 997" fill="none" xmlns="http://www.w3.org/2000/svg">
<path d="M520.522 344.084C589.383 277.398 601.945 390.281 569.171 508.05C528.043 588.668 430.438 763.745 369.051 819.1C292.318 888.303 248.835 851.72 128.473 773.87C8.1119 696.024 202.327 533.128 246.488 480.711C290.649 428.294 451.662 410.77 520.522 344.084Z" fill="#ACD8AA"/>
<path d="M112.953 167.249C102.344 160.377 97.4919 150.913 102.474 137.293C76.6656 125.387 79.1199 97.0111 104.765 81.1409C103.734 70.5708 100.14 58.382 111.555 51.2988C122.664 44.3573 132.631 50.0919 142.79 56.8736C146.852 45.3189 151.691 34.1836 165.044 35.1459C180.597 36.2636 188.9 47.1519 193.641 63.7271C210.243 55.9163 223.704 61.355 233.706 76.5942C242.647 90.1741 239.699 104.056 231.744 117.069C260.772 146.941 260.784 162.982 231.774 184.171C235.127 194.358 235.613 204.347 226.282 211.762C214.605 221.037 204.217 216.25 194.226 208.307C192.759 197.766 182.743 199.268 177.579 193.938L167.756 182.098C168.292 171.123 160.156 174.73 155.173 173.098L144.744 165.366C139.456 156.974 135.175 166.424 130.368 166.615L123.2 168.397L112.953 167.249ZM213.862 131.638C219.426 121.586 222.354 111.568 214.538 101.904C209.226 95.3198 203.248 88.8418 194.272 92.4899C188.082 95.0056 180.867 97.581 180.054 108.148C190.138 107.689 196.934 89.9889 208.392 103.658C218.563 115.799 209.578 124.569 204.801 134.551C212.756 139.196 223.584 139.098 223.658 151.888C223.739 163.731 213.818 164.116 204.882 168.313C216.158 172.735 222.816 169.034 226.564 160.112C232.694 145.415 224.389 137.753 213.862 131.638ZM166.852 93.2425C173.939 90.2139 172.504 84.5442 170.937 79.7415C168.767 73.072 165.764 66.1355 158.527 65.2041C149.416 64.0315 146.086 72.8369 141.569 79.8386C135.105 75.8117 128.492 71.5098 121.999 78.8111C116.205 85.329 115.181 93.643 117.002 102.11C118.822 110.577 122.708 113.91 130.972 114.846C124.213 103.901 114.692 93.154 128.324 81.9895C136.46 81.6733 138.455 89.002 143.419 92.3141C146.737 84.8172 147.783 75.835 155.808 72.1923C167.833 73.3246 164.157 85.3444 166.852 93.2425ZM182.668 172.76C190.692 165.432 193.685 156.072 191.278 145.442C188.374 132.628 178.245 132.582 168.838 132.276C164.379 118.485 156.751 109.505 143.329 116.106C133.909 120.73 131.341 130.869 133.832 141.84C137.742 131.885 138.651 118.753 152.17 120.407C165.528 122.052 161.047 135.417 161.798 145.194C169.368 142.462 175.728 133.142 182.974 141.306C191.812 151.262 185.132 161.969 182.668 172.76V172.76Z" fill="#576849"/>
<path d="M155.173 173.098C160.147 174.803 168.292 171.123 167.756 182.098C167.547 188.664 163.908 195.31 167.54 201.965C172.925 201.924 175.99 199.027 177.601 193.909C182.728 199.234 192.782 197.737 194.249 208.278C171.134 228.852 151.331 252.727 136.229 280.913C123.214 278.173 113.435 271.589 101.591 262.194L112.953 167.249L123.204 168.366C123.776 172.891 122.61 178.226 127.862 181.054C130.05 176.255 134.308 172.298 130.372 166.583C135.197 166.395 139.46 156.943 144.748 165.334C143.992 176.068 140.098 186.931 144.982 202.79L155.173 173.098Z" fill="#AEC6AD"/>
<path d="M213.862 131.638C224.389 137.754 232.694 145.415 226.553 160.047C222.805 168.969 216.147 172.67 204.87 168.247C213.804 164.072 223.728 163.666 223.646 151.823C223.573 139.033 212.742 139.152 204.789 134.486C209.573 124.451 218.561 115.735 208.38 103.593C196.923 89.9236 190.126 107.634 180.043 108.083C180.853 97.5367 188.071 94.9403 194.261 92.4246C203.237 88.7766 209.215 95.2545 214.527 101.839C222.354 111.569 219.426 121.587 213.862 131.638Z" fill="#A5BA9C"/>
<path d="M166.853 93.2425C164.157 85.3444 167.834 73.3246 155.841 72.1539C147.811 75.8387 146.764 84.8313 143.452 92.2758C138.46 88.96 136.465 81.6313 128.357 81.9512C114.697 93.1121 124.218 103.859 130.972 114.846C122.703 113.952 118.812 110.501 117.006 102.153C115.2 93.8052 116.205 85.3289 121.999 78.8111C128.493 71.5098 135.104 75.8221 141.569 79.8386C146.039 72.8308 149.415 64.042 158.527 65.204C165.764 66.1355 168.764 73.0929 170.937 79.7415C172.504 84.5442 173.949 90.2151 166.853 93.2425Z" fill="#A5BA9C"/>
<path d="M182.668 172.76C185.132 161.969 191.764 151.256 182.974 141.306C175.75 133.123 169.387 142.465 161.798 145.195C161.047 135.417 165.528 122.052 152.17 120.407C138.651 118.753 137.742 131.885 133.832 141.84C131.303 130.865 133.909 120.731 143.31 116.104C156.732 109.503 164.36 118.483 168.82 132.274C178.245 132.582 188.37 132.66 191.259 145.44C193.684 156.083 190.692 165.432 182.668 172.76Z" fill="#A5BA9C"/>
<path d="M340.726 63.8808C340.414 55.644 335.76 50.3331 334.363 43.7201C333.032 37.3863 334.641 31.373 335.996 25.6149C337.592 18.8118 343.685 16.3913 350.24 15.2903C354.964 18.8898 360.481 21.1712 364.8 26.1456C368.156 29.9998 373.782 33.8903 379.804 29.0701C386.521 30.2975 393.412 30.8882 399.913 32.883C414.807 37.4312 427.304 47.0616 440.799 54.6099C444.212 56.5176 446.315 59.8732 448.205 62.6733C449.751 64.9543 455.218 65.9541 452.5 70.7816C456.746 73.251 458.394 77.8568 461.081 81.6654C466.702 89.6298 471.139 98.1151 472.469 107.9C473.586 116.025 473.757 124.314 474.271 132.494C474.221 133.52 473.937 134.518 473.443 135.409C470.145 142.579 469.657 150.483 468.19 158.083C467.247 162.993 470.243 167.654 470.79 171.349C471.702 175.671 468.855 177.407 468.389 180.34C467.015 189.257 458.643 193.619 450.696 189.831C440.146 184.796 429.09 182.223 417.606 180.634C405.836 179.019 393.561 177.082 384.018 169.46C373.928 161.396 362.788 154.549 355.061 143.196C351.58 138.088 349.227 132.633 346.305 127.369C338.941 114.065 336.089 99.4471 336.812 84.3848C337.158 77.4595 336.784 69.9147 340.726 63.8808ZM386.651 54.0877C385.733 59.8892 389.228 61.7938 392.712 62.8159C393.886 63.1275 395.13 62.9533 396.183 62.3302C397.236 61.707 398.013 60.6839 398.351 59.477C399.544 55.7804 397.9 53.5134 393.949 51.5439L386.651 54.0877ZM413.432 66.9944C416.074 69.2749 415.866 74.6148 420.919 74.0634C423.987 71.6044 423.886 68.3006 421.716 65.8229C420.398 64.3248 418.21 62.295 415.526 63.2325L413.432 66.9944ZM386.976 40.9868C388.339 43.1796 389.716 45.4017 391.021 47.518C393.314 47.1388 395.449 47.3324 396.683 45.2243C395.191 39.7948 392.265 36.6875 389.164 37.4898L386.976 40.9868ZM411.375 71.5921C407.205 70.754 404.408 71.9677 403.803 76.8296C405.783 78.5671 407.569 80.1268 410.019 80.2591C413.724 78.046 412.595 74.9816 411.371 71.5998L411.375 71.5921Z" fill="#FDE773"/>
<path d="M386.65 54.0876L393.949 51.5439C397.885 53.5044 399.544 55.7804 398.351 59.477C398.012 60.6839 397.236 61.7071 396.183 62.3302C395.13 62.9534 393.886 63.1275 392.711 62.8158C389.228 61.7939 385.742 59.8735 386.65 54.0876Z" fill="#FDCB44"/>
<path d="M413.427 67.0023L415.522 63.2404C418.205 62.3029 420.394 64.3327 421.711 65.8308C423.881 68.3085 423.983 71.6122 420.919 74.0635C415.861 74.6226 416.061 69.2782 413.427 67.0023Z" fill="#FDCB44"/>
<path d="M386.971 40.9947L389.16 37.4977C392.261 36.6954 395.186 39.8027 396.678 45.2322C395.444 47.3403 393.31 47.1466 391.017 47.5259C389.712 45.4096 388.35 43.1966 386.971 40.9947Z" fill="#FDCB44"/>
<path d="M411.371 71.5999C412.595 74.9817 413.724 78.046 410.015 80.2669C407.542 80.1738 405.778 78.5749 403.799 76.8374C404.404 71.9754 407.194 70.7572 411.371 71.5999Z" fill="#FDCB44"/>
<path d="M104.58 376.862C107.986 371.722 111.095 366.378 115.849 362.303C125.565 353.951 136.341 346.876 148.508 344.321C160.061 341.894 171.833 344.053 181.673 352.367C184.992 355.17 189.346 356.377 192.129 360.196C202.326 374.194 210.965 388.67 213.163 406.761C214.616 418.727 215.121 430.503 212.88 442.227C211.648 448.613 209.038 454.539 204.395 459.251C200.202 463.511 196.23 468.026 191.907 472.126C179.309 484.092 165.11 492.253 146.778 491.518C144.956 494.316 142.536 496.799 140.534 500.178C136.166 507.311 129.957 513.031 122.61 516.685C115.75 520.21 108.596 520.886 101.033 520.453C91.5137 519.903 84.0822 515.248 77.3517 508.959C73.2568 505.133 69.4885 500.918 65.6153 496.864C55.8986 486.698 49.6486 474.648 45.3753 460.956C40.1722 444.348 44.5133 429.079 48.8851 413.51C53.4417 409.756 54.4454 403.287 59.2607 399.506C63.6264 396.077 67.1731 391.531 71.6867 386.85C79.8085 384.493 88.6566 382.738 97.9237 384.06C102.308 383.676 103.306 382.603 104.58 376.862ZM103.614 405.452C103.399 406.072 102.918 406.761 103.054 407.31C103.062 407.471 103.131 407.623 103.246 407.733C103.361 407.843 103.513 407.901 103.669 407.898C103.824 407.893 103.973 407.826 104.082 407.711C104.192 407.595 104.253 407.44 104.255 407.278C104.365 406.742 103.891 406.058 103.694 405.42C103.919 405.239 104.102 405.008 104.229 404.742C104.356 404.478 104.422 404.186 104.423 403.891C104.423 403.594 104.36 403.303 104.235 403.036C104.112 402.77 103.931 402.537 103.706 402.354C106.643 399.589 106.575 396.825 104.081 393.663C99.4512 398.543 99.4512 398.543 102.198 403.893L103.614 405.452ZM141.341 479.06L143.09 476.8C140.227 473.831 137.45 470.772 134.507 467.898C131.563 465.025 129.617 461.55 127.844 457.732C123.965 449.201 119.586 440.905 115.153 432.655C113.139 428.907 107.598 417.157 107.383 414.238C107.234 412.208 106.816 410.803 104.322 410.694C104.833 413.485 104.081 416.18 104.956 419.091C107.086 426.18 106.982 434.156 113.017 439.597C114.894 449.475 120.35 457.674 125.153 466.065C128.773 472.463 133.571 478.23 141.335 479.067L141.341 479.06ZM180.522 386.562C178.502 388.223 179.333 390.439 179.352 392.08L185.953 398.925C187.4 397.489 188.976 396.799 189.395 394.679C187.633 392.389 186.344 389.748 185.608 386.92C184.934 386.726 184.247 386.585 183.552 386.499C182.529 386.435 181.525 386.556 180.516 386.57L180.522 386.562ZM165.467 366.569C161.052 371.148 160.547 373.421 163.201 375.905C165.854 378.389 167.948 377.75 171.741 373.076L165.467 366.569ZM180.418 374.244C182.492 368.261 182.492 368.261 176.434 363.727C175.275 364.839 173.595 365.509 173.471 368.318C175.83 369.705 176.827 373.408 180.405 374.257L180.418 374.244ZM166.273 358.133C164.358 356.377 163.385 353.274 160.079 352.987C157.936 355.592 158.096 357.814 159.598 360.151C161.895 360.528 164.278 361.735 166.267 358.14L166.273 358.133ZM196.691 387.316C195.67 383.178 192.739 383.025 188.853 383.721C190.756 386.001 191.864 388.568 194.722 389.36C195.215 389.277 195.672 389.036 196.025 388.668C196.38 388.302 196.612 387.828 196.691 387.316Z" fill="#FDB3A5"/>
<path d="M97.6588 335.521C105.997 324.653 117.351 320.72 130.232 319.34C137.37 318.58 144.42 317.641 151.661 318.14C152.474 319.187 153.312 320.26 154.272 321.486C151.507 325.132 150.448 329.499 147.32 332.897C134.229 347.111 118.527 349.729 101.027 344.724C99.7035 344.347 98.6507 343.625 97.3079 344.327C96.9569 341.358 96.5076 338.415 97.6588 335.521Z" fill="#0B8790"/>
<path d="M97.6589 335.521C96.5077 338.415 96.9448 341.371 97.3079 344.327C97.395 355.596 99.8777 366.705 104.58 376.862C103.306 382.603 102.308 383.676 97.8626 384.085C95.7875 378.344 92.2468 373.408 90.3014 367.469C85.5415 352.98 85.2515 338.862 90.4729 324.71C91.1957 324.468 91.935 324.282 92.6839 324.155C93.7002 324.11 94.7225 324.213 95.7257 324.244C98.4783 327.699 95.6395 332.061 97.6589 335.521Z" fill="#191919"/>
<path d="M141.336 479.067C133.546 478.204 128.792 472.444 125.128 466.091C120.326 457.7 114.87 449.501 112.992 439.622C106.958 434.181 107.062 426.206 104.931 419.117C104.051 416.199 104.809 413.51 104.297 410.72C106.791 410.828 107.21 412.233 107.357 414.264C107.567 417.188 113.115 428.932 115.129 432.681C119.562 440.931 123.94 449.226 127.82 457.758C129.568 461.602 131.483 465.044 134.481 467.924C137.481 470.803 140.202 473.856 143.066 476.825L141.336 479.067Z" fill="#FC755D"/>
<path d="M180.516 386.57C181.501 386.531 182.529 386.435 183.551 386.473C184.246 386.559 184.933 386.7 185.607 386.895C186.344 389.723 187.633 392.364 189.395 394.654C188.976 396.773 187.4 397.463 185.952 398.9L179.364 392.068C179.339 390.433 178.496 388.229 180.516 386.57Z" fill="#FC755D"/>
<path d="M165.46 366.575L171.735 373.082C167.941 377.756 165.885 378.434 163.194 375.911C160.504 373.389 161.045 371.154 165.46 366.575Z" fill="#FC755D"/>
<path d="M180.405 374.258C176.821 373.414 175.824 369.711 173.417 368.376C173.565 365.54 175.245 364.87 176.378 363.785C182.511 368.293 182.511 368.293 180.405 374.258Z" fill="#FC947F"/>
<path d="M102.142 403.926C99.4206 398.549 99.4206 398.549 104.026 393.696C106.539 396.876 106.587 399.622 103.65 402.387L102.142 403.926Z" fill="#FC947F"/>
<path d="M166.267 358.14C164.278 361.735 161.896 360.528 159.642 360.107C158.139 357.834 157.948 355.58 160.122 352.942C163.379 353.28 164.377 356.358 166.267 358.14Z" fill="#FC947F"/>
<path d="M196.691 387.316C196.612 387.828 196.379 388.302 196.025 388.669C195.672 389.036 195.215 389.277 194.721 389.36C191.864 388.568 190.756 386.001 188.853 383.721C192.733 383.031 195.664 383.185 196.691 387.316Z" fill="#FC947F"/>
<path d="M103.638 405.452C103.854 406.072 104.328 406.754 104.199 407.31C104.198 407.472 104.136 407.627 104.027 407.742C103.917 407.858 103.769 407.925 103.614 407.929C103.457 407.934 103.305 407.874 103.191 407.765C103.076 407.656 103.007 407.504 102.998 407.342C102.875 406.806 103.355 406.116 103.558 405.484L103.638 405.452Z" fill="#FC755D"/>
<path d="M102.142 403.926L103.638 402.373C103.863 402.556 104.044 402.79 104.168 403.055C104.292 403.322 104.357 403.614 104.355 403.91C104.354 404.205 104.288 404.497 104.162 404.762C104.035 405.027 103.851 405.259 103.626 405.439L102.142 403.926Z" fill="#FC755D"/>
<path d="M406.429 472.234C412.253 471.474 415.564 475.161 418.497 479.54C420.867 483.446 423.047 487.512 425.678 491.221C428.309 494.932 428.435 499.594 430.383 503.652C432.224 507.471 434.878 511.702 435.199 515.794C435.992 525.938 440.473 535.318 440.159 545.664C440.059 548.843 440.43 552.612 443.015 555.28C442.042 556.165 439.955 556.707 440.459 558.154C441.92 562.279 438.345 567.349 442.768 570.808C442.519 570.948 442.301 571.141 442.13 571.375C441.96 571.609 441.84 571.878 441.778 572.164C441.718 572.451 441.717 572.748 441.776 573.035C441.835 573.321 441.953 573.591 442.123 573.826C440.392 576.497 439.57 579.69 439.788 582.9C440.603 593.532 435.279 602.194 432.212 611.573C427.738 625.347 420.379 637.405 412.18 648.993C405.515 658.43 398.304 667.288 388.553 673.586C380.059 679.078 371.641 684.692 363.299 690.428C358.213 693.915 352.463 696.011 346.858 697.676C319.03 705.992 291.332 705.018 264.503 693.19C255.852 689.393 247.069 685.845 239.722 678.891C236.111 675.469 232.083 672.497 229.054 668.364C228.875 668.076 227.845 668.452 227.214 668.518L219.913 656.745C221.567 649.661 226.036 644.78 231.173 640.292C238.257 634.118 245.242 627.784 251.357 620.582C252.448 619.286 253.322 617.823 254.79 616.951C263.056 612.083 268.059 603.421 275.63 597.749C277.272 591.415 285.427 591.442 287.1 585.14C297.791 577.42 305.603 566.476 315.591 557.84C321.947 552.345 327.601 545.117 333.797 539.364C341.203 532.492 348.452 525.297 355.825 518.371C363.627 511.085 371.732 504.037 379.089 496.115C384.299 490.493 389.701 484.259 396.98 480.855C400.674 478.681 401.94 473.543 406.429 472.234ZM308.592 636.163C311.503 636.067 313.201 634.431 314.774 632.576C313.068 627.454 313.319 621.446 308.442 617.806C302.394 617.469 302.394 617.469 300.811 623.614L308.592 636.163ZM368.965 548.895C366.711 549.7 364.407 550.861 363.452 553.161C364.888 560.053 371.077 559.448 375.114 562.134C376.788 560.577 379.676 560.359 380.095 557.395C377.79 552.758 374.401 549.714 368.965 548.895ZM341.766 607.232C338.663 601.109 335.904 595.874 330.351 593.198C329.877 592.968 329.107 593.395 328.468 593.499C327.038 594.817 327.368 596.735 327.011 598.379C331.5 606.036 331.5 606.036 337.833 609.855L341.766 607.232ZM382.528 608.737C389.164 618.152 391.982 619.258 398.116 615.275C397.264 609.293 391.264 608.516 388.872 604.507L382.528 608.737ZM305.803 663.94L311.318 672.835L315.223 673.454L317.354 666.04C314.123 662.966 313.537 658.665 310.271 657.053C306.594 658.152 305.781 660.649 305.803 663.94ZM357.731 652.514C354.628 647.711 352.838 641.4 344.54 640.523C345.491 646.332 349.254 649.513 351.006 653.39C353.376 653.872 355.275 655.482 357.702 652.533L357.731 652.514ZM405.02 519.601C400.588 519.55 398.547 514.071 393.812 516.552C392.457 519.378 392.193 521.991 394.589 524.484C397.299 525.232 400.052 526.832 403.8 525.364L405.02 519.601ZM381.632 634.975C379.191 636.431 377.359 636.75 377.023 638.961C379.176 643.87 381.857 648.16 388.687 648.79C387.54 643.049 384.008 639.757 381.632 634.975ZM353.435 585.428C356.236 585.921 358.934 588.052 362.182 586.176C362.264 580.098 357.412 578.867 353.622 576.563C352.33 577.618 350.412 577.93 350.258 580.32L353.435 585.428ZM275.564 610.999L276.414 620.987C279.318 620.778 280.514 625.629 283.759 622.896C283.475 619.65 284.17 616.18 282.187 613.916L275.564 610.999ZM402.405 571.635C404.08 577.024 405.988 580.584 412.19 578.832C411.075 573.745 409.183 570.378 402.405 571.635ZM251.068 639.801C255.966 641.022 255.966 641.022 259.515 638.162C257.054 634.511 257.054 634.511 251.572 634.086L251.068 639.801ZM278.378 653.456C276.3 653.445 274.629 653.303 272.955 653.442C272.427 653.494 271.954 654.282 270.973 655.173C272.556 658.208 273.75 661.587 277.047 663.631C280.739 660.502 277.088 657.569 278.385 653.45L278.378 653.456ZM358.38 609.681C360.502 611.702 360.455 615.265 365.105 616.018C365.041 613.344 366.974 611.487 364.972 608.592C363.39 609.013 361.709 606.784 358.387 609.676L358.38 609.681ZM305.62 583.15C306.767 585.467 306.492 589.665 311.031 586.735C310.688 584.227 310.149 582.256 307.649 581.798L305.62 583.15ZM335.405 563.062C336.466 562.236 337.575 561.904 337.491 560.532C336.38 558.224 335.646 554.902 331.914 558.218C332.593 560.03 333.06 561.652 335.412 563.057L335.405 563.062ZM366.51 527.287C365.933 526.506 365.12 525.949 364.202 525.707C363.283 525.464 362.312 525.55 361.446 525.95C361.886 528.095 362.446 530.083 364.933 530.454C366.194 529.785 367.389 529.106 366.493 527.244L366.51 527.287Z" fill="#FB7259"/>
<path d="M215.523 681.522C215.15 680.981 214.849 680.391 214.631 679.766L222.973 674.202C224.94 678.86 229.185 681.633 232.546 684.632C237.806 689.273 242.283 695.575 249.707 697.163L249.67 697.187C251.748 700.838 255.926 701.348 258.843 703.75C270.076 710.355 282.607 714.23 295.492 715.085C297.554 714.268 299.41 715.693 301.392 715.65C308.124 715.369 315.178 718.03 321.442 713.371L321.361 713.359C333.277 715.978 343.924 711.895 354.365 706.692C354.905 707.03 355.724 707.783 355.973 707.617C360.7 704.336 366.452 703.26 371.199 700.33C382.652 693.272 393.704 685.515 404.941 678.075C406.23 677.216 406.945 676.298 406.273 674.696C409.935 672.071 414.654 670.181 417.053 666.67C422.673 658.251 429.821 651.229 435.476 642.766C444.678 628.827 451.634 613.429 456.072 597.174C460.01 582.978 461.502 568.171 460.477 553.437C460.052 546.742 460.839 539.528 456.783 533.439C457.093 532.868 457.81 532.121 457.676 531.771C454.135 522.622 451.762 512.919 446.266 504.689C442.786 499.493 440.404 493.566 435.902 489.128C430.685 483.953 425.034 479.197 421.386 472.546C420.475 470.694 421.746 469.085 421.943 467.45C423.783 465.074 426.645 467.536 428.59 465.831C444.853 477.533 453.384 495.582 462.932 512.482C467.29 520.194 468.511 529.827 470.192 538.949C473.174 555.213 472.476 571.602 469.611 587.469C466.185 605.705 459.868 623.225 450.917 639.319C442.395 655.147 431.576 669.521 418.839 681.938C413.792 686.806 407.164 689.724 403.207 695.047C398.91 700.757 393.294 703.805 387.866 707.039C372.08 716.616 354.875 723.421 336.949 727.176C325.791 729.485 314.863 731.264 303.564 730.307C294.285 729.516 285.114 729.136 276.006 725.934C268.045 723.114 259.963 720.665 252.282 717.06C245.588 713.912 239.935 709.403 234.452 704.352C227.631 698.077 220.747 692.018 216.626 683.352C216.302 682.715 215.933 682.103 215.523 681.522Z" fill="#0B8790"/>
<path d="M406.246 674.671C406.926 676.268 406.209 677.198 404.915 678.05C393.701 685.528 382.626 693.247 371.173 700.305C366.426 703.234 360.674 704.311 355.947 707.592C355.728 707.738 354.909 706.984 354.339 706.668C347.604 705.006 341.374 708.098 335.112 709.504C330.564 710.518 325.003 708.73 321.331 713.326L321.41 713.338C319.594 711.327 317.562 711.856 315.129 712.073C309.333 712.576 303.451 712.891 297.632 711.822C297.142 711.731 296.637 711.809 296.193 712.044C295.75 712.279 295.394 712.66 295.179 713.126C295.277 713.768 295.364 714.409 295.477 715.074C282.591 714.22 270.059 710.344 258.827 703.74C260.205 702.724 260.136 700.559 259.116 700.499C255.655 700.294 255.274 695.973 252.262 695.405L249.64 697.154L249.676 697.13C248.029 695.007 247.503 691.955 244.913 690.568C236.081 685.958 230.204 678.367 225.373 669.724L227.131 668.552C227.763 668.485 228.771 668.124 228.972 668.398C232.008 672.526 236.035 675.498 239.64 678.924C246.967 685.848 255.77 689.426 264.42 693.225C291.278 705.033 318.933 706.002 346.83 697.663C352.434 695.998 358.2 693.892 363.27 690.414C371.615 684.684 380.034 679.07 388.524 673.573C398.274 667.275 405.486 658.417 412.151 648.98C420.351 637.392 427.71 625.333 432.183 611.56C435.227 602.143 440.551 593.482 439.758 582.887C439.541 579.677 440.363 576.483 442.094 573.814C443.326 573.046 443.622 572.054 442.739 570.796C444.161 568.484 444.936 565.809 444.98 563.068C445.024 560.326 444.334 557.626 442.987 555.266C444.746 553.696 444.689 551.651 444.428 549.527C443.759 544.175 442.842 538.839 442.496 533.454C441.632 519.027 437.073 505.099 429.291 493.107C427.355 490.103 425.83 486.825 423.602 484.167C421.78 481.979 422.809 479.466 421.89 477.299C421.258 475.745 419.101 474.37 421.392 472.488C425.04 479.139 430.691 483.895 435.908 489.07C440.386 493.503 442.825 499.489 446.271 504.631C451.768 512.862 454.141 522.564 457.681 531.713C457.835 532.094 457.117 532.841 456.79 533.381L454.497 532.054C454.942 541.421 456.06 550.338 455.907 559.373C455.738 573.444 452.593 586.771 449.184 599.975C446.651 609.781 442.218 619.245 437.464 628.191C432.053 638.62 425.827 648.571 418.849 657.945C414.687 663.437 410.411 669.381 404.343 673.17C404.199 673.242 404.077 673.354 403.99 673.493C403.903 673.632 403.855 673.794 403.851 673.96C403.847 674.126 403.887 674.289 403.967 674.433C404.046 674.577 404.162 674.695 404.303 674.775L406.246 674.671Z" fill="#90DBD0"/>
<path d="M421.861 477.318C422.781 479.486 421.75 481.999 423.572 484.187C425.81 486.86 427.345 490.153 429.261 493.127C437.063 505.101 441.646 519.015 442.537 533.437C442.883 538.822 443.801 544.159 444.47 549.51C444.745 551.625 444.787 553.679 443.027 555.25C440.42 552.597 440.072 548.814 440.171 545.634C440.486 535.288 435.986 525.878 435.212 515.764C434.895 511.681 432.236 507.442 430.395 503.623C428.444 499.555 428.343 494.92 425.691 491.192C423.037 487.464 420.872 483.421 418.509 479.511L421.861 477.318Z" fill="#FBF2DD"/>
<path d="M225.433 669.738C230.265 678.38 236.141 685.971 244.973 690.582C247.592 691.948 248.084 695.014 249.736 697.144C242.312 695.556 237.835 689.254 232.576 684.612C229.186 681.633 224.94 678.86 223.002 674.182L221.917 672.115L225.433 669.738Z" fill="#EBF3F6"/>
<path d="M221.888 672.135L222.973 674.202L214.631 679.766C214.625 672.994 214.851 672.757 221.888 672.135Z" fill="#90DBD0"/>
<path d="M215.523 681.521C215.911 682.095 216.259 682.694 216.564 683.318C215.968 683.426 215.075 683.839 214.833 683.582C213.949 682.658 214.828 682.071 215.523 681.521Z" fill="#90DBD0"/>
<path d="M308.592 636.163L300.83 623.645C302.413 617.5 302.413 617.5 308.461 617.836C313.338 621.477 313.088 627.485 314.793 632.607C313.202 634.431 311.503 636.067 308.592 636.163Z" fill="#191919"/>
<path d="M368.965 548.895C374.402 549.715 377.79 552.759 380.095 557.395C379.676 560.359 376.788 560.577 375.114 562.134C371.082 559.455 364.889 560.053 363.453 553.162C364.393 550.838 366.711 549.7 368.965 548.895Z" fill="#191919"/>
<path d="M341.766 607.232L337.803 609.874C331.471 606.056 331.471 606.056 326.982 598.398C327.354 596.744 327.009 594.837 328.438 593.519C329.107 593.395 329.877 592.968 330.323 593.218C335.904 595.874 338.663 601.109 341.766 607.232Z" fill="#191919"/>
<path d="M382.528 608.737L388.871 604.507C391.264 608.517 397.264 609.293 398.116 615.275C391.982 619.258 389.164 618.152 382.528 608.737Z" fill="#191919"/>
<path d="M305.803 663.94C305.78 660.649 306.593 658.153 310.261 657.038C313.528 658.65 314.114 662.951 317.345 666.025L315.212 673.439L311.309 672.821L305.803 663.94Z" fill="#191919"/>
<path d="M357.702 652.533C355.275 655.482 353.361 653.882 351.001 653.416C349.24 649.523 345.485 646.357 344.535 640.549C352.808 641.42 354.6 647.73 357.702 652.533Z" fill="#191919"/>
<path d="M404.991 519.62L403.756 525.393C399.989 526.832 397.255 525.262 394.545 524.513C392.15 522.02 392.414 519.407 393.768 516.582C398.518 514.091 400.554 519.562 404.991 519.62Z" fill="#191919"/>
<path d="M381.632 634.975C384.044 639.733 387.576 643.025 388.688 648.79C381.857 648.16 379.176 643.87 377.023 638.961C377.309 636.752 379.155 636.455 381.632 634.975Z" fill="#191919"/>
<path d="M353.398 585.452L350.229 580.34C350.383 577.95 352.301 577.638 353.593 576.582C357.382 578.887 362.235 580.118 362.153 586.195C358.898 588.076 356.2 585.946 353.398 585.452Z" fill="#191919"/>
<path d="M275.527 611.024L282.15 613.941C284.115 616.174 283.439 619.674 283.723 622.921C280.478 625.653 279.297 620.793 276.378 621.011L275.527 611.024Z" fill="#191919"/>
<path d="M402.405 571.635C409.143 570.363 411.034 573.729 412.189 578.832C406.009 580.57 404.102 577.011 402.405 571.635Z" fill="#191919"/>
<path d="M251.067 639.801L251.577 634.093C257.029 634.538 257.029 634.538 259.519 638.17C256.003 640.998 256.003 640.998 251.067 639.801Z" fill="#191919"/>
<path d="M443.035 555.245C444.382 557.604 445.072 560.304 445.029 563.046C444.985 565.787 444.209 568.463 442.787 570.774C438.35 567.291 441.941 562.245 440.479 558.119C439.976 556.672 442.062 556.13 443.035 555.245Z" fill="#FCDFD9"/>
<path d="M278.385 653.45C277.074 657.546 280.688 660.504 277.054 663.626C273.705 661.565 272.563 658.203 270.981 655.168C271.962 654.278 272.435 653.489 272.963 653.438C274.637 653.299 276.33 653.426 278.385 653.45Z" fill="#191919"/>
<path d="M358.387 609.676C361.709 606.784 363.391 609.013 364.974 608.612C366.967 611.492 365.034 613.35 365.107 616.039C360.463 615.26 360.509 611.697 358.387 609.676Z" fill="#191919"/>
<path d="M305.627 583.146L307.656 581.792C310.165 582.266 310.695 584.221 311.039 586.73C306.5 589.661 306.774 585.462 305.627 583.146Z" fill="#191919"/>
<path d="M335.411 563.057C333.082 561.637 332.593 560.03 331.914 558.218C335.653 554.897 336.387 558.219 337.49 560.533C337.582 561.899 336.51 562.207 335.411 563.057Z" fill="#191919"/>
<path d="M366.493 527.245C367.374 529.083 366.18 529.761 364.938 530.429C362.443 530.064 361.883 528.075 361.444 525.931C362.306 525.531 363.272 525.444 364.187 525.683C365.103 525.921 365.915 526.471 366.493 527.245Z" fill="#191919"/>
<path d="M442.782 570.767C443.666 572.024 443.37 573.017 442.137 573.784C441.969 573.549 441.851 573.279 441.791 572.992C441.732 572.705 441.733 572.408 441.794 572.122C441.855 571.836 441.975 571.566 442.145 571.332C442.317 571.099 442.533 570.906 442.782 570.767Z" fill="#FCDFD9"/>
<path d="M406.247 674.67L404.369 674.848C404.229 674.769 404.113 674.651 404.033 674.507C403.953 674.363 403.913 674.199 403.917 674.034C403.922 673.868 403.97 673.706 404.057 673.567C404.143 673.427 404.265 673.315 404.409 673.244C410.492 669.445 414.753 663.511 418.915 658.019C425.894 648.645 432.119 638.694 437.53 628.265C442.271 619.296 446.704 609.832 449.251 600.049C452.66 586.846 455.8 573.509 455.973 559.447C456.084 550.408 454.974 541.507 454.563 532.128L456.856 533.455C460.911 539.544 460.125 546.757 460.55 553.453C461.574 568.188 460.083 582.994 456.144 597.19C451.707 613.445 444.75 628.843 435.548 642.783C429.894 651.245 422.745 658.267 417.126 666.686C414.635 670.15 409.912 672.033 406.247 674.67Z" fill="#EBF3F6"/>
<path d="M295.499 715.028C295.4 714.384 295.314 713.744 295.201 713.078C295.416 712.613 295.773 712.232 296.216 711.997C296.659 711.761 297.165 711.684 297.655 711.775C303.488 712.835 309.369 712.552 315.151 712.024C317.585 711.808 319.608 711.265 321.433 713.29C315.17 717.949 308.116 715.289 301.385 715.569C299.44 715.673 297.56 714.211 295.499 715.028Z" fill="#EBF3F6"/>
<path d="M249.676 697.13L252.299 695.382C255.276 695.941 255.677 700.246 259.152 700.474C260.173 700.534 260.243 702.7 258.864 703.715C255.932 701.291 251.754 700.78 249.676 697.13Z" fill="#EBF3F6"/>
</svg>
